<?xml version="1.0" standalone="no"?>
<!DOCTYPE svg PUBLIC "-//W3C//DTD SVG 1.1//EN" "http://www.w3.org/Graphics/SVG/1.1/DTD/svg11.dtd" >
<svg>
<metadata>
Created by FontForge 20090914 at Thu Jul 28 19:29:57 2022
 By www-data
Copyright 2021 Stijn de Vries &#38; The Plus Jakarta Sans Project Authors (https://github.com/tokotype/PlusJakartaSans)
</metadata>
<defs>
<font id="EudoxusSans-ExtraBold" horiz-adv-x="599" >
  <font-face 
    font-family="Eudoxus Sans ExtraBold"
    font-weight="800"
    font-stretch="normal"
    units-per-em="1000"
    panose-1="0 0 0 0 0 0 0 0 0 0"
    ascent="800"
    descent="-200"
    x-height="546"
    cap-height="745"
    bbox="-183 -395.003 1423 1214"
    underline-thickness="40"
    underline-position="-135"
    unicode-range="U+000D-U+FB02"
  />
<missing-glyph horiz-adv-x="600" 
d="M492 -240h-380v1200h380v-1200zM400 -157v39h-123l84 57h39v39h-200v-39h84l-84 -57v-39h200zM400 6v136h-200v-136h200zM400 214v135h-120v-67h40v28h40v-57h-120v96h-40v-135h200zM400 376v120h-40v-80h-160v-40h200zM320 444v84h80v40h-200v-40h80v-44h-80v-40h120z
M400 600v41h-80v84h-120v-125h200zM400 756v40h-80v44h80v40h-198v-40h78v-44h-80v-40h200zM240 102h120v-56h-120v56zM240 684h40v-43h-40v43z" />
    <glyph glyph-name="fi" unicode="fi" horiz-adv-x="638" 
d="M121 416h-92v130h92v8c0 64.667 18.833 114.667 56.5 150s90.5 53 158.5 53c20 0 37.667 -1.66699 53 -5v-128c-12.667 2 -23.667 3 -33 3c-56.667 0 -85 -24.333 -85 -73v-8h323v-546h-150v416h-173v-416h-150v416z" />
    <glyph glyph-name="fl" unicode="fl" horiz-adv-x="670" 
d="M121 416h-92v130h92v8c0 64.667 18.833 114.667 56.5 150s90.5 53 158.5 53c20 0 37.667 -1.66699 53 -5v-128c-12.667 2 -23.667 3 -33 3c-56.667 0 -85 -24.333 -85 -73v-8h194v211h150v-757h-150v416h-194v-416h-150v416z" />
    <glyph glyph-name="f_f" unicode="ff" horiz-adv-x="810" 
d="M121 416h-92v130h92v8c0 64.667 18.833 114.667 56.5 150s90.5 53 158.5 53c20 0 37.667 -1.66699 53 -5v-128c-12.667 2 -23.667 3 -33 3c-56.667 0 -85 -24.333 -85 -73v-8h217v-14h33v8c0 70.667 19 126.5 57 167.5s90.667 61.5 158 61.5c20 0 37.667 -1.66699 53 -5
v-128c-12.667 2 -23.667 3 -33 3c-56.667 0 -85 -33 -85 -99v-8h117v-130h-117v-402h-150v402h-92v14h-158v-416h-150v416z" />
    <glyph glyph-name="f_f_i" unicode="ffi" horiz-adv-x="1048" 
d="M121 416h-92v130h92v8c0 64.667 18.833 114.667 56.5 150s90.5 53 158.5 53c20 0 37.667 -1.66699 53 -5v-128c-12.667 2 -23.667 3 -33 3c-56.667 0 -85 -24.333 -85 -73v-8h260v8c0 64.667 18.833 114.667 56.5 150s90.5 53 158.5 53c20 0 37.667 -1.66699 53 -5v-128
c-12.667 2 -23.667 3 -33 3c-56.667 0 -85 -24.333 -85 -73v-8h323v-546h-150v416h-173v-416h-150v416h-260v-416h-150v416z" />
    <glyph glyph-name="f_f_l" unicode="ffl" horiz-adv-x="1080" 
d="M121 416h-92v130h92v8c0 64.667 18.833 114.667 56.5 150s90.5 53 158.5 53c20 0 37.667 -1.66699 53 -5v-128c-12.667 2 -23.667 3 -33 3c-56.667 0 -85 -24.333 -85 -73v-8h260v8c0 64.667 18.833 114.667 56.5 150s90.5 53 158.5 53c20 0 37.667 -1.66699 53 -5v-128
c-12.667 2 -23.667 3 -33 3c-56.667 0 -85 -24.333 -85 -73v-8h194v211h150v-757h-150v416h-194v-416h-150v416h-260v-416h-150v416z" />
    <glyph glyph-name=".notdef" horiz-adv-x="600" 
d="M492 -240h-380v1200h380v-1200zM400 -157v39h-123l84 57h39v39h-200v-39h84l-84 -57v-39h200zM400 6v136h-200v-136h200zM400 214v135h-120v-67h40v28h40v-57h-120v96h-40v-135h200zM400 376v120h-40v-80h-160v-40h200zM320 444v84h80v40h-200v-40h80v-44h-80v-40h120z
M400 600v41h-80v84h-120v-125h200zM400 756v40h-80v44h80v40h-198v-40h78v-44h-80v-40h200zM240 102h120v-56h-120v56zM240 684h40v-43h-40v43z" />
    <glyph glyph-name="nonmarkingreturn" unicode="&#xd;" horiz-adv-x="180" 
 />
    <glyph glyph-name="space" unicode=" " horiz-adv-x="180" 
 />
    <glyph glyph-name="exclam" unicode="!" horiz-adv-x="400" 
d="M125 745h150l-10 -515h-130zM135 156c17.333 17.333 39 26 65 26s47.667 -8.66699 65 -26s26 -39 26 -65s-8.5 -47.667 -25.5 -65s-38.833 -26 -65.5 -26c-26 0 -47.667 8.66699 -65 26s-26 39 -26 65s8.66699 47.667 26 65z" />
    <glyph glyph-name="quotedbl" unicode="&#x22;" horiz-adv-x="532" 
d="M101 745h130l-17 -305h-95zM430 745l-17 -305h-95l-18 305h130z" />
    <glyph glyph-name="numbersign" unicode="#" horiz-adv-x="956" 
d="M190 153h-120v130h157l52 180h-120v130h157l44 152h150l-44 -152h150l43 152h150l-43 -152h120v-130h-158l-51 -180h120v-130h-158l-43 -153h-150l43 153h-149l-44 -153h-150zM527 283l51 180h-149l-52 -180h150z" />
    <glyph glyph-name="dollar" unicode="$" horiz-adv-x="647" 
d="M288 -9c-60 8.66699 -112.83 31.165 -158.497 67.498s-77.834 82.5 -96.501 138.5l127 57c14 -30.667 32 -56.5 54 -77.5s46.667 -35.833 74 -44.5v176l-49 16c-59.333 19.333 -104 46.833 -134 82.5s-45 78.5 -45 128.5c0 40 9.5 76.167 28.5 108.5s45.667 58.333 80 78
s74.166 31.167 119.499 34.5v89h90v-93c53.333 -9.33301 99.666 -30 138.999 -62s68 -72.667 86 -122l-126 -57c-10 24.667 -23.5 45.5 -40.5 62.5s-36.5 29.5 -58.5 37.5v-177l46 -15c119.333 -38.667 179 -108 179 -208c0 -59.333 -20.5 -109.166 -61.5 -149.499
s-95.5 -64.166 -163.5 -71.499v-90h-90v91zM281.003 464.998l6.99902 -2v156c-23.333 -4.66699 -41.666 -13.834 -54.999 -27.501s-20 -30.5 -20 -50.5c0 -35.333 22.667 -60.666 68 -75.999zM378.002 125.998c22.667 4 40.5 12.666 53.5 25.999s19.5 30 19.5 50
c0 34.667 -22 59.334 -66 74.001l-7 2v-152z" />
    <glyph glyph-name="percent" unicode="%" horiz-adv-x="1070" 
d="M760 745h154l-602 -745h-154zM106 660c17.333 30 41 53.667 71 71s63.333 26 100 26c36 0 69 -8.66699 99 -26s53.667 -41 71 -71s26 -62.667 26 -98s-8.66699 -68 -26 -98s-41 -53.667 -71 -71s-63 -26 -99 -26c-36.667 0 -70 8.66699 -100 26s-53.667 41 -71 71
s-26 62.667 -26 98s8.66699 68 26 98zM217 502.5c14.667 -17 34.667 -25.5 60 -25.5s45.166 8.33301 59.499 25s21.5 36.667 21.5 60s-7.16699 43.333 -21.5 60s-34.166 25 -59.499 25s-45.333 -8.5 -60 -25.5s-22 -36.833 -22 -59.5s7.33301 -42.5 22 -59.5zM623 281
c17.333 30 41 53.667 71 71s63.333 26 100 26c36 0 69 -8.66699 99 -26s53.667 -41 71 -71s26 -62.667 26 -98s-8.66699 -68 -26 -98s-41 -53.667 -71 -71s-63 -26 -99 -26c-36.667 0 -70 8.66699 -100 26s-53.667 41 -71 71s-26 62.667 -26 98s8.66699 68 26 98zM734 123.5
c14.667 -17 34.667 -25.5 60 -25.5s45.166 8.33301 59.499 25s21.5 36.667 21.5 60s-7.16699 43.333 -21.5 60s-34.166 25 -59.499 25s-45.333 -8.5 -60 -25.5s-22 -36.833 -22 -59.5s7.33301 -42.5 22 -59.5z" />
    <glyph glyph-name="ampersand" unicode="&#x26;" horiz-adv-x="813" 
d="M197 13.5c-36 17 -64.001 41.168 -84.001 72.501s-30 67.666 -30 108.999c0 50 13 91.667 39 125s56.667 60.333 92 81c-19.333 24 -34.5 48.667 -45.5 74s-16.5 53.333 -16.5 84c0 39.333 9.5 74 28.5 104s44.333 53.167 76 69.5s65.834 24.5 102.501 24.5
c38 0 72.5 -8.33301 103.5 -25s55.5 -39.5 73.5 -68.5s27 -61.5 27 -97.5c0 -46 -13.5 -84 -40.5 -114s-61.5 -57.333 -103.5 -82l87 -99l64 92h152l-125 -196l147 -167h-174l-54 61c-52 -48.667 -116.667 -73 -194 -73c-47.333 0 -89 8.5 -125 25.5zM261.999 135.501
c16 -15 38 -22.5 66 -22.5c38.667 0 71.667 15.667 99 47l-126 141c-42 -30 -63 -64.667 -63 -104c0 -26 8 -46.5 24 -61.5zM335.999 465.001c30.667 16 54 31.6689 70 47.002s24 33.666 24 54.999c0 20 -6.5 37 -19.5 51s-29.5 21 -49.5 21s-36.667 -6.83301 -50 -20.5
s-20 -31.167 -20 -52.5c0 -28.667 15 -62.334 45 -101.001z" />
    <glyph glyph-name="quotesingle" unicode="'" horiz-adv-x="333" 
d="M101 745h130l-17 -305h-95z" />
    <glyph glyph-name="parenleft" unicode="(" horiz-adv-x="407" 
d="M69 283c0 175.333 57 329.332 171 461.999h125c-94 -145.333 -141 -299.333 -141 -462c0 -163.333 47 -317.666 141 -462.999h-125c-114 134 -171 288.333 -171 463z" />
    <glyph glyph-name="parenright" unicode=")" horiz-adv-x="407" 
d="M183 283c0 162.667 -47 316.668 -141 462.001h125c114 -132.667 171 -286.667 171 -462c0 -174.667 -57 -329 -171 -463h-125c94 145.333 141 299.666 141 462.999z" />
    <glyph glyph-name="asterisk" unicode="*" horiz-adv-x="560" 
d="M123 422l69 94l-111 38l34 103l110 -37v125h110v-125l110 37l34 -103l-111 -38l69 -94l-88 -64l-69 94l-69 -94z" />
    <glyph glyph-name="plus" unicode="+" horiz-adv-x="678" 
d="M277 188h-188v125h188v187h125v-187h187v-125h-187v-188h-125v188z" />
    <glyph glyph-name="comma" unicode="," horiz-adv-x="386" 
d="M197 0c-19.333 0 -35.332 7.16895 -47.999 21.502s-19 32.166 -19 53.499s7.16699 39.166 21.5 53.499s32.166 21.5 53.499 21.5c50 0 75 -29 75 -87c0 -63.333 -14.333 -114.333 -43 -153s-71 -63.667 -127 -75v75c49.333 11.333 78.333 41.333 87 90z" />
    <glyph glyph-name="hyphen" unicode="-" horiz-adv-x="634" 
d="M92 338h450v-130h-450v130z" />
    <glyph glyph-name="period" unicode="." horiz-adv-x="408" 
d="M146 24c-16 16 -24 35.667 -24 59s8 42.833 24 58.5s35.667 23.5 59 23.5s42.833 -7.83301 58.5 -23.5s23.5 -35.167 23.5 -58.5c0 -24 -7.66699 -43.833 -23 -59.5s-35 -23.5 -59 -23.5c-23.333 0 -43 8 -59 24z" />
    <glyph glyph-name="slash" unicode="/" horiz-adv-x="532" 
d="M350 785h162l-330 -825h-162z" />
    <glyph glyph-name="zero" unicode="0" horiz-adv-x="700" 
d="M194 36c-45.333 32 -80.668 77.167 -106.001 135.5s-38 125.5 -38 201.5s12.5 143 37.5 201s60.167 103 105.5 135s97.333 48 156 48c60 0 112.667 -16 158 -48s80.5 -77 105.5 -135s37.5 -125 37.5 -201s-12.5 -143.167 -37.5 -201.5s-60.167 -103.5 -105.5 -135.5
s-97.666 -48 -156.999 -48c-58.667 0 -110.667 16 -156 48zM242.998 193c25.333 -43.333 61 -65 107 -65s81.667 21.5 107 64.5s38 103.167 38 180.5s-12.667 137.333 -38 180s-61.333 64 -108 64c-46 0 -81.5 -21.333 -106.5 -64s-37.5 -102.667 -37.5 -180
c0 -76.667 12.667 -136.667 38 -180z" />
    <glyph glyph-name="one" unicode="1" horiz-adv-x="413" 
d="M170 614h-145v131h300v-745h-155v614z" />
    <glyph glyph-name="two" unicode="2" horiz-adv-x="596" 
d="M42 120l199.997 206c40.667 42 70.834 74.5 90.501 97.5s33.334 42.333 41.001 58s11.5 31.5 11.5 47.5c0 26.667 -8.83301 48 -26.5 64s-39.834 24 -66.501 24c-28 0 -52.5 -8 -73.5 -24s-36.5 -39.667 -46.5 -71l-135 44c8 38 24.5 71.333 49.5 100s55.5 51 91.5 67
s74 24 114 24c48.667 0 91.834 -8.66699 129.501 -26s66.834 -41.833 87.501 -73.5s31 -68.167 31 -109.5c0 -40 -10.333 -78.667 -31 -116s-53.667 -79.333 -99 -126l-171 -176h308v-130h-505v120z" />
    <glyph glyph-name="three" unicode="3" horiz-adv-x="612" 
d="M173.5 12c-37.667 16 -69.501 38.333 -95.501 67s-43 62 -51 100l137 46c10.667 -32 27.167 -56.167 49.5 -72.5s48.5 -24.5 78.5 -24.5c36.667 0 65.834 10.167 87.501 30.5s32.5 47.833 32.5 82.5c0 34 -10.667 60.833 -32 80.5s-50.666 29.5 -87.999 29.5
c-30.667 0 -58.667 -6.33301 -84 -19l-36 75l191 208h-291v130h465v-120l-144 -164c53.333 -9.33301 95.666 -33.166 126.999 -71.499s47 -85.833 47 -142.5c0 -48.667 -11.833 -92.834 -35.5 -132.501s-56.5 -70.667 -98.5 -93s-89 -33.5 -141 -33.5
c-41.333 0 -80.833 8 -118.5 24z" />
    <glyph glyph-name="four" unicode="4" horiz-adv-x="662" 
d="M362 160h-330v130l320 455h165v-455h115v-130h-115v-160h-155v160zM362 290v265l-179 -265h179z" />
    <glyph glyph-name="five" unicode="5" horiz-adv-x="614" 
d="M180 10.5c-36.667 15 -67.8369 36.668 -93.5039 65.001s-42.5 61.166 -50.5 98.499l137 46c9.33301 -30.667 24.833 -53.667 46.5 -69s46.834 -23 75.501 -23c34.667 0 62.667 10.833 84 32.5s32 49.834 32 84.501s-10.667 62.667 -32 84s-49.333 32 -84 32
c-24.667 0 -46.334 -5.33301 -65.001 -16s-32 -26.334 -40 -47.001l-127 30l60 417h416v-130h-304l-20 -148c28 16 64.333 24 109 24c48.667 0 91.334 -10.333 128.001 -31s64.834 -49.667 84.501 -87s29.5 -80 29.5 -128c0 -48.667 -11.667 -92.5 -35 -131.5
s-55.666 -69.667 -96.999 -92s-87.666 -33.5 -138.999 -33.5c-40 0 -78.333 7.5 -115 22.5z" />
    <glyph glyph-name="six" unicode="6" horiz-adv-x="604" 
d="M165.5 20c-40.333 21.333 -71.833 50.832 -94.5 88.499s-34 79.834 -34 126.501c0 39.333 6.5 77 19.5 113s39.167 79.333 78.5 130l207 267h185l-209 -267h12c45.333 0 86 -10.333 122 -31s64.167 -49 84.5 -85s30.5 -76 30.5 -120
c0 -48.667 -11.333 -92.167 -34 -130.5s-54.167 -68.5 -94.5 -90.5s-85.833 -33 -136.5 -33s-96.167 10.667 -136.5 32zM223.5 159.499c21 -21 47.167 -31.5 78.5 -31.5s57.5 10.5 78.5 31.5s31.5 47.833 31.5 80.5s-10.5 59.334 -31.5 80.001s-47.167 31 -78.5 31
s-57.5 -10.333 -78.5 -31s-31.5 -47.334 -31.5 -80.001s10.5 -59.5 31.5 -80.5z" />
    <glyph glyph-name="seven" unicode="7" horiz-adv-x="564" 
d="M371 616h-344v130h507v-130l-292 -616h-172z" />
    <glyph glyph-name="eight" unicode="8" horiz-adv-x="633" 
d="M173.5 18.5c-41 20.333 -72.332 47.834 -93.999 82.501s-32.5 72.667 -32.5 114c0 78.667 34.667 137.334 104 176.001c-24.667 16 -43.834 38.167 -57.501 66.5s-20.5 59.166 -20.5 92.499c0 39.333 10.333 74.833 31 106.5s49.5 56.334 86.5 74.001
s78.833 26.5 125.5 26.5s88.334 -8.83301 125.001 -26.5s65.5 -42.334 86.5 -74.001s31.5 -67.167 31.5 -106.5c0 -32.667 -6.83301 -63.167 -20.5 -91.5s-32.834 -50.833 -57.501 -67.5c70.667 -39.333 106 -98.333 106 -177c0 -40.667 -11 -78.334 -33 -113.001
s-53.667 -62.167 -95 -82.5s-89 -30.5 -143 -30.5s-101.5 10.167 -142.5 30.5zM233.501 146.001c21 -18.667 48.5 -28 82.5 -28c34.667 0 62.667 9.33301 84 28s32 43.334 32 74.001s-10.667 55.167 -32 73.5s-49.333 27.5 -84 27.5c-34 0 -61.5 -9.16699 -82.5 -27.5
s-31.5 -42.833 -31.5 -73.5s10.5 -55.334 31.5 -74.001zM252.501 476.501c16.333 -17 37.5 -25.5 63.5 -25.5s47.167 8.5 63.5 25.5s24.5 37.833 24.5 62.5c0 25.333 -8.16699 46.333 -24.5 63s-37.5 25 -63.5 25s-47.167 -8.33301 -63.5 -25s-24.5 -37.667 -24.5 -63
c0 -24.667 8.16699 -45.5 24.5 -62.5z" />
    <glyph glyph-name="nine" unicode="9" horiz-adv-x="604" 
d="M286 267l-12 0.000976562c-45.333 0 -86 10.333 -122 31s-64.167 49 -84.5 85s-30.5 76 -30.5 120c0 48.667 11.333 92.167 34 130.5s54.167 68.5 94.5 90.5s85.833 33 136.5 33s96.167 -10.667 136.5 -32s71.833 -50.833 94.5 -88.5s34 -79.834 34 -126.501
c0 -39.333 -6.5 -77 -19.5 -113s-39.167 -79.333 -78.5 -130l-207 -267h-185zM223.5 425.001c21 -20.667 47.167 -31 78.5 -31s57.5 10.333 78.5 31s31.5 47.334 31.5 80.001s-10.5 59.5 -31.5 80.5s-47.167 31.5 -78.5 31.5s-57.5 -10.5 -78.5 -31.5
s-31.5 -47.833 -31.5 -80.5s10.5 -59.334 31.5 -80.001z" />
    <glyph glyph-name="colon" unicode=":" horiz-adv-x="408" 
d="M146 24c-16 16 -24 35.667 -24 59s8 42.833 24 58.5s35.667 23.5 59 23.5s42.833 -7.83301 58.5 -23.5s23.5 -35.167 23.5 -58.5c0 -24 -7.66699 -43.833 -23 -59.5s-35 -23.5 -59 -23.5c-23.333 0 -43 8 -59 24zM146 522.5c16 15.667 35.667 23.5 59 23.5
s42.833 -7.83301 58.5 -23.5s23.5 -35.167 23.5 -58.5c0 -24 -7.66699 -43.833 -23 -59.5s-35 -23.5 -59 -23.5c-23.333 0 -43 8 -59 24s-24 35.667 -24 59s8 42.833 24 58.5z" />
    <glyph glyph-name="semicolon" unicode=";" horiz-adv-x="428" 
d="M167 405c-16 16 -24 35.667 -24 59s8 42.833 24 58.5s35.667 23.5 59 23.5s42.833 -7.83301 58.5 -23.5s23.5 -35.167 23.5 -58.5c0 -24 -7.66699 -43.833 -23 -59.5s-35 -23.5 -59 -23.5c-23.333 0 -43 8 -59 24zM121 -90c49.333 11.333 78.334 41.335 87.001 90.002
c-19.333 0 -35.333 7.16699 -48 21.5s-19 32.166 -19 53.499s7.16699 39.166 21.5 53.499s32.166 21.5 53.499 21.5c50 0 75 -29 75 -87c0 -63.333 -14.333 -114.333 -43 -153s-71 -63.667 -127 -75v75z" />
    <glyph glyph-name="less" unicode="&#x3c;" horiz-adv-x="703" 
d="M114 199v148l475 196v-151l-287 -119l287 -118v-151z" />
    <glyph glyph-name="equal" unicode="=" horiz-adv-x="726" 
d="M138 416h450v-125h-450v125zM138 171h450v-125h-450v125z" />
    <glyph glyph-name="greater" unicode="&#x3e;" horiz-adv-x="680" 
d="M114 155l287 118l-287 119v151l475 -196v-148l-475 -195v151z" />
    <glyph glyph-name="question" unicode="?" horiz-adv-x="611" 
d="M248 354c15.333 28 36.332 55.665 62.999 82.998l21 21c18.667 17.333 32.334 32.166 41.001 44.499s13 26.166 13 41.499c0 21.333 -7.66699 38.833 -23 52.5s-37 20.5 -65 20.5c-25.333 0 -47 -7.5 -65 -22.5s-29 -35.167 -33 -60.5l-139 35
c5.33301 36.667 19 69.334 41 98.001s50.167 50.834 84.5 66.501s72.833 23.5 115.5 23.5c50 0 93 -9.83301 129 -29.5s63.333 -45.5 82 -77.5s28 -66 28 -102c0 -23.333 -4.5 -44.833 -13.5 -64.5s-19.667 -36.667 -32 -51s-29.5 -32.166 -51.5 -53.499
c-26 -24.667 -45.667 -47.167 -59 -67.5s-20 -43.166 -20 -68.499v-13h-140v23c0 39.333 7.66699 73 23 101zM237.999 141.498c16 15.667 35.667 23.5 59 23.5s42.833 -7.83301 58.5 -23.5s23.5 -35.167 23.5 -58.5c0 -24 -7.66699 -43.833 -23 -59.5s-35 -23.5 -59 -23.5
c-23.333 0 -43 8 -59 24s-24 35.667 -24 59s8 42.833 24 58.5z" />
    <glyph glyph-name="at" unicode="@" horiz-adv-x="926" 
d="M258 -53c-66.667 36 -119.001 86.8311 -157.001 152.498s-57 140.834 -57 225.501s18.833 159.834 56.5 225.501s89.834 116.5 156.501 152.5s142 54 226 54c83.333 0 156.833 -18 220.5 -54s113 -86.667 148 -152s52.5 -140.666 52.5 -225.999
c0 -42.667 -7.66699 -79.834 -23 -111.501s-36.666 -56 -63.999 -73s-58.666 -25.5 -93.999 -25.5c-26.667 0 -52.167 5.33301 -76.5 16s-43.166 26.667 -56.499 48c-10 -19.333 -28.5 -34.833 -55.5 -46.5s-55.833 -17.5 -86.5 -17.5c-38.667 0 -74 9.16699 -106 27.5
s-57.5 43.833 -76.5 76.5s-28.5 69 -28.5 109s9.33301 77 28 111s44.5 61 77.5 81s69.833 30 110.5 30c26.667 0 51.334 -4.16699 74.001 -12.5s39.667 -19.5 51 -33.5v36h100v-246c0 -23.333 4.33301 -41.5 13 -54.5s20.667 -19.5 36 -19.5
c19.333 0 33.666 8.5 42.999 25.5s14 45.5 14 85.5c0 61.333 -11.333 115.833 -34 163.5s-56.5 85 -101.5 112s-99.5 40.5 -163.5 40.5c-63.333 0 -119.333 -13.667 -168 -41s-86.334 -65.333 -113.001 -114s-40 -104 -40 -166c0 -63.333 14 -119.5 42 -168.5
s66.167 -87 114.5 -114s102.833 -40.5 163.5 -40.5c63.333 0 120.666 16.333 171.999 49l51 -97c-64.667 -41.333 -138.667 -62 -222 -62c-84.667 0 -160.334 18 -227.001 54zM382.499 252.498c21.667 -21.667 48.167 -32.5 79.5 -32.5s57.333 10.667 78 32s31 48 31 80
s-10.5 58.667 -31.5 80s-47.833 32 -80.5 32c-30.667 0 -56.5 -10.5 -77.5 -31.5s-31.5 -47.5 -31.5 -79.5s10.833 -58.833 32.5 -80.5z" />
    <glyph glyph-name="A" unicode="A" horiz-adv-x="732" 
d="M263 745h206l252 -745h-169l-50 152h-273l-50 -152h-168zM459 287l-93 287l-94 -287h187z" />
    <glyph glyph-name="B" unicode="B" horiz-adv-x="690" 
d="M66 745l315 0.000976562c76.667 0 136.667 -19.167 180 -57.5s65 -91.833 65 -160.5c0 -48.667 -17.667 -90.334 -53 -125.001c30.667 -21.333 52.334 -46 65.001 -74s19 -60 19 -96c0 -73.333 -24.333 -130.333 -73 -171s-116.334 -61 -203.001 -61h-315v745z
M399 135.001c30.667 0 55.5 8.83301 74.5 26.5s28.5 41.167 28.5 70.5s-9.33301 53 -28 71s-43.667 27 -75 27h-178v-195h178zM392 465.001c24 0 43.167 6.83105 57.5 20.498s21.5 31.834 21.5 54.501s-7.16699 40.834 -21.5 54.501s-33.5 20.5 -57.5 20.5h-171v-150h171z
" />
    <glyph glyph-name="C" unicode="C" horiz-adv-x="772" 
d="M228 38c-57.333 33.333 -102.333 79.3311 -135 137.998s-49 124.334 -49 197.001s16.333 138.334 49 197.001s77.5 104.5 134.5 137.5s121.167 49.5 192.5 49.5c52 0 99.833 -8.83301 143.5 -26.5s80.5 -41.5 110.5 -71.5s51.667 -63.667 65 -101l-137 -66
c-13.333 37.333 -36 67.5 -68 90.5s-70 34.5 -114 34.5c-43.333 0 -81.833 -10.167 -115.5 -30.5s-59.667 -49 -78 -86s-27.5 -79.5 -27.5 -127.5s9.16699 -90.5 27.5 -127.5s44.333 -65.833 78 -86.5s72.167 -31 115.5 -31c44 0 82 11.5 114 34.5s54.667 53.167 68 90.5
l137 -66c-13.333 -37.333 -35 -71 -65 -101s-66.833 -53.833 -110.5 -71.5s-91.5 -26.5 -143.5 -26.5c-70.667 0 -134.667 16.667 -192 50z" />
    <glyph glyph-name="D" unicode="D" horiz-adv-x="739" 
d="M66 745h243c79.333 0 149 -15.833 209 -47.5s106.333 -75.667 139 -132s49 -120.5 49 -192.5s-16.333 -136.167 -49 -192.5s-79.167 -100.5 -139.5 -132.5s-129.833 -48 -208.5 -48h-243v745zM313 135c48 0 90 9.66699 126 29s63.667 47 83 83s29 78 29 126
s-9.66699 89.833 -29 125.5s-47 63.167 -83 82.5s-78 29 -126 29h-92v-475h92z" />
    <glyph glyph-name="E" unicode="E" horiz-adv-x="589" 
d="M66 745h501v-135h-346v-169h326v-135h-326v-171h346v-135h-501v745z" />
    <glyph glyph-name="F" unicode="F" horiz-adv-x="587" 
d="M66 745h510v-135h-355v-189h305v-135h-305v-286h-155v745z" />
    <glyph glyph-name="G" unicode="G" horiz-adv-x="804" 
d="M231 38c-58 33.333 -103.668 79.3311 -137.001 137.998s-50 124.334 -50 197.001s16.333 138.334 49 197.001s77.5 104.5 134.5 137.5s121.167 49.5 192.5 49.5c52 0 99.833 -8.83301 143.5 -26.5s80.5 -41.5 110.5 -71.5s51.667 -63.667 65 -101l-137 -66
c-13.333 37.333 -36 67.5 -68 90.5s-70 34.5 -114 34.5c-43.333 0 -81.833 -10.167 -115.5 -30.5s-59.667 -49 -78 -86s-27.5 -79.5 -27.5 -127.5s9.5 -90.5 28.5 -127.5s45.667 -65.833 80 -86.5s73.166 -31 116.499 -31c34.667 0 66.834 6.66699 96.501 20
s53.5 32.5 71.5 57.5s27 54.167 27 87.5v2h-199v130h354v-79c0 -77.333 -16.667 -143 -50 -197s-76.666 -94.333 -129.999 -121s-110 -40 -170 -40c-70.667 0 -135 16.667 -193 50z" />
    <glyph glyph-name="H" unicode="H" horiz-adv-x="732" 
d="M66 745h155v-322h290v322h155v-745h-155v288h-290v-288h-155v745z" />
    <glyph glyph-name="I" unicode="I" horiz-adv-x="287" 
d="M66 745h155v-745h-155v745z" />
    <glyph glyph-name="J" unicode="J" horiz-adv-x="396" 
d="M33 140h44.999c30 0 54.167 8.5 72.5 25.5s27.5 39.5 27.5 67.5v512h155v-505c0 -48 -10.5 -90 -31.5 -126s-50.667 -64 -89 -84s-83.166 -30 -134.499 -30h-45v140z" />
    <glyph glyph-name="K" unicode="K" horiz-adv-x="687" 
d="M66 745h155v-306l255 306h194l-252 -304l258 -441h-181l-182 315l-92 -111v-204h-155v745z" />
    <glyph glyph-name="L" unicode="L" horiz-adv-x="547" 
d="M66 745h155v-610h315v-135h-470v745z" />
    <glyph glyph-name="M" unicode="M" horiz-adv-x="912" 
d="M66 745h150l243 -323l237 323h150v-745h-155v480l-225 -290h-20l-225 301v-491h-155v745z" />
    <glyph glyph-name="N" unicode="N" horiz-adv-x="742" 
d="M66 745h119l336 -443v443h155v-745h-120l-335 453v-453h-155v745z" />
    <glyph glyph-name="O" unicode="O" horiz-adv-x="878" 
d="M237.5 38.5c-60.333 33.667 -107.666 79.834 -141.999 138.501s-51.5 124 -51.5 196s17.167 137.333 51.5 196s81.666 104.667 141.999 138s127.5 50 201.5 50s141.167 -16.667 201.5 -50s107.666 -79.333 141.999 -138s51.5 -124 51.5 -196s-17.167 -137.333 -51.5 -196
s-81.666 -104.834 -141.999 -138.501s-127.5 -50.5 -201.5 -50.5s-141.167 16.833 -201.5 50.5zM230.5 246.5c21 -37 49.8291 -66 86.4961 -87s77.334 -31.5 122.001 -31.5s85.334 10.5 122.001 31.5s65.5 50 86.5 87s31.5 79.167 31.5 126.5s-10.5 89.5 -31.5 126.5
s-49.667 65.833 -86 86.5s-77.166 31 -122.499 31s-86.166 -10.333 -122.499 -31s-65 -49.5 -86 -86.5s-31.5 -79.167 -31.5 -126.5s10.5 -89.5 31.5 -126.5z" />
    <glyph glyph-name="P" unicode="P" horiz-adv-x="649" 
d="M66 745h286.002c79.333 0 143.166 -20.667 191.499 -62s72.5 -100 72.5 -176c0 -50 -11.333 -92.833 -34 -128.5s-53.834 -62.667 -93.501 -81s-85.167 -27.5 -136.5 -27.5h-131v-270h-155v745zM353.002 405c32.667 0 58.834 9.33203 78.501 27.999
s29.5 43.334 29.5 74.001s-9.83301 55.5 -29.5 74.5s-45.834 28.5 -78.501 28.5h-132v-205h132z" />
    <glyph glyph-name="Q" unicode="Q" horiz-adv-x="878" 
d="M250 36.5c-64 33 -114.331 78.833 -150.998 137.5s-55 125 -55 199c0 72 17.167 137.333 51.5 196s81.666 104.667 141.999 138s127.5 50 201.5 50s141.167 -16.667 201.5 -50s107.666 -79.333 141.999 -138s51.5 -124 51.5 -196c0 -48 -7.33301 -93.833 -22 -137.5
s-36 -82.5 -64 -116.5l83 -92l-110 -94l-85 94c-53.333 -26.667 -111 -40 -173 -40c-78 0 -149 16.5 -213 49.5zM230.502 246.5c21 -37 49.8301 -66.001 86.4971 -87.001s77.334 -31.5 122.001 -31.5c30.667 0 61 5.33301 91 16l-124 137l111 93l125 -138
c24.667 40.667 37 86.334 37 137.001c0 47.333 -10.5 89.5 -31.5 126.5s-49.667 65.833 -86 86.5s-77.166 31 -122.499 31s-86.166 -10.333 -122.499 -31s-65 -49.5 -86 -86.5s-31.5 -79.167 -31.5 -126.5s10.5 -89.5 31.5 -126.5z" />
    <glyph glyph-name="R" unicode="R" horiz-adv-x="667" 
d="M66 745l285.002 0.000976562c79.333 0 143.166 -20.667 191.499 -62s72.5 -100 72.5 -176c0 -50 -11.333 -92.833 -34 -128.5s-54.334 -62.834 -95.001 -81.501l170 -297h-174l-151 270h-110v-270h-155v745zM352.002 405.001c32.667 0 58.834 9.33203 78.501 27.999
s29.5 43.334 29.5 74.001s-9.83301 55.5 -29.5 74.5s-45.834 28.5 -78.501 28.5h-131v-205h131z" />
    <glyph glyph-name="S" unicode="S" horiz-adv-x="647" 
d="M177 23c-44 23.333 -77.666 52.502 -100.999 87.502s-37.666 70.5 -42.999 106.5l147 37c17.333 -80.667 70.666 -121 159.999 -121c31.333 0 56.166 7 74.499 21s27.5 32.333 27.5 55c0 19.333 -6.83301 35.666 -20.5 48.999s-32.5 22.333 -56.5 27l-104 19
c-62.667 11.333 -111.834 37 -147.501 77s-53.5 90.333 -53.5 151c0 40.667 12.167 78.334 36.5 113.001s56.333 62 96 82s81.5 30 125.5 30c59.333 0 108.833 -9.83301 148.5 -29.5s69.834 -44 90.501 -73s34 -58.833 40 -89.5l-146 -44c-14 34.667 -30.667 58.5 -50 71.5
s-47 19.5 -83 19.5c-18.667 0 -35.167 -3.83301 -49.5 -11.5s-25.5 -17.334 -33.5 -29.001s-12 -23.5 -12 -35.5c0 -19.333 6 -35.333 18 -48s29.667 -21.334 53 -26.001l103 -21c67.333 -14 119.333 -41 156 -81s55 -87.667 55 -143c0 -38 -10.833 -74.667 -32.5 -110
s-53 -64 -94 -86s-89.167 -33 -144.5 -33c-62.667 0 -116 11.667 -160 35z" />
    <glyph glyph-name="T" unicode="T" horiz-adv-x="552" 
d="M200 610h-189v135h530v-135h-186v-610h-155v610z" />
    <glyph glyph-name="U" unicode="U" horiz-adv-x="724" 
d="M205.5 25c-46.333 24.667 -82.666 58.667 -108.999 102s-39.5 92 -39.5 146v472h155v-462c0 -44.667 14.167 -81.667 42.5 -111s64.166 -44 107.499 -44s79.166 14.667 107.499 44s42.5 66.333 42.5 111v462h155v-472c0 -54 -13.167 -102.667 -39.5 -146
s-62.666 -77.333 -108.999 -102s-98.5 -37 -156.5 -37s-110.167 12.333 -156.5 37z" />
    <glyph glyph-name="V" unicode="V" horiz-adv-x="712" 
d="M11 745h170l175 -545l175 545h170l-255 -745h-180z" />
    <glyph glyph-name="W" unicode="W" horiz-adv-x="1032" 
d="M11 745h168l125 -531l132 531h160l132 -531l125 531h168l-195 -745h-180l-130 500l-130 -500h-180z" />
    <glyph glyph-name="X" unicode="X" horiz-adv-x="682" 
d="M255 373l-244 372h178l152 -232l152 232h178l-243 -372l243 -373h-178l-151 232l-153 -232h-178z" />
    <glyph glyph-name="Y" unicode="Y" horiz-adv-x="672" 
d="M259 325l-248 420h177l148 -261l148 261h177l-247 -419v-326h-155v325z" />
    <glyph glyph-name="Z" unicode="Z" horiz-adv-x="567" 
d="M11 125l339 485h-319v135h515v-125l-338 -485h348v-135h-545v125z" />
    <glyph glyph-name="bracketleft" unicode="[" horiz-adv-x="449" 
d="M110 745h280v-130h-130v-665h130v-130h-280v925z" />
    <glyph glyph-name="backslash" unicode="\" horiz-adv-x="532" 
d="M20 785h162l330 -825h-162z" />
    <glyph glyph-name="bracketright" unicode="]" horiz-adv-x="449" 
d="M59 -50h130v665h-130v130h280v-925h-280v130z" />
    <glyph glyph-name="asciicircum" unicode="^" horiz-adv-x="637" 
d="M247 745h144l170 -327h-164l-78 150l-78 -150h-165z" />
    <glyph glyph-name="underscore" unicode="_" horiz-adv-x="684" 
d="M92 0h500v-130h-500v130z" />
    <glyph glyph-name="grave" unicode="`" horiz-adv-x="487" 
d="M129 784h171l58 -144h-132z" />
    <glyph glyph-name="a" unicode="a" horiz-adv-x="583" 
d="M84 30c-34 28 -51.001 66.6641 -51.001 115.997c0 46.667 16.167 84.834 48.5 114.501s80.833 49.834 145.5 60.501l151 24v15c0 20.667 -8.33301 38 -25 52s-38.667 21 -66 21c-26.667 0 -50.167 -7.16699 -70.5 -21.5s-35.166 -33.833 -44.499 -58.5l-120 57
c16 45.333 45.833 81.333 89.5 108s94.5 40 152.5 40c45.333 0 85.833 -8.33301 121.5 -25s63.334 -40 83.001 -70s29.5 -64.333 29.5 -103v-360h-140v51c-21.333 -21.333 -45.333 -37.166 -72 -47.499s-57.334 -15.5 -92.001 -15.5c-59.333 0 -106 14 -140 42z
M206.499 111.997c12.333 -9.33301 28.167 -14 47.5 -14c36.667 0 66.5 11.5 89.5 34.5s34.5 51.5 34.5 85.5v17l-124 -22c-22 -4 -38.5 -11 -49.5 -21s-16.5 -23.667 -16.5 -41c0 -16.667 6.16699 -29.667 18.5 -39z" />
    <glyph glyph-name="b" unicode="b" horiz-adv-x="673" 
d="M267 4.5c-28.667 11 -52.667 26.8311 -72 47.498v-52h-140v757h150v-257c18.667 18.667 41.5 33 68.5 43s56.5 15 88.5 15c51.333 0 98.166 -12.667 140.499 -38s75.833 -59.666 100.5 -102.999s37 -91.333 37 -144s-12.167 -100.667 -36.5 -144
s-57.666 -77.666 -99.999 -102.999s-89.833 -38 -142.5 -38c-34 0 -65.333 5.5 -94 16.5zM243.5 164.498c25.667 -27.667 58.834 -41.498 99.501 -41.498c41.333 0 75.333 14 102 42s40 64 40 108c0 43.333 -13.333 79.166 -40 107.499s-60.667 42.5 -102 42.5
c-40.667 0 -73.834 -14 -99.501 -42s-38.5 -64 -38.5 -108c0 -44.667 12.833 -80.834 38.5 -108.501z" />
    <glyph glyph-name="c" unicode="c" horiz-adv-x="611" 
d="M175.5 25.5c-44.333 25 -79.1641 59.335 -104.497 103.002s-38 92.167 -38 145.5s12.667 101.666 38 144.999s60.166 77.333 104.499 102s93.5 37 147.5 37c61.333 0 115.166 -15.333 161.499 -46s77.833 -71.334 94.5 -122.001l-130 -56
c-9.33301 27.333 -25.333 49 -48 65s-48.667 24 -78 24c-39.333 0 -71.666 -14 -96.999 -42s-38 -64 -38 -108s12.667 -80 38 -108s57.666 -42 96.999 -42c30 0 56.167 8 78.5 24s38.166 37.667 47.499 65l130 -57c-16 -49.333 -47.333 -89.5 -94 -120.5
s-100.667 -46.5 -162 -46.5c-54 0 -103.167 12.5 -147.5 37.5z" />
    <glyph glyph-name="d" unicode="d" horiz-adv-x="673" 
d="M169.5 26c-42.333 25.333 -75.666 59.668 -99.999 103.001s-36.5 91.333 -36.5 144s12.333 100.667 37 144s58.167 77.666 100.5 102.999s89.166 38 140.499 38c32 0 61.5 -5 88.5 -15s49.833 -24.333 68.5 -43v257h150v-757h-140v52
c-19.333 -20.667 -43.333 -36.5 -72 -47.5s-60 -16.5 -94 -16.5c-52.667 0 -100.167 12.667 -142.5 38zM228 165.002c26.667 -28 60.667 -42.002 102 -42.002c40.667 0 73.834 13.833 99.501 41.5s38.5 63.834 38.5 108.501c0 44 -12.833 80 -38.5 108
s-58.834 42 -99.501 42c-41.333 0 -75.333 -14.167 -102 -42.5s-40 -64.166 -40 -107.499c0 -44 13.333 -80 40 -108z" />
    <glyph glyph-name="e" unicode="e" horiz-adv-x="611" 
d="M169 26c-43.333 25.333 -76.834 59.832 -100.501 103.499s-35.5 91.834 -35.5 144.501c0 53.333 12 101.666 36 144.999s57 77.333 99 102s88.667 37 140 37c56 0 104.333 -11.667 145 -35s71.667 -55.5 93 -96.5s32 -86.833 32 -137.5c0 -24.667 -2.33301 -44 -7 -58
h-382c4.66699 -34.667 18.5 -62.167 41.5 -82.5s52.833 -30.5 89.5 -30.5c26 0 48.667 5.33301 68 16s34.333 25.334 45 44.001l120 -57c-16.667 -40 -46.167 -72.167 -88.5 -96.5s-91.166 -36.5 -146.499 -36.5c-56 0 -105.667 12.667 -149 38zM418.999 340.999
c-3.33301 29.333 -15 52.833 -35 70.5s-45.333 26.5 -76 26.5c-30 0 -55.167 -8.33301 -75.5 -25s-33.833 -40.667 -40.5 -72h227z" />
    <glyph glyph-name="f" unicode="f" horiz-adv-x="410" 
d="M121 402h-92v130h92v8c0 70.667 19 126.5 57 167.5s90.667 61.5 158 61.5c20 0 37.667 -1.66699 53 -5v-128c-12.667 2 -23.667 3 -33 3c-56.667 0 -85 -33 -85 -99v-8h117v-130h-117v-402h-150v402z" />
    <glyph glyph-name="g" unicode="g" horiz-adv-x="648" 
d="M156 -174.5c-48 30.333 -80.666 71.167 -97.999 122.5l139 49c7.33301 -25.333 22.333 -45.333 45 -60s49.667 -22 81 -22c37.333 0 66.666 10.167 87.999 30.5s32 48.166 32 83.499v52c-36 -36 -84.667 -54 -146 -54c-50 0 -95.167 11.5 -135.5 34.5
s-71.833 54.833 -94.5 95.5s-34 86.334 -34 137.001c0 50 11.167 95.167 33.5 135.5s53.333 71.833 93 94.5s84.5 34 134.5 34c67.333 0 120.333 -23 159 -69v57h140v-517c0 -48 -11.5 -90.833 -34.5 -128.5s-55 -67.167 -96 -88.5s-87.5 -32 -139.5 -32
c-63.333 0 -119 15.167 -167 45.5zM224.501 199.001c24.333 -24 55.5 -36.001 93.5 -36.001c37.333 0 67.5 11.833 90.5 35.5s34.5 54.834 34.5 93.501s-11.5 70.167 -34.5 94.5s-53.167 36.5 -90.5 36.5c-38 0 -69.167 -12.167 -93.5 -36.5s-36.5 -55.833 -36.5 -94.5
c0 -38 12.167 -69 36.5 -93z" />
    <glyph glyph-name="h" unicode="h" 
d="M55 757l150 -0.000976562v-261c14.667 20.667 34.334 36.167 59.001 46.5s52.667 15.5 84 15.5c40.667 0 76.667 -8.66699 108 -26s55.666 -41.666 72.999 -72.999s26 -67.333 26 -108v-351h-150v319c0 31.333 -9.16699 56.5 -27.5 75.5s-42.5 28.5 -72.5 28.5
s-54.167 -9.5 -72.5 -28.5s-27.5 -44.167 -27.5 -75.5v-319h-150v757z" />
    <glyph glyph-name="i" unicode="i" horiz-adv-x="260" 
d="M55 546h150v-546h-150v546zM68 762.5c14.667 14.333 35.334 21.498 62.001 21.498c27.333 0 48.166 -7.16699 62.499 -21.5s21.5 -35.166 21.5 -62.499s-7.16699 -48.166 -21.5 -62.499s-35.166 -21.5 -62.499 -21.5c-26.667 0 -47.334 7.33301 -62.001 22
s-22 35.334 -22 62.001c0 27.333 7.33301 48.166 22 62.499z" />
    <glyph glyph-name="j" unicode="j" horiz-adv-x="260" 
d="M-65 -217v128c10.667 -2 22 -3 34 -3c57.333 0 86 24 86 72v566h150v-566c0 -64 -19 -113.667 -57 -149s-91 -53 -159 -53c-21.333 0 -39.333 1.66699 -54 5zM68 762.5c14.667 14.333 35.334 21.498 62.001 21.498c27.333 0 48.166 -7.16699 62.499 -21.5
s21.5 -35.166 21.5 -62.499s-7.16699 -48.166 -21.5 -62.499s-35.166 -21.5 -62.499 -21.5c-26.667 0 -47.334 7.33301 -62.001 22s-22 35.334 -22 62.001c0 27.333 7.33301 48.166 22 62.499z" />
    <glyph glyph-name="k" unicode="k" horiz-adv-x="586" 
d="M55 757h150v-408l185 197h185l-198 -220l197 -326h-170l-139 233l-60 -66v-167h-150v757z" />
    <glyph glyph-name="l" unicode="l" horiz-adv-x="260" 
d="M55 757h150v-757h-150v757z" />
    <glyph glyph-name="m" unicode="m" horiz-adv-x="929" 
d="M55 546l140.002 -0.000976562v-67c13.333 26.667 33.333 46.5 60 59.5s57.667 19.5 93 19.5c36 0 68.833 -7.5 98.5 -22.5s52.167 -35.167 67.5 -60.5c38.667 55.333 95 83 169 83c39.333 0 74.166 -8.66699 104.499 -26s54.166 -41.666 71.499 -72.999
s26 -67.333 26 -108v-351h-150v319c0 32 -8.5 57.333 -25.5 76s-40.167 28 -69.5 28s-52.5 -9.33301 -69.5 -28s-25.5 -44 -25.5 -76v-319h-150v319c0 32 -8.5 57.333 -25.5 76s-40.167 28 -69.5 28s-52.5 -9.33301 -69.5 -28s-25.5 -44 -25.5 -76v-319h-150v546z" />
    <glyph glyph-name="n" unicode="n" 
d="M55 546l140.002 -0.000976562v-66c14 26 34.167 45.5 60.5 58.5s57.166 19.5 92.499 19.5c40.667 0 76.667 -8.66699 108 -26s55.666 -41.666 72.999 -72.999s26 -67.333 26 -108v-351h-150v319c0 31.333 -9.16699 56.5 -27.5 75.5s-42.5 28.5 -72.5 28.5
s-54.167 -9.5 -72.5 -28.5s-27.5 -44.167 -27.5 -75.5v-319h-150v546z" />
    <glyph glyph-name="o" unicode="o" horiz-adv-x="651" 
d="M178.5 25c-45 24.667 -80.5 58.667 -106.5 102s-39 92 -39 146s13 102.667 39 146s61.5 77.333 106.5 102s94.167 37 147.5 37s102.333 -12.333 147 -37s80 -58.667 106 -102s39 -92 39 -146s-13 -102.667 -39 -146s-61.333 -77.333 -106 -102s-93.667 -37 -147 -37
s-102.5 12.333 -147.5 37zM226.5 165c25.667 -28 58.834 -42 99.501 -42s73.667 14 99 42s38 64 38 108s-12.833 80 -38.5 108s-58.5 42 -98.5 42c-40.667 0 -73.834 -14 -99.501 -42s-38.5 -64 -38.5 -108s12.833 -80 38.5 -108z" />
    <glyph glyph-name="p" unicode="p" horiz-adv-x="673" 
d="M55 546l139.999 -0.000976562v-57c18.667 22 42.334 39 71.001 51s60.667 18 96 18c51.333 0 98.166 -12.667 140.499 -38s75.833 -59.666 100.5 -102.999s37 -91.333 37 -144s-12.167 -100.667 -36.5 -144s-57.666 -77.666 -99.999 -102.999s-89.833 -38 -142.5 -38
c-30.667 0 -59.5 4.66699 -86.5 14s-50.167 22.666 -69.5 39.999v-242h-150v746zM243.499 164.499c25.667 -27.667 58.834 -41.498 99.501 -41.498c41.333 0 75.333 14 102 42s40 64 40 108c0 43.333 -13.333 79.166 -40 107.499s-60.667 42.5 -102 42.5
c-40.667 0 -73.834 -14 -99.501 -42s-38.5 -64 -38.5 -108c0 -44.667 12.833 -80.834 38.5 -108.501z" />
    <glyph glyph-name="q" unicode="q" horiz-adv-x="673" 
d="M468 42c-19.333 -17.333 -42.501 -30.665 -69.501 -39.998s-55.833 -14 -86.5 -14c-52.667 0 -100.167 12.667 -142.5 38s-75.666 59.666 -99.999 102.999s-36.5 91.333 -36.5 144s12.333 100.667 37 144s58.167 77.666 100.5 102.999s89.166 38 140.499 38
c35.333 0 67.333 -6 96 -18s52.334 -29 71.001 -51v57h140v-746h-150v242zM227.999 165.001c26.667 -28 60.667 -42.002 102 -42.002c40.667 0 73.834 13.833 99.501 41.5s38.5 63.834 38.5 108.501c0 44 -12.833 80 -38.5 108s-58.834 42 -99.501 42
c-41.333 0 -75.333 -14.167 -102 -42.5s-40 -64.166 -40 -107.499c0 -44 13.333 -80 40 -108z" />
    <glyph glyph-name="r" unicode="r" horiz-adv-x="386" 
d="M55 546h139.999v-82c13.333 32 32.333 54.667 57 68s55 20 91 20h32v-130h-47c-37.333 0 -67.166 -11.333 -89.499 -34s-33.5 -54 -33.5 -94v-294h-150v546z" />
    <glyph glyph-name="s" unicode="s" horiz-adv-x="515" 
d="M116.5 28.5c-43 26.333 -72.833 62.4971 -89.5 108.497l108 56c14.667 -28 33.667 -49.833 57 -65.5s49.333 -23.5 78 -23.5c22 0 39 4.33301 51 13s18 20.667 18 36c0 12 -4.66699 22.333 -14 31s-23.333 14.667 -42 18l-93 18
c-45.333 10.667 -80.833 30.834 -106.5 60.501s-38.5 64.834 -38.5 105.501c0 34 8.83301 64 26.5 90s42.667 46.167 75 60.5s69.5 21.5 111.5 21.5c50.667 0 95.334 -11.833 134.001 -35.5s67 -56.834 85 -99.501l-109 -56c-8.66699 21.333 -23.334 38.5 -44.001 51.5
s-43.667 19.5 -69 19.5c-20.667 0 -36.667 -4 -48 -12s-17 -19 -17 -33c0 -11.333 4.83301 -21.166 14.5 -29.499s25.167 -15.166 46.5 -20.499l87 -18c46.667 -12.667 82.667 -33.167 108 -61.5s38 -62.5 38 -102.5c0 -34 -9 -64 -27 -90s-43.333 -46.167 -76 -60.5
s-70.667 -21.5 -114 -21.5c-57.333 0 -107.5 13.167 -150.5 39.5z" />
    <glyph glyph-name="t" unicode="t" horiz-adv-x="421" 
d="M164.5 47.5c-36.333 35.667 -54.499 85.5 -54.499 149.5v219h-92v130h5c28 0 49.5 7 64.5 21s22.5 35 22.5 63v40h150v-124h128v-130h-128v-209c0 -28 7.66699 -48.833 23 -62.5s38.666 -20.5 69.999 -20.5c9.33301 0 21 1 35 3v-128c-22 -3.33301 -45.333 -5 -70 -5
c-66 0 -117.167 17.833 -153.5 53.5z" />
    <glyph glyph-name="u" unicode="u" 
d="M98.5 49.5c-36.333 41 -54.502 96.167 -54.502 165.5v331h150v-319c0 -31.333 9.16699 -56.5 27.5 -75.5s42.5 -28.5 72.5 -28.5s54.167 9.5 72.5 28.5s27.5 44.167 27.5 75.5v319h150v-546h-140v66c-14 -26 -34.167 -45.5 -60.5 -58.5s-57.166 -19.5 -92.499 -19.5
c-65.333 0 -116.166 20.5 -152.499 61.5z" />
    <glyph glyph-name="v" unicode="v" horiz-adv-x="582" 
d="M11 546h162l118 -327l118 327h162l-215 -546h-130z" />
    <glyph glyph-name="w" unicode="w" horiz-adv-x="912" 
d="M11 546h155l106 -317l119 317h130l118 -317l106 317h156l-189 -546h-130l-126 350l-127 -350h-130z" />
    <glyph glyph-name="x" unicode="x" horiz-adv-x="582" 
d="M203 274l-192 272h174l106 -156l106 156h174l-192 -272l190 -274h-173l-105 158l-105 -158h-174z" />
    <glyph glyph-name="y" unicode="y" horiz-adv-x="602" 
d="M222 10l-211 536h161l129 -351l129 351h161l-292 -746h-160z" />
    <glyph glyph-name="z" unicode="z" horiz-adv-x="492" 
d="M11 120l269 296h-256v130h456v-120l-261 -296h262v-130h-470v120z" />
    <glyph glyph-name="braceleft" unicode="{" horiz-adv-x="425" 
d="M177 -136c-32.667 29.333 -49 70.3311 -49 122.998v170c0 16.667 -4.16699 29.834 -12.5 39.501s-20.166 14.5 -35.499 14.5h-32v130h32c15.333 0 27.166 4.83301 35.499 14.5s12.5 22.834 12.5 39.501v183c0 52.667 16.333 93.667 49 123s79 44 139 44h50v-130h-50
c-12 0 -21.333 -3.66699 -28 -11s-10 -17.333 -10 -30v-165c0 -28.667 -5.5 -54.5 -16.5 -77.5s-26.5 -40.833 -46.5 -53.5c20 -11.333 35.5 -27.833 46.5 -49.5s16.5 -46.167 16.5 -73.5v-164c0 -12.667 3.33301 -22.667 10 -30s16 -11 28 -11h50v-130h-50
c-60 0 -106.333 14.667 -139 44z" />
    <glyph glyph-name="bar" unicode="|" horiz-adv-x="426" 
d="M138 845h150v-1035h-150v1035z" />
    <glyph glyph-name="braceright" unicode="}" horiz-adv-x="425" 
d="M59 -50l50 0.00195312c12 0 21.333 3.66699 28 11s10 17.333 10 30v164c0 27.333 5.5 51.833 16.5 73.5s26.5 38.167 46.5 49.5c-20 12.667 -35.5 30.5 -46.5 53.5s-16.5 48.833 -16.5 77.5v165c0 12.667 -3.33301 22.667 -10 30s-16 11 -28 11h-50v130h50
c60 0 106.333 -14.667 139 -44s49 -70.333 49 -123v-183c0 -16.667 4.16699 -29.834 12.5 -39.501s20.166 -14.5 35.499 -14.5h32v-130h-32c-15.333 0 -27.166 -4.83301 -35.499 -14.5s-12.5 -22.834 -12.5 -39.501v-170c0 -52.667 -16.333 -93.667 -49 -123
s-79 -44 -139 -44h-50v130z" />
    <glyph glyph-name="asciitilde" unicode="~" horiz-adv-x="720" 
d="M397.5 190c-16.333 6.66699 -33.832 16.334 -52.499 29.001c-13.333 8.66699 -24.333 15 -33 19s-18 6 -28 6c-30.667 0 -48.334 -19.667 -53.001 -59h-120c3.33301 59.333 18.333 104.5 45 135.5s63.667 46.5 111 46.5c22.667 0 42 -3.33301 58 -10
s33.333 -16.334 52 -29.001c14.667 -8.66699 26 -15 34 -19s17 -6 27 -6c14 0 25.333 4.66699 34 14s14.667 24.333 18 45h119c-3.33301 -59.333 -18 -104.5 -44 -135.5s-62.333 -46.5 -109 -46.5c-22.667 0 -42.167 3.33301 -58.5 10z" />
    <glyph glyph-name="uni00A0" unicode="&#xa0;" horiz-adv-x="180" 
 />
    <glyph glyph-name="exclamdown" unicode="&#xa1;" horiz-adv-x="400" 
d="M135 316h130l10 -515h-150zM140.5 522.5c15.667 15.667 35.5 23.5 59.5 23.5s43.833 -7.83301 59.5 -23.5s23.5 -35.167 23.5 -58.5c0 -24 -7.83301 -43.833 -23.5 -59.5s-35.5 -23.5 -59.5 -23.5s-43.833 8 -59.5 24s-23.5 35.667 -23.5 59s7.83301 42.833 23.5 58.5z
" />
    <glyph glyph-name="cent" unicode="&#xa2;" horiz-adv-x="611" 
d="M277 91c-46.667 6.66699 -88.499 23.167 -125.499 49.5s-66 59.833 -87 100.5s-31.5 85 -31.5 133s10.333 92.167 31 132.5s49.5 73.5 86.5 99.5s79.167 42.333 126.5 49v90h90v-90c51.333 -7.33301 95.666 -25.5 132.999 -54.5s63.333 -65.833 78 -110.5l-130 -56
c-7.33301 20 -18 37.167 -32 51.5s-30.333 24.5 -49 30.5v-286c19.333 6 36 16 50 30s24.333 31.333 31 52l130 -57c-13.333 -42.667 -39 -79 -77 -109s-82.667 -48.333 -134 -55v-91h-90v91z" />
    <glyph glyph-name="sterling" unicode="&#xa3;" horiz-adv-x="670" 
d="M33 130h99.998v204h-100v90h100v81c0 50 10.333 94 31 132s50.5 67.5 89.5 88.5s85.167 31.5 138.5 31.5c40 0 77.833 -7.66699 113.5 -23s65.334 -37 89.001 -65s37.834 -59.667 42.501 -95l-135 -44c-4.66699 28 -17 49.5 -37 64.5s-44.333 22.5 -73 22.5
c-33.333 0 -59 -9.66699 -77 -29s-27 -47 -27 -83v-81h189v-90h-189v-204h318v-130h-573v130z" />
    <glyph glyph-name="currency" unicode="&#xa4;" horiz-adv-x="596" 
d="M33 89l79.998 78.998c-17.333 30.667 -26 64.334 -26 101.001c0 36 8.66699 69.333 26 100l-80 80l85 85l80 -80c30.667 17.333 64 26 100 26c36.667 0 70.334 -8.66699 101.001 -26l79 80l85 -85l-79 -80c16.667 -31.333 25 -64.666 25 -99.999
c0 -36 -8.33301 -69.667 -25 -101l79 -79l-85 -85l-79 79c-31.333 -16.667 -65 -25 -101 -25c-35.333 0 -68.666 8.33301 -99.999 25l-80 -79zM240.498 211.498c15.667 -15.667 34.834 -23.5 57.501 -23.5s41.834 7.83301 57.501 23.5s23.5 34.834 23.5 57.501
s-7.83301 41.834 -23.5 57.501s-34.834 23.5 -57.501 23.5s-41.834 -7.83301 -57.501 -23.5s-23.5 -34.834 -23.5 -57.501s7.83301 -41.834 23.5 -57.501z" />
    <glyph glyph-name="yen" unicode="&#xa5;" horiz-adv-x="672" 
d="M259 142h-145v90h145v50h-145v90h117l-220 373h177l148 -261l148 261h177l-220 -373h117v-90h-144v-50h144v-90h-144v-142h-155v142z" />
    <glyph glyph-name="brokenbar" unicode="&#xa6;" horiz-adv-x="426" 
d="M138 845h150v-417h-150v417zM138 228h150v-418h-150v418z" />
    <glyph glyph-name="section" unicode="&#xa7;" horiz-adv-x="535" 
d="M117.5 -50.5c-46.333 29.667 -78.1689 69.832 -95.502 120.499l111 52c15.333 -31.333 35.833 -55.833 61.5 -73.5s54.167 -26.5 85.5 -26.5c23.333 0 41.666 4.83301 54.999 14.5s20 23.167 20 40.5c0 25.333 -20.333 43.666 -61 54.999l-97 27
c-47.333 12.667 -83.666 33.834 -108.999 63.501s-38 64.834 -38 105.501c0 51.333 19.333 93.666 58 126.999c-38.667 31.333 -58 72.666 -58 123.999c0 34.667 9.16699 65.5 27.5 92.5s43.833 48 76.5 63s70 22.5 112 22.5c54.667 0 103.167 -13 145.5 -39
s72.5 -63 90.5 -111l-112 -52c-8.66699 24.667 -24.5 44.334 -47.5 59.001s-48.5 22 -76.5 22c-22 0 -39.167 -4.66699 -51.5 -14s-18.5 -21.666 -18.5 -36.999c0 -14 5.5 -25.333 16.5 -34s26.833 -16 47.5 -22l93 -27c48 -14 84.5 -35.333 109.5 -64
s37.5 -63.334 37.5 -104.001c0 -26 -5 -49.833 -15 -71.5s-24.333 -40.167 -43 -55.5c38.667 -31.333 58 -72.666 58 -123.999c0 -35.333 -9.16699 -66.333 -27.5 -93s-44.166 -47.5 -77.499 -62.5s-71.666 -22.5 -114.999 -22.5c-62 0 -116.167 14.833 -162.5 44.5z
M215.997 304.998c13.333 -13.333 34 -24.001 62 -32.001l60 -17c11.333 12.667 17 30 17 52c0 39.333 -26.333 66 -79 80l-62 17c-12 -12 -18 -29 -18 -51c0 -19.333 6.66699 -35.666 20 -48.999z" />
    <glyph glyph-name="dieresis" unicode="&#xa8;" horiz-adv-x="618" 
d="M152 663c-15.333 15.333 -23 33.667 -23 55s7.66699 39.5 23 54.5s33.666 22.5 54.999 22.5s39.5 -7.5 54.5 -22.5s22.5 -33.167 22.5 -54.5c0 -22 -7.5 -40.5 -22.5 -55.5s-33.167 -22.5 -54.5 -22.5s-39.666 7.66699 -54.999 23zM357 772.501
c15.333 15 33.666 22.501 54.999 22.501s39.5 -7.5 54.5 -22.5s22.5 -33.167 22.5 -54.5c0 -22 -7.5 -40.5 -22.5 -55.5s-33.167 -22.5 -54.5 -22.5s-39.666 7.66699 -54.999 23s-23 33.666 -23 54.999s7.66699 39.5 23 54.5z" />
    <glyph glyph-name="copyright" unicode="&#xa9;" horiz-adv-x="952" 
d="M283.5 40c-59 34.667 -105.834 81.499 -140.501 140.499s-52 123.5 -52 193.5c0 69.333 17.167 133.333 51.5 192s81 105.167 140 139.5s123.833 51.5 194.5 51.5c69.333 0 133.333 -17.167 192 -51.5s105.334 -80.666 140.001 -138.999s52 -122.5 52 -192.5
s-17.167 -134.5 -51.5 -193.5s-80.833 -105.833 -139.5 -140.5s-123 -52 -193 -52s-134.5 17.333 -193.5 52zM228.999 229.499c25.333 -43.667 59.832 -78.166 103.499 -103.499s91.834 -38 144.501 -38c51.333 0 98.833 12.667 142.5 38s78.167 59.833 103.5 103.5
s38 91.834 38 144.501c0 52 -12.833 99.667 -38.5 143s-60.167 77.666 -103.5 102.999s-90.666 38 -141.999 38c-52.667 0 -100.834 -12.667 -144.501 -38s-78.167 -59.833 -103.5 -103.5s-38 -91.167 -38 -142.5c0 -52.667 12.667 -100.834 38 -144.501zM298.498 480.5
c18.333 31.667 43.498 56.501 75.498 74.501s67.667 27 107 27c44 0 82.333 -10.5 115 -31.5s54.334 -48.167 65.001 -81.5l-99 -37c-6 15.333 -16.167 27.833 -30.5 37.5s-31.166 14.5 -50.499 14.5c-30 0 -54.167 -10.333 -72.5 -31s-27.5 -47.334 -27.5 -80.001
c0 -33.333 9.16699 -60.333 27.5 -81s42.5 -31 72.5 -31c18.667 0 35.334 4.83301 50.001 14.5s25 22.167 31 37.5l99 -37c-10.667 -33.333 -32.334 -60.5 -65.001 -81.5s-71 -31.5 -115 -31.5c-39.333 0 -75 9.16699 -107 27.5s-57.167 43.5 -75.5 75.5
s-27.5 67.667 -27.5 107c0 40 9.16699 75.833 27.5 107.5z" />
    <glyph glyph-name="ordfeminine" unicode="&#xaa;" horiz-adv-x="442" 
d="M69.5 383c-24.333 20 -36.498 47.334 -36.498 82.001c0 33.333 11.5 60.5 34.5 81.5s57.5 35.167 103.5 42.5l100 16v8c0 12.667 -5.16699 23.5 -15.5 32.5s-24.166 13.5 -41.499 13.5c-18.667 0 -34.667 -5.16699 -48 -15.5s-23 -23.5 -29 -39.5l-92 43
c11.333 33.333 32.666 59.666 63.999 78.999s68 29 110 29c49.333 0 89.666 -13.167 120.999 -39.5s47 -60.5 47 -102.5v-251h-108v31c-14.667 -14 -30.834 -24.167 -48.501 -30.5s-38.167 -9.5 -61.5 -9.5c-42 0 -75.167 10 -99.5 30zM164.002 445.501
c7.33301 -5.66699 16.998 -8.50098 28.998 -8.50098c22.667 0 41.334 7.33301 56.001 22s22 32.667 22 54v8l-79 -15c-13.333 -2.66699 -23.166 -6.66699 -29.499 -12s-9.5 -13.666 -9.5 -24.999c0 -10 3.66699 -17.833 11 -23.5z" />
    <glyph glyph-name="guillemotleft" unicode="&#xab;" horiz-adv-x="718" 
d="M50 269l154 200h163l-152 -200l152 -200h-163zM504 469h163l-152 -200l152 -200h-163l-154 200z" />
    <glyph glyph-name="logicalnot" unicode="&#xac;" horiz-adv-x="743" 
d="M480 188h-375v125h500v-273h-125v148z" />
    <glyph glyph-name="uni00AD" unicode="&#xad;" horiz-adv-x="634" 
d="M92 338h450v-130h-450v130z" />
    <glyph glyph-name="registered" unicode="&#xae;" horiz-adv-x="694" 
d="M219 305.5c-39.333 23 -70.5 54.333 -93.5 94s-34.5 82.5 -34.5 128.5c0 46.667 11.5 89.667 34.5 129s54.167 70.333 93.5 93s82.333 34 129 34c46 0 88.5 -11.333 127.5 -34s70 -53.667 93 -93s34.5 -82.333 34.5 -129c0 -46 -11.333 -88.833 -34 -128.5
s-53.5 -71 -92.5 -94s-81.833 -34.5 -128.5 -34.5s-89.667 11.5 -129 34.5zM189.5 436c16.333 -28 38.5 -50.001 66.5 -66.001s58.667 -24 92 -24c46 0 86 15.333 120 46h-68l-50 91h-35v-91h-80v272h123c30.667 0 55.5 -7.66699 74.5 -23s28.5 -38.333 28.5 -69
c0 -31.333 -12.333 -55.666 -37 -72.999l55 -97c16 16 28.333 35 37 57s13 45 13 69c0 33.333 -8.16699 64 -24.5 92s-38.5 50.167 -66.5 66.5s-58 24.5 -90 24.5c-33.333 0 -64 -8.33301 -92 -25s-50.167 -39 -66.5 -67s-24.5 -58.333 -24.5 -91
c0 -33.333 8.16699 -64 24.5 -92zM360 548.999c7.33301 0 13.166 2.33301 17.499 7s6.5 10.334 6.5 17.001c0 7.33301 -2.16699 13.166 -6.5 17.499s-10.166 6.5 -17.499 6.5h-45v-48h45z" />
    <glyph glyph-name="macron" unicode="&#xaf;" horiz-adv-x="546" 
d="M129 764h288v-109h-288v109z" />
    <glyph glyph-name="degree" unicode="&#xb0;" horiz-adv-x="552" 
d="M191 440c-26 15.333 -46.667 36 -62 62s-23 54.333 -23 85s7.66699 59 23 85s36 46.667 62 62s54.333 23 85 23s59 -7.66699 85 -23s46.667 -36 62 -62s23 -54.333 23 -85s-7.66699 -59 -23 -85s-36 -46.667 -62 -62s-54.333 -23 -85 -23s-59 7.66699 -85 23z
M226.5 537.5c13.667 -13.667 30.167 -20.5 49.5 -20.5s35.833 6.83301 49.5 20.5s20.5 30.167 20.5 49.5s-6.83301 35.833 -20.5 49.5s-30.167 20.5 -49.5 20.5s-35.833 -6.83301 -49.5 -20.5s-20.5 -30.167 -20.5 -49.5s6.83301 -35.833 20.5 -49.5z" />
    <glyph glyph-name="plusminus" unicode="&#xb1;" horiz-adv-x="678" 
d="M277 333h-188v125h188v137h125v-137h187v-125h-187v-138h-125v138zM89 125h500v-125h-500v125z" />
    <glyph glyph-name="uni00B2" unicode="&#xb2;" horiz-adv-x="404" 
d="M17 317l139.998 142.998c36.667 37.333 61.667 64.833 75 82.5s20 33.834 20 48.501c0 16 -5.5 29.167 -16.5 39.5s-24.833 15.5 -41.5 15.5c-17.333 0 -32.833 -5 -46.5 -15s-23.5 -24.667 -29.5 -44l-104 34c8 40 29.5 72.167 64.5 96.5s73.5 36.5 115.5 36.5
c52.667 0 95.334 -13.667 128.001 -41s49 -62.666 49 -105.999c0 -28.667 -7.16699 -55.667 -21.5 -81s-36.166 -53 -65.499 -83l-116 -119h207v-100h-358v93z" />
    <glyph glyph-name="uni00B3" unicode="&#xb3;" horiz-adv-x="421" 
d="M77 252.5c-36 25 -58.333 57.5 -67 97.5l105 35c15.333 -40.667 43 -61 83 -61c23.333 0 41.833 6.33301 55.5 19s20.5 30 20.5 52c0 20.667 -6.66699 37.334 -20 50.001s-32 19 -56 19s-45 -5 -63 -15l-28 58l132 139h-195v99h328v-92l-96 -105
c36.667 -6.66699 65.334 -23.334 86.001 -50.001s31 -59.667 31 -99c0 -34.667 -8.5 -66 -25.5 -94s-40.333 -50 -70 -66s-62.834 -24 -99.501 -24c-44.667 0 -85 12.5 -121 37.5z" />
    <glyph glyph-name="acute" unicode="&#xb4;" horiz-adv-x="487" 
d="M187 784h171l-97 -144h-132z" />
    <glyph glyph-name="uni00B5" unicode="&#xb5;" 
d="M44 546h150v-319c0 -31.333 9.16699 -56.5 27.5 -75.5s42.5 -28.5 72.5 -28.5s54.167 9.5 72.5 28.5s27.5 44.167 27.5 75.5v319h150v-546h-140v67c-13.333 -26.667 -33.333 -46.5 -60 -59.5s-57.667 -19.5 -93 -19.5c-20 0 -39 2 -57 6v-134h-150v686z" />
    <glyph glyph-name="paragraph" unicode="&#xb6;" horiz-adv-x="619" 
d="M197.5 301.5c-37 19.667 -65.667 47.332 -86 82.999s-30.5 76.834 -30.5 123.501s10.167 88 30.5 124s49 63.833 86 83.5s79.833 29.5 128.5 29.5h155v-845h-155v372c-48.667 0 -91.5 9.83301 -128.5 29.5z" />
    <glyph glyph-name="periodcentered" unicode="&#xb7;" horiz-adv-x="408" 
d="M146 222c-16 16 -24 35.667 -24 59s8 42.833 24 58.5s35.667 23.5 59 23.5s42.833 -7.83301 58.5 -23.5s23.5 -35.167 23.5 -58.5c0 -24 -7.66699 -43.833 -23 -59.5s-35 -23.5 -59 -23.5c-23.333 0 -43 8 -59 24z" />
    <glyph glyph-name="cedilla" unicode="&#xb8;" horiz-adv-x="506" 
d="M129 -218l13.001 76c16 -5.33301 36.667 -8 62 -8c16.667 0 29.5 2.66699 38.5 8s13.5 13 13.5 23c0 18 -10.667 27 -32 27c-14.667 0 -27.334 -1.33301 -38.001 -4l-24 12l16 117h99l-5 -62l13 1c27.333 0 49.5 -8 66.5 -24s25.5 -37.333 25.5 -64
c0 -32.667 -13.667 -59.5 -41 -80.5s-67 -31.5 -119 -31.5c-34.667 0 -64 3.33301 -88 10z" />
    <glyph glyph-name="uni00B9" unicode="&#xb9;" horiz-adv-x="319" 
d="M116 645h-102v100h221v-521h-119v421z" />
    <glyph glyph-name="ordmasculine" unicode="&#xba;" horiz-adv-x="481" 
d="M136.5 379c-31.667 17.333 -56.834 41.333 -75.501 72s-28 65 -28 103s9.33301 72.333 28 103s43.834 54.667 75.501 72s66.5 26 104.5 26c37.333 0 71.833 -8.66699 103.5 -26s56.834 -41.333 75.501 -72s28 -65 28 -103s-9.33301 -72.333 -28 -103
s-43.834 -54.667 -75.501 -72s-66.167 -26 -103.5 -26c-38 0 -72.833 8.66699 -104.5 26zM177 484c16 -18 37.333 -27 64 -27c26 0 47 9 63 27s24 41.333 24 70s-8 52 -24 70s-37 27 -63 27s-47.167 -9.16699 -63.5 -27.5s-24.5 -41.5 -24.5 -69.5c0 -28.667 8 -52 24 -70z
" />
    <glyph glyph-name="guillemotright" unicode="&#xbb;" horiz-adv-x="718" 
d="M503 269l-152 200h163l154 -200l-154 -200h-163zM203 269l-152 200h163l154 -200l-154 -200h-163z" />
    <glyph glyph-name="onequarter" unicode="&#xbc;" horiz-adv-x="877" 
d="M96 661h-82v84h182v-417h-100v333zM543 745h117l-446 -745h-117zM687 87h-177v85l169 245h109v-246h69v-84h-69v-87h-101v87zM687 171v124l-82 -124h82z" />
    <glyph glyph-name="onehalf" unicode="&#xbd;" horiz-adv-x="816" 
d="M96 661h-82v84h182v-417h-100v333zM543 745h117l-446 -745h-117zM499 78l111.999 113.999c28.667 29.333 48 50.833 58 64.5s15 25.834 15 36.501c0 11.333 -4.16699 20.833 -12.5 28.5s-18.5 11.5 -30.5 11.5c-12.667 0 -24.167 -3.66699 -34.5 -11
s-18.166 -18.333 -23.499 -33l-87 29c6.66699 31.333 24 56.833 52 76.5s59 29.5 93 29.5c42.667 0 77.167 -10.833 103.5 -32.5s39.5 -50.167 39.5 -85.5c0 -23.333 -5.66699 -44.833 -17 -64.5s-28.333 -41.167 -51 -64.5l-91 -93h162v-84h-288v78z" />
    <glyph glyph-name="threequarters" unicode="&#xbe;" horiz-adv-x="943" 
d="M63.5 351.5c-29 20.333 -46.834 46.501 -53.501 78.501l89 29c12 -30.667 32.667 -46 62 -46c17.333 0 31.333 4.83301 42 14.5s16 22.5 16 38.5c0 15.333 -5 27.666 -15 36.999s-24.333 14 -43 14c-19.333 0 -36.666 -4 -51.999 -12l-23 48l104 109h-152v83h265v-78
l-74 -79c28 -6.66699 49.833 -20.5 65.5 -41.5s23.5 -46.833 23.5 -77.5c0 -27.333 -6.83301 -52.333 -20.5 -75s-32.5 -40.5 -56.5 -53.5s-50.667 -19.5 -80 -19.5c-36 0 -68.5 10.167 -97.5 30.5zM608.999 745.001h117l-446 -745h-117zM752.999 87.001h-177v85l169 245
h109v-246h69v-84h-69v-87h-101v87zM752.999 171.001v124l-82 -124h82z" />
    <glyph glyph-name="questiondown" unicode="&#xbf;" horiz-adv-x="611" 
d="M180 -181.5c-36 19.667 -63.332 45.502 -81.999 77.502s-28 66 -28 102c0 23.333 4.5 44.833 13.5 64.5s19.667 36.667 32 51s29.5 32.166 51.5 53.499c26 24.667 45.667 47.167 59 67.5s20 43.166 20 68.499v13h140v-23c0 -39.333 -7.66699 -73 -23 -101
s-36.333 -55.667 -63 -83l-21 -21c-18.667 -17.333 -32.334 -32.166 -41.001 -44.499s-13 -26.166 -13 -41.499c0 -21.333 7.66699 -38.833 23 -52.5s37 -20.5 65 -20.5c25.333 0 47 7.5 65 22.5s29 35.167 33 60.5l139 -35c-5.33301 -36.667 -19 -69.334 -41 -98.001
s-50.167 -50.834 -84.5 -66.501s-72.833 -23.5 -115.5 -23.5c-50 0 -93 9.83301 -129 29.5zM240.001 546.002h150v-150h-150v150z" />
    <glyph glyph-name="Agrave" unicode="&#xc0;" horiz-adv-x="732" 
d="M263 745h206l252 -745h-169l-50 152h-273l-50 -152h-168zM459 287l-93 287l-94 -287h187zM203 983h171l58 -144h-132z" />
    <glyph glyph-name="Aacute" unicode="&#xc1;" horiz-adv-x="732" 
d="M263 745h206l252 -745h-169l-50 152h-273l-50 -152h-168zM459 287l-93 287l-94 -287h187zM358 983h171l-97 -144h-132z" />
    <glyph glyph-name="Acircumflex" unicode="&#xc2;" horiz-adv-x="732" 
d="M263 745h206l252 -745h-169l-50 152h-273l-50 -152h-168zM459 287l-93 287l-94 -287h187zM286 983h157l122 -144h-137l-62 71l-62 -71h-140z" />
    <glyph glyph-name="Atilde" unicode="&#xc3;" horiz-adv-x="732" 
d="M263 745h206l252 -745h-169l-50 152h-273l-50 -152h-168zM459 287l-93 287l-94 -287h187zM400.5 848.5c-11 5 -23.832 12.498 -38.499 22.498c-8.66699 6.66699 -15.667 11.5 -21 14.5s-11.333 4.5 -18 4.5c-10.667 0 -18.334 -4 -23.001 -12s-7.66699 -19 -9 -33h-93
c0 50.667 9.33301 87.5 28 110.5s43.334 34.5 74.001 34.5c15.333 0 28.333 -2.66699 39 -8s21.667 -12.666 33 -21.999c8.66699 -6.66699 15.667 -11.5 21 -14.5s11.333 -4.5 18 -4.5c9.33301 0 16.666 4.33301 21.999 13s8 19 8 31h93
c0.666992 -51.333 -6.83301 -88.166 -22.5 -110.499s-38.5 -33.5 -68.5 -33.5c-17.333 0 -31.5 2.5 -42.5 7.5z" />
    <glyph glyph-name="Adieresis" unicode="&#xc4;" horiz-adv-x="732" 
d="M263 745h206l252 -745h-169l-50 152h-273l-50 -152h-168zM459 287l-93 287l-94 -287h187zM209 862c-15.333 15.333 -23 33.667 -23 55s7.66699 39.5 23 54.5s33.666 22.5 54.999 22.5s39.5 -7.5 54.5 -22.5s22.5 -33.167 22.5 -54.5c0 -22 -7.5 -40.5 -22.5 -55.5
s-33.167 -22.5 -54.5 -22.5s-39.666 7.66699 -54.999 23zM414 971.501c15.333 15 33.666 22.501 54.999 22.501s39.5 -7.5 54.5 -22.5s22.5 -33.167 22.5 -54.5c0 -22 -7.5 -40.5 -22.5 -55.5s-33.167 -22.5 -54.5 -22.5s-39.666 7.66699 -54.999 23s-23 33.666 -23 54.999
s7.66699 39.5 23 54.5z" />
    <glyph glyph-name="Aring" unicode="&#xc5;" horiz-adv-x="732" 
d="M263 745h206l252 -745h-169l-50 152h-273l-50 -152h-168zM459 287l-93 287l-94 -287h187zM274 816.5c-25.333 25 -38 55.167 -38 90.5s12.667 65.5 38 90.5s56.333 37.5 93 37.5c36 0 66.5 -12.5 91.5 -37.5s37.5 -55.167 37.5 -90.5s-12.5 -65.5 -37.5 -90.5
s-55.5 -37.5 -91.5 -37.5c-36.667 0 -67.667 12.5 -93 37.5zM330.5 871.5c9.66699 -9.66699 21.834 -14.5 36.501 -14.5c14 0 25.667 4.83301 35 14.5s14 21.5 14 35.5s-4.66699 25.833 -14 35.5s-21 14.5 -35 14.5c-14.667 0 -26.834 -4.83301 -36.501 -14.5
s-14.5 -21.5 -14.5 -35.5s4.83301 -25.833 14.5 -35.5z" />
    <glyph glyph-name="AE" unicode="&#xc6;" horiz-adv-x="993" 
d="M263 745h708v-135h-346v-169h326v-135h-326v-171h346l-1 -135h-500v152h-241l-50 -152h-168zM470 287v323h-92l-106 -323h198z" />
    <glyph glyph-name="Ccedilla" unicode="&#xc7;" horiz-adv-x="772" 
d="M287 -251l13.001 75.9971c16 -5.33301 36.667 -8 62 -8c16.667 0 29.5 2.66699 38.5 8s13.5 13 13.5 23c0 18 -10.667 27 -32 27c-14.667 0 -27.334 -1.33301 -38.001 -4l-24 12l16 114c-56.667 12 -107.167 35.667 -151.5 71s-78.833 79.333 -103.5 132
s-37 110.334 -37 173.001c0 72.667 16.333 138.334 49 197.001s77.5 104.5 134.5 137.5s121.167 49.5 192.5 49.5c52 0 99.833 -8.83301 143.5 -26.5s80.5 -41.5 110.5 -71.5s51.667 -63.667 65 -101l-137 -66c-13.333 37.333 -36 67.5 -68 90.5s-70 34.5 -114 34.5
c-43.333 0 -81.833 -10.167 -115.5 -30.5s-59.667 -49 -78 -86s-27.5 -79.5 -27.5 -127.5s9.16699 -90.5 27.5 -127.5s44.333 -65.833 78 -86.5s72.167 -31 115.5 -31c44 0 82 11.5 114 34.5s54.667 53.167 68 90.5l137 -66c-20 -55.333 -57.167 -101.666 -111.5 -138.999
s-118.833 -57.333 -193.5 -60l-4 -50l13 1c27.333 0 49.5 -8 66.5 -24s25.5 -37.333 25.5 -64c0 -32.667 -13.667 -59.5 -41 -80.5s-67 -31.5 -119 -31.5c-34.667 0 -64 3.33301 -88 10z" />
    <glyph glyph-name="Egrave" unicode="&#xc8;" horiz-adv-x="589" 
d="M66 745h501v-135h-346v-169h326v-135h-326v-171h346v-135h-501v745zM154 983h171l58 -144h-132z" />
    <glyph glyph-name="Eacute" unicode="&#xc9;" horiz-adv-x="589" 
d="M66 745h501v-135h-346v-169h326v-135h-326v-171h346v-135h-501v745zM309 983h171l-97 -144h-132z" />
    <glyph glyph-name="Ecircumflex" unicode="&#xca;" horiz-adv-x="589" 
d="M66 745h501v-135h-346v-169h326v-135h-326v-171h346v-135h-501v745zM237 983h157l122 -144h-137l-62 71l-62 -71h-140z" />
    <glyph glyph-name="Edieresis" unicode="&#xcb;" horiz-adv-x="589" 
d="M66 745h501v-135h-346v-169h326v-135h-326v-171h346v-135h-501v745zM160 862c-15.333 15.333 -23 33.667 -23 55s7.66699 39.5 23 54.5s33.666 22.5 54.999 22.5s39.5 -7.5 54.5 -22.5s22.5 -33.167 22.5 -54.5c0 -22 -7.5 -40.5 -22.5 -55.5s-33.167 -22.5 -54.5 -22.5
s-39.666 7.66699 -54.999 23zM365 971.501c15.333 15 33.666 22.501 54.999 22.501s39.5 -7.5 54.5 -22.5s22.5 -33.167 22.5 -54.5c0 -22 -7.5 -40.5 -22.5 -55.5s-33.167 -22.5 -54.5 -22.5s-39.666 7.66699 -54.999 23s-23 33.666 -23 54.999s7.66699 39.5 23 54.5z" />
    <glyph glyph-name="Igrave" unicode="&#xcc;" horiz-adv-x="287" 
d="M66 745h155v-745h-155v745zM-19 983h171l58 -144h-132z" />
    <glyph glyph-name="Iacute" unicode="&#xcd;" horiz-adv-x="287" 
d="M66 745h155v-745h-155v745zM136 983h171l-97 -144h-132z" />
    <glyph glyph-name="Icircumflex" unicode="&#xce;" horiz-adv-x="287" 
d="M66 745h155v-745h-155v745zM64 983h157l122 -144h-137l-62 71l-62 -71h-140z" />
    <glyph glyph-name="Idieresis" unicode="&#xcf;" horiz-adv-x="287" 
d="M66 745h155v-745h-155v745zM-13 862c-15.333 15.333 -23 33.667 -23 55s7.66699 39.5 23 54.5s33.666 22.5 54.999 22.5s39.5 -7.5 54.5 -22.5s22.5 -33.167 22.5 -54.5c0 -22 -7.5 -40.5 -22.5 -55.5s-33.167 -22.5 -54.5 -22.5s-39.666 7.66699 -54.999 23z
M192 971.501c15.333 15 33.666 22.501 54.999 22.501s39.5 -7.5 54.5 -22.5s22.5 -33.167 22.5 -54.5c0 -22 -7.5 -40.5 -22.5 -55.5s-33.167 -22.5 -54.5 -22.5s-39.666 7.66699 -54.999 23s-23 33.666 -23 54.999s7.66699 39.5 23 54.5z" />
    <glyph glyph-name="Eth" unicode="&#xd0;" horiz-adv-x="739" 
d="M66 328h-97v90h97v327h243c79.333 0 149 -15.833 209 -47.5s106.333 -75.667 139 -132s49 -120.5 49 -192.5s-16.333 -136.167 -49 -192.5s-79.167 -100.5 -139.5 -132.5s-129.833 -48 -208.5 -48h-243v328zM313 135c48 0 90 9.66699 126 29s63.667 47 83 83
s29 78 29 126s-9.66699 89.833 -29 125.5s-47 63.167 -83 82.5s-78 29 -126 29h-92v-192h198v-90h-198v-193h92z" />
    <glyph glyph-name="Ntilde" unicode="&#xd1;" horiz-adv-x="742" 
d="M66 745h119l336 -443v443h155v-745h-120l-335 453v-453h-155v745zM405.5 848.5c-11 5 -23.832 12.498 -38.499 22.498c-8.66699 6.66699 -15.667 11.5 -21 14.5s-11.333 4.5 -18 4.5c-10.667 0 -18.334 -4 -23.001 -12s-7.66699 -19 -9 -33h-93
c0 50.667 9.33301 87.5 28 110.5s43.334 34.5 74.001 34.5c15.333 0 28.333 -2.66699 39 -8s21.667 -12.666 33 -21.999c8.66699 -6.66699 15.667 -11.5 21 -14.5s11.333 -4.5 18 -4.5c9.33301 0 16.666 4.33301 21.999 13s8 19 8 31h93
c0.666992 -51.333 -6.83301 -88.166 -22.5 -110.499s-38.5 -33.5 -68.5 -33.5c-17.333 0 -31.5 2.5 -42.5 7.5z" />
    <glyph glyph-name="Ograve" unicode="&#xd2;" horiz-adv-x="878" 
d="M237.5 38.5c-60.333 33.667 -107.666 79.834 -141.999 138.501s-51.5 124 -51.5 196s17.167 137.333 51.5 196s81.666 104.667 141.999 138s127.5 50 201.5 50s141.167 -16.667 201.5 -50s107.666 -79.333 141.999 -138s51.5 -124 51.5 -196s-17.167 -137.333 -51.5 -196
s-81.666 -104.834 -141.999 -138.501s-127.5 -50.5 -201.5 -50.5s-141.167 16.833 -201.5 50.5zM230.5 246.5c21 -37 49.8291 -66 86.4961 -87s77.334 -31.5 122.001 -31.5s85.334 10.5 122.001 31.5s65.5 50 86.5 87s31.5 79.167 31.5 126.5s-10.5 89.5 -31.5 126.5
s-49.667 65.833 -86 86.5s-77.166 31 -122.499 31s-86.166 -10.333 -122.499 -31s-65 -49.5 -86 -86.5s-31.5 -79.167 -31.5 -126.5s10.5 -89.5 31.5 -126.5zM275.996 983h171l58 -144h-132z" />
    <glyph glyph-name="Oacute" unicode="&#xd3;" horiz-adv-x="878" 
d="M237.5 38.5c-60.333 33.667 -107.666 79.834 -141.999 138.501s-51.5 124 -51.5 196s17.167 137.333 51.5 196s81.666 104.667 141.999 138s127.5 50 201.5 50s141.167 -16.667 201.5 -50s107.666 -79.333 141.999 -138s51.5 -124 51.5 -196s-17.167 -137.333 -51.5 -196
s-81.666 -104.834 -141.999 -138.501s-127.5 -50.5 -201.5 -50.5s-141.167 16.833 -201.5 50.5zM230.5 246.5c21 -37 49.8291 -66 86.4961 -87s77.334 -31.5 122.001 -31.5s85.334 10.5 122.001 31.5s65.5 50 86.5 87s31.5 79.167 31.5 126.5s-10.5 89.5 -31.5 126.5
s-49.667 65.833 -86 86.5s-77.166 31 -122.499 31s-86.166 -10.333 -122.499 -31s-65 -49.5 -86 -86.5s-31.5 -79.167 -31.5 -126.5s10.5 -89.5 31.5 -126.5zM430.996 983h171l-97 -144h-132z" />
    <glyph glyph-name="Ocircumflex" unicode="&#xd4;" horiz-adv-x="878" 
d="M237.5 38.5c-60.333 33.667 -107.666 79.834 -141.999 138.501s-51.5 124 -51.5 196s17.167 137.333 51.5 196s81.666 104.667 141.999 138s127.5 50 201.5 50s141.167 -16.667 201.5 -50s107.666 -79.333 141.999 -138s51.5 -124 51.5 -196s-17.167 -137.333 -51.5 -196
s-81.666 -104.834 -141.999 -138.501s-127.5 -50.5 -201.5 -50.5s-141.167 16.833 -201.5 50.5zM230.5 246.5c21 -37 49.8291 -66 86.4961 -87s77.334 -31.5 122.001 -31.5s85.334 10.5 122.001 31.5s65.5 50 86.5 87s31.5 79.167 31.5 126.5s-10.5 89.5 -31.5 126.5
s-49.667 65.833 -86 86.5s-77.166 31 -122.499 31s-86.166 -10.333 -122.499 -31s-65 -49.5 -86 -86.5s-31.5 -79.167 -31.5 -126.5s10.5 -89.5 31.5 -126.5zM358.996 983h157l122 -144h-137l-62 71l-62 -71h-140z" />
    <glyph glyph-name="Otilde" unicode="&#xd5;" horiz-adv-x="878" 
d="M237.5 38.5c-60.333 33.667 -107.666 79.834 -141.999 138.501s-51.5 124 -51.5 196s17.167 137.333 51.5 196s81.666 104.667 141.999 138s127.5 50 201.5 50s141.167 -16.667 201.5 -50s107.666 -79.333 141.999 -138s51.5 -124 51.5 -196s-17.167 -137.333 -51.5 -196
s-81.666 -104.834 -141.999 -138.501s-127.5 -50.5 -201.5 -50.5s-141.167 16.833 -201.5 50.5zM230.5 246.5c21 -37 49.8291 -66 86.4961 -87s77.334 -31.5 122.001 -31.5s85.334 10.5 122.001 31.5s65.5 50 86.5 87s31.5 79.167 31.5 126.5s-10.5 89.5 -31.5 126.5
s-49.667 65.833 -86 86.5s-77.166 31 -122.499 31s-86.166 -10.333 -122.499 -31s-65 -49.5 -86 -86.5s-31.5 -79.167 -31.5 -126.5s10.5 -89.5 31.5 -126.5zM473.496 848.5c-11 5 -23.832 12.498 -38.499 22.498c-8.66699 6.66699 -15.667 11.5 -21 14.5
s-11.333 4.5 -18 4.5c-10.667 0 -18.334 -4 -23.001 -12s-7.66699 -19 -9 -33h-93c0 50.667 9.33301 87.5 28 110.5s43.334 34.5 74.001 34.5c15.333 0 28.333 -2.66699 39 -8s21.667 -12.666 33 -21.999c8.66699 -6.66699 15.667 -11.5 21 -14.5s11.333 -4.5 18 -4.5
c9.33301 0 16.666 4.33301 21.999 13s8 19 8 31h93c0.666992 -51.333 -6.83301 -88.166 -22.5 -110.499s-38.5 -33.5 -68.5 -33.5c-17.333 0 -31.5 2.5 -42.5 7.5z" />
    <glyph glyph-name="Odieresis" unicode="&#xd6;" horiz-adv-x="878" 
d="M237.5 38.5c-60.333 33.667 -107.666 79.834 -141.999 138.501s-51.5 124 -51.5 196s17.167 137.333 51.5 196s81.666 104.667 141.999 138s127.5 50 201.5 50s141.167 -16.667 201.5 -50s107.666 -79.333 141.999 -138s51.5 -124 51.5 -196s-17.167 -137.333 -51.5 -196
s-81.666 -104.834 -141.999 -138.501s-127.5 -50.5 -201.5 -50.5s-141.167 16.833 -201.5 50.5zM230.5 246.5c21 -37 49.8291 -66 86.4961 -87s77.334 -31.5 122.001 -31.5s85.334 10.5 122.001 31.5s65.5 50 86.5 87s31.5 79.167 31.5 126.5s-10.5 89.5 -31.5 126.5
s-49.667 65.833 -86 86.5s-77.166 31 -122.499 31s-86.166 -10.333 -122.499 -31s-65 -49.5 -86 -86.5s-31.5 -79.167 -31.5 -126.5s10.5 -89.5 31.5 -126.5zM281.996 862c-15.333 15.333 -23 33.667 -23 55s7.66699 39.5 23 54.5s33.666 22.5 54.999 22.5
s39.5 -7.5 54.5 -22.5s22.5 -33.167 22.5 -54.5c0 -22 -7.5 -40.5 -22.5 -55.5s-33.167 -22.5 -54.5 -22.5s-39.666 7.66699 -54.999 23zM486.996 971.501c15.333 15 33.666 22.501 54.999 22.501s39.5 -7.5 54.5 -22.5s22.5 -33.167 22.5 -54.5
c0 -22 -7.5 -40.5 -22.5 -55.5s-33.167 -22.5 -54.5 -22.5s-39.666 7.66699 -54.999 23s-23 33.666 -23 54.999s7.66699 39.5 23 54.5z" />
    <glyph glyph-name="multiply" unicode="&#xd7;" horiz-adv-x="640" 
d="M85 89l147 147l-147 146l89 88l146 -146l146 146l89 -88l-147 -146l147 -147l-88 -89l-147 147l-147 -147z" />
    <glyph glyph-name="Oslash" unicode="&#xd8;" horiz-adv-x="878" 
d="M243 36l-28.999 -35.998h-162l92 112c-32 34.667 -56.667 74.167 -74 118.5s-26 91.833 -26 142.5c0 72 17.167 137.333 51.5 196s81.666 104.667 141.999 138s127.5 50 201.5 50c71.333 0 136.666 -15.667 195.999 -47l29 35h162l-92 -111
c32 -34.667 56.667 -74.334 74 -119.001s26 -92 26 -142c0 -72 -17.167 -137.333 -51.5 -196s-81.666 -104.834 -141.999 -138.501s-127.5 -50.5 -201.5 -50.5c-72 0 -137.333 16 -196 48zM241.001 230.002l300.999 366.001c-30.667 14 -65 21 -103 21
c-45.333 0 -86.166 -10.333 -122.499 -31s-65 -49.5 -86 -86.5s-31.5 -79.167 -31.5 -126.5c0 -54.667 14 -102.334 42 -143.001zM439 128.003c44.667 0 85.333 10.499 122 31.499s65.5 50 86.5 87s31.5 79.167 31.5 126.5c0 54.667 -13.667 102.334 -41 143.001l-301 -367
c30 -14 64 -21 102 -21z" />
    <glyph glyph-name="Ugrave" unicode="&#xd9;" horiz-adv-x="724" 
d="M205.5 25c-46.333 24.667 -82.666 58.667 -108.999 102s-39.5 92 -39.5 146v472h155v-462c0 -44.667 14.167 -81.667 42.5 -111s64.166 -44 107.499 -44s79.166 14.667 107.499 44s42.5 66.333 42.5 111v462h155v-472c0 -54 -13.167 -102.667 -39.5 -146
s-62.666 -77.333 -108.999 -102s-98.5 -37 -156.5 -37s-110.167 12.333 -156.5 37zM199 983h171l58 -144h-132z" />
    <glyph glyph-name="Uacute" unicode="&#xda;" horiz-adv-x="724" 
d="M205.5 25c-46.333 24.667 -82.666 58.667 -108.999 102s-39.5 92 -39.5 146v472h155v-462c0 -44.667 14.167 -81.667 42.5 -111s64.166 -44 107.499 -44s79.166 14.667 107.499 44s42.5 66.333 42.5 111v462h155v-472c0 -54 -13.167 -102.667 -39.5 -146
s-62.666 -77.333 -108.999 -102s-98.5 -37 -156.5 -37s-110.167 12.333 -156.5 37zM354 983h171l-97 -144h-132z" />
    <glyph glyph-name="Ucircumflex" unicode="&#xdb;" horiz-adv-x="724" 
d="M205.5 25c-46.333 24.667 -82.666 58.667 -108.999 102s-39.5 92 -39.5 146v472h155v-462c0 -44.667 14.167 -81.667 42.5 -111s64.166 -44 107.499 -44s79.166 14.667 107.499 44s42.5 66.333 42.5 111v462h155v-472c0 -54 -13.167 -102.667 -39.5 -146
s-62.666 -77.333 -108.999 -102s-98.5 -37 -156.5 -37s-110.167 12.333 -156.5 37zM282 983h157l122 -144h-137l-62 71l-62 -71h-140z" />
    <glyph glyph-name="Udieresis" unicode="&#xdc;" horiz-adv-x="724" 
d="M205.5 25c-46.333 24.667 -82.666 58.667 -108.999 102s-39.5 92 -39.5 146v472h155v-462c0 -44.667 14.167 -81.667 42.5 -111s64.166 -44 107.499 -44s79.166 14.667 107.499 44s42.5 66.333 42.5 111v462h155v-472c0 -54 -13.167 -102.667 -39.5 -146
s-62.666 -77.333 -108.999 -102s-98.5 -37 -156.5 -37s-110.167 12.333 -156.5 37zM205 862c-15.333 15.333 -23 33.667 -23 55s7.66699 39.5 23 54.5s33.666 22.5 54.999 22.5s39.5 -7.5 54.5 -22.5s22.5 -33.167 22.5 -54.5c0 -22 -7.5 -40.5 -22.5 -55.5
s-33.167 -22.5 -54.5 -22.5s-39.666 7.66699 -54.999 23zM410 971.501c15.333 15 33.666 22.501 54.999 22.501s39.5 -7.5 54.5 -22.5s22.5 -33.167 22.5 -54.5c0 -22 -7.5 -40.5 -22.5 -55.5s-33.167 -22.5 -54.5 -22.5s-39.666 7.66699 -54.999 23s-23 33.666 -23 54.999
s7.66699 39.5 23 54.5z" />
    <glyph glyph-name="Yacute" unicode="&#xdd;" horiz-adv-x="672" 
d="M259 325l-248 420h177l148 -261l148 261h177l-247 -419v-326h-155v325zM328 983h171l-97 -144h-132z" />
    <glyph glyph-name="Thorn" unicode="&#xde;" horiz-adv-x="655" 
d="M60 745h155.002v-135h131c79.333 0 143.166 -20.667 191.499 -62s72.5 -100 72.5 -176c0 -50 -11.333 -92.833 -34 -128.5s-53.834 -62.667 -93.501 -81s-85.167 -27.5 -136.5 -27.5h-131v-135h-155v745zM347.002 270c32.667 0 58.834 9.33203 78.501 27.999
s29.5 43.334 29.5 74.001s-9.83301 55.5 -29.5 74.5s-45.834 28.5 -78.501 28.5h-132v-205h132z" />
    <glyph glyph-name="germandbls" unicode="&#xdf;" horiz-adv-x="654" 
d="M100.5 631.5c23 40.333 55.001 71.332 96.001 92.999s87.5 32.5 139.5 32.5c50.667 0 95.167 -9.16699 133.5 -27.5s68 -44 89 -77s31.5 -70.833 31.5 -113.5c0 -27.333 -6.33301 -53 -19 -77s-30.667 -44 -54 -60c36.667 -18 63.167 -40.5 79.5 -67.5
s24.5 -61.167 24.5 -102.5c0 -71.333 -22.833 -127.833 -68.5 -169.5s-107.834 -62.5 -186.501 -62.5h-70v130h60c32.667 0 59.167 9.33301 79.5 28s30.5 43.334 30.5 74.001c0 30 -10 53.833 -30 71.5s-46.667 26.5 -80 26.5h-60v130h50c26 0 47.333 7.83301 64 23.5
s25 35.167 25 58.5c0 25.333 -9.16699 45.833 -27.5 61.5s-42.166 23.5 -71.499 23.5c-36.667 0 -65.834 -12 -87.501 -36s-32.5 -57.667 -32.5 -101v-650h-150v650c0 54 11.5 101.167 34.5 141.5z" />
    <glyph glyph-name="agrave" unicode="&#xe0;" horiz-adv-x="583" 
d="M84 30c-34 28 -51.001 66.6641 -51.001 115.997c0 46.667 16.167 84.834 48.5 114.501s80.833 49.834 145.5 60.501l151 24v15c0 20.667 -8.33301 38 -25 52s-38.667 21 -66 21c-26.667 0 -50.167 -7.16699 -70.5 -21.5s-35.166 -33.833 -44.499 -58.5l-120 57
c16 45.333 45.833 81.333 89.5 108s94.5 40 152.5 40c45.333 0 85.833 -8.33301 121.5 -25s63.334 -40 83.001 -70s29.5 -64.333 29.5 -103v-360h-140v51c-21.333 -21.333 -45.333 -37.166 -72 -47.499s-57.334 -15.5 -92.001 -15.5c-59.333 0 -106 14 -140 42z
M206.499 111.997c12.333 -9.33301 28.167 -14 47.5 -14c36.667 0 66.5 11.5 89.5 34.5s34.5 51.5 34.5 85.5v17l-124 -22c-22 -4 -38.5 -11 -49.5 -21s-16.5 -23.667 -16.5 -41c0 -16.667 6.16699 -29.667 18.5 -39zM129 783.997h171l58 -144h-132z" />
    <glyph glyph-name="aacute" unicode="&#xe1;" horiz-adv-x="583" 
d="M84 30c-34 28 -51.001 66.6641 -51.001 115.997c0 46.667 16.167 84.834 48.5 114.501s80.833 49.834 145.5 60.501l151 24v15c0 20.667 -8.33301 38 -25 52s-38.667 21 -66 21c-26.667 0 -50.167 -7.16699 -70.5 -21.5s-35.166 -33.833 -44.499 -58.5l-120 57
c16 45.333 45.833 81.333 89.5 108s94.5 40 152.5 40c45.333 0 85.833 -8.33301 121.5 -25s63.334 -40 83.001 -70s29.5 -64.333 29.5 -103v-360h-140v51c-21.333 -21.333 -45.333 -37.166 -72 -47.499s-57.334 -15.5 -92.001 -15.5c-59.333 0 -106 14 -140 42z
M206.499 111.997c12.333 -9.33301 28.167 -14 47.5 -14c36.667 0 66.5 11.5 89.5 34.5s34.5 51.5 34.5 85.5v17l-124 -22c-22 -4 -38.5 -11 -49.5 -21s-16.5 -23.667 -16.5 -41c0 -16.667 6.16699 -29.667 18.5 -39zM284 783.997h171l-97 -144h-132z" />
    <glyph glyph-name="acircumflex" unicode="&#xe2;" horiz-adv-x="583" 
d="M84 30c-34 28 -51.001 66.6641 -51.001 115.997c0 46.667 16.167 84.834 48.5 114.501s80.833 49.834 145.5 60.501l151 24v15c0 20.667 -8.33301 38 -25 52s-38.667 21 -66 21c-26.667 0 -50.167 -7.16699 -70.5 -21.5s-35.166 -33.833 -44.499 -58.5l-120 57
c16 45.333 45.833 81.333 89.5 108s94.5 40 152.5 40c45.333 0 85.833 -8.33301 121.5 -25s63.334 -40 83.001 -70s29.5 -64.333 29.5 -103v-360h-140v51c-21.333 -21.333 -45.333 -37.166 -72 -47.499s-57.334 -15.5 -92.001 -15.5c-59.333 0 -106 14 -140 42z
M206.499 111.997c12.333 -9.33301 28.167 -14 47.5 -14c36.667 0 66.5 11.5 89.5 34.5s34.5 51.5 34.5 85.5v17l-124 -22c-22 -4 -38.5 -11 -49.5 -21s-16.5 -23.667 -16.5 -41c0 -16.667 6.16699 -29.667 18.5 -39zM212 783.997h157l122 -144h-137l-62 71l-62 -71h-140z
" />
    <glyph glyph-name="atilde" unicode="&#xe3;" horiz-adv-x="583" 
d="M84 30c-34 28 -51.001 66.6641 -51.001 115.997c0 46.667 16.167 84.834 48.5 114.501s80.833 49.834 145.5 60.501l151 24v15c0 20.667 -8.33301 38 -25 52s-38.667 21 -66 21c-26.667 0 -50.167 -7.16699 -70.5 -21.5s-35.166 -33.833 -44.499 -58.5l-120 57
c16 45.333 45.833 81.333 89.5 108s94.5 40 152.5 40c45.333 0 85.833 -8.33301 121.5 -25s63.334 -40 83.001 -70s29.5 -64.333 29.5 -103v-360h-140v51c-21.333 -21.333 -45.333 -37.166 -72 -47.499s-57.334 -15.5 -92.001 -15.5c-59.333 0 -106 14 -140 42z
M206.499 111.997c12.333 -9.33301 28.167 -14 47.5 -14c36.667 0 66.5 11.5 89.5 34.5s34.5 51.5 34.5 85.5v17l-124 -22c-22 -4 -38.5 -11 -49.5 -21s-16.5 -23.667 -16.5 -41c0 -16.667 6.16699 -29.667 18.5 -39zM326.5 649.497c-11 5 -23.832 12.498 -38.499 22.498
c-8.66699 6.66699 -15.667 11.5 -21 14.5s-11.333 4.5 -18 4.5c-10.667 0 -18.334 -4 -23.001 -12s-7.66699 -19 -9 -33h-93c0 50.667 9.33301 87.5 28 110.5s43.334 34.5 74.001 34.5c15.333 0 28.333 -2.66699 39 -8s21.667 -12.666 33 -21.999
c8.66699 -6.66699 15.667 -11.5 21 -14.5s11.333 -4.5 18 -4.5c9.33301 0 16.666 4.33301 21.999 13s8 19 8 31h93c0.666992 -51.333 -6.83301 -88.166 -22.5 -110.499s-38.5 -33.5 -68.5 -33.5c-17.333 0 -31.5 2.5 -42.5 7.5z" />
    <glyph glyph-name="adieresis" unicode="&#xe4;" horiz-adv-x="583" 
d="M84 30c-34 28 -51.001 66.6641 -51.001 115.997c0 46.667 16.167 84.834 48.5 114.501s80.833 49.834 145.5 60.501l151 24v15c0 20.667 -8.33301 38 -25 52s-38.667 21 -66 21c-26.667 0 -50.167 -7.16699 -70.5 -21.5s-35.166 -33.833 -44.499 -58.5l-120 57
c16 45.333 45.833 81.333 89.5 108s94.5 40 152.5 40c45.333 0 85.833 -8.33301 121.5 -25s63.334 -40 83.001 -70s29.5 -64.333 29.5 -103v-360h-140v51c-21.333 -21.333 -45.333 -37.166 -72 -47.499s-57.334 -15.5 -92.001 -15.5c-59.333 0 -106 14 -140 42z
M206.499 111.997c12.333 -9.33301 28.167 -14 47.5 -14c36.667 0 66.5 11.5 89.5 34.5s34.5 51.5 34.5 85.5v17l-124 -22c-22 -4 -38.5 -11 -49.5 -21s-16.5 -23.667 -16.5 -41c0 -16.667 6.16699 -29.667 18.5 -39zM135 662.997c-15.333 15.333 -23 33.667 -23 55
s7.66699 39.5 23 54.5s33.666 22.5 54.999 22.5s39.5 -7.5 54.5 -22.5s22.5 -33.167 22.5 -54.5c0 -22 -7.5 -40.5 -22.5 -55.5s-33.167 -22.5 -54.5 -22.5s-39.666 7.66699 -54.999 23zM340 772.498c15.333 15 33.666 22.501 54.999 22.501s39.5 -7.5 54.5 -22.5
s22.5 -33.167 22.5 -54.5c0 -22 -7.5 -40.5 -22.5 -55.5s-33.167 -22.5 -54.5 -22.5s-39.666 7.66699 -54.999 23s-23 33.666 -23 54.999s7.66699 39.5 23 54.5z" />
    <glyph glyph-name="aring" unicode="&#xe5;" horiz-adv-x="583" 
d="M84 30c-34 28 -51.001 66.6641 -51.001 115.997c0 46.667 16.167 84.834 48.5 114.501s80.833 49.834 145.5 60.501l151 24v15c0 20.667 -8.33301 38 -25 52s-38.667 21 -66 21c-26.667 0 -50.167 -7.16699 -70.5 -21.5s-35.166 -33.833 -44.499 -58.5l-120 57
c16 45.333 45.833 81.333 89.5 108s94.5 40 152.5 40c45.333 0 85.833 -8.33301 121.5 -25s63.334 -40 83.001 -70s29.5 -64.333 29.5 -103v-360h-140v51c-21.333 -21.333 -45.333 -37.166 -72 -47.499s-57.334 -15.5 -92.001 -15.5c-59.333 0 -106 14 -140 42z
M206.499 111.997c12.333 -9.33301 28.167 -14 47.5 -14c36.667 0 66.5 11.5 89.5 34.5s34.5 51.5 34.5 85.5v17l-124 -22c-22 -4 -38.5 -11 -49.5 -21s-16.5 -23.667 -16.5 -41c0 -16.667 6.16699 -29.667 18.5 -39zM200 617.497c-25.333 25 -38 55.167 -38 90.5
s12.667 65.5 38 90.5s56.333 37.5 93 37.5c36 0 66.5 -12.5 91.5 -37.5s37.5 -55.167 37.5 -90.5s-12.5 -65.5 -37.5 -90.5s-55.5 -37.5 -91.5 -37.5c-36.667 0 -67.667 12.5 -93 37.5zM256.5 672.497c9.66699 -9.66699 21.834 -14.5 36.501 -14.5
c14 0 25.667 4.83301 35 14.5s14 21.5 14 35.5s-4.66699 25.833 -14 35.5s-21 14.5 -35 14.5c-14.667 0 -26.834 -4.83301 -36.501 -14.5s-14.5 -21.5 -14.5 -35.5s4.83301 -25.833 14.5 -35.5z" />
    <glyph glyph-name="ae" unicode="&#xe6;" horiz-adv-x="961" 
d="M84 30c-34 28 -51 66.6641 -51 115.997c0 46.667 16.167 84.834 48.5 114.501s80.833 49.834 145.5 60.501l151 24v15c0 20.667 -8.33301 38 -25 52s-38.667 21 -66 21c-26.667 0 -50.167 -7.16699 -70.5 -21.5s-35.166 -33.833 -44.499 -58.5l-120 57
c16 45.333 45.833 81.333 89.5 108s94.5 40 152.5 40c38 0 72.667 -5.83301 104 -17.5s57.333 -28.167 78 -49.5c24.667 21.333 52.5 37.833 83.5 49.5s63.833 17.5 98.5 17.5c56 0 104.333 -11.667 145 -35s71.667 -55.5 93 -96.5s32 -86.833 32 -137.5
c0 -24.667 -2.33301 -44 -7 -58h-382c4.66699 -34.667 18.5 -62.167 41.5 -82.5s52.833 -30.5 89.5 -30.5c26 0 48.667 5.33301 68 16s34.333 25.334 45 44.001l120 -57c-16 -39.333 -44.167 -71.333 -84.5 -96s-83.833 -37 -130.5 -37c-72.667 0 -131.667 20.667 -177 62
v-50h-123v50c-21.333 -21.333 -45.333 -37 -72 -47s-57.334 -15 -92.001 -15c-59.333 0 -106 14 -140 42zM206.5 111.997c12.333 -9.33301 28.167 -14 47.5 -14c36.667 0 66.5 11.5 89.5 34.5s34.5 51.5 34.5 85.5v17l-124 -22c-22 -4 -38.5 -11 -49.5 -21
s-16.5 -23.667 -16.5 -41c0 -16.667 6.16699 -29.667 18.5 -39zM769.001 340.997c-3.33301 29.333 -15 52.833 -35 70.5s-45.333 26.5 -76 26.5c-30 0 -55.167 -8.33301 -75.5 -25s-33.833 -40.667 -40.5 -72h227z" />
    <glyph glyph-name="ccedilla" unicode="&#xe7;" horiz-adv-x="611" 
d="M224 -251l13.0029 76.002c16 -5.33301 36.667 -8 62 -8c16.667 0 29.5 2.66699 38.5 8s13.5 13 13.5 23c0 18 -10.667 27 -32 27c-14.667 0 -27.334 -1.33301 -38.001 -4l-24 12l15 109c-46 7.33301 -87 24.166 -123 50.499s-64.333 59.5 -85 99.5s-31 84 -31 132
c0 53.333 12.667 101.666 38 144.999s60.166 77.333 104.499 102s93.5 37 147.5 37c61.333 0 115.166 -15.333 161.499 -46s77.833 -71.334 94.5 -122.001l-130 -56c-9.33301 27.333 -25.333 49 -48 65s-48.667 24 -78 24c-39.333 0 -71.666 -14 -96.999 -42
s-38 -64 -38 -108s12.667 -80 38 -108s57.666 -42 96.999 -42c30 0 56.167 8 78.5 24s38.166 37.667 47.499 65l130 -57c-13.333 -42.667 -38.666 -78.667 -75.999 -108s-81.333 -47.666 -132 -54.999l-4 -54l13 1c27.333 0 49.5 -8 66.5 -24s25.5 -37.333 25.5 -64
c0 -32.667 -13.667 -59.5 -41 -80.5s-67 -31.5 -119 -31.5c-34.667 0 -64 3.33301 -88 10z" />
    <glyph glyph-name="egrave" unicode="&#xe8;" horiz-adv-x="611" 
d="M169 26c-43.333 25.333 -76.834 59.832 -100.501 103.499s-35.5 91.834 -35.5 144.501c0 53.333 12 101.666 36 144.999s57 77.333 99 102s88.667 37 140 37c56 0 104.333 -11.667 145 -35s71.667 -55.5 93 -96.5s32 -86.833 32 -137.5c0 -24.667 -2.33301 -44 -7 -58
h-382c4.66699 -34.667 18.5 -62.167 41.5 -82.5s52.833 -30.5 89.5 -30.5c26 0 48.667 5.33301 68 16s34.333 25.334 45 44.001l120 -57c-16.667 -40 -46.167 -72.167 -88.5 -96.5s-91.166 -36.5 -146.499 -36.5c-56 0 -105.667 12.667 -149 38zM418.999 340.999
c-3.33301 29.333 -15 52.833 -35 70.5s-45.333 26.5 -76 26.5c-30 0 -55.167 -8.33301 -75.5 -25s-33.833 -40.667 -40.5 -72h227zM142.999 783.999h171l58 -144h-132z" />
    <glyph glyph-name="eacute" unicode="&#xe9;" horiz-adv-x="611" 
d="M169 26c-43.333 25.333 -76.834 59.832 -100.501 103.499s-35.5 91.834 -35.5 144.501c0 53.333 12 101.666 36 144.999s57 77.333 99 102s88.667 37 140 37c56 0 104.333 -11.667 145 -35s71.667 -55.5 93 -96.5s32 -86.833 32 -137.5c0 -24.667 -2.33301 -44 -7 -58
h-382c4.66699 -34.667 18.5 -62.167 41.5 -82.5s52.833 -30.5 89.5 -30.5c26 0 48.667 5.33301 68 16s34.333 25.334 45 44.001l120 -57c-16.667 -40 -46.167 -72.167 -88.5 -96.5s-91.166 -36.5 -146.499 -36.5c-56 0 -105.667 12.667 -149 38zM418.999 340.999
c-3.33301 29.333 -15 52.833 -35 70.5s-45.333 26.5 -76 26.5c-30 0 -55.167 -8.33301 -75.5 -25s-33.833 -40.667 -40.5 -72h227zM297.999 783.999h171l-97 -144h-132z" />
    <glyph glyph-name="ecircumflex" unicode="&#xea;" horiz-adv-x="611" 
d="M169 26c-43.333 25.333 -76.834 59.832 -100.501 103.499s-35.5 91.834 -35.5 144.501c0 53.333 12 101.666 36 144.999s57 77.333 99 102s88.667 37 140 37c56 0 104.333 -11.667 145 -35s71.667 -55.5 93 -96.5s32 -86.833 32 -137.5c0 -24.667 -2.33301 -44 -7 -58
h-382c4.66699 -34.667 18.5 -62.167 41.5 -82.5s52.833 -30.5 89.5 -30.5c26 0 48.667 5.33301 68 16s34.333 25.334 45 44.001l120 -57c-16.667 -40 -46.167 -72.167 -88.5 -96.5s-91.166 -36.5 -146.499 -36.5c-56 0 -105.667 12.667 -149 38zM418.999 340.999
c-3.33301 29.333 -15 52.833 -35 70.5s-45.333 26.5 -76 26.5c-30 0 -55.167 -8.33301 -75.5 -25s-33.833 -40.667 -40.5 -72h227zM225.999 783.999h157l122 -144h-137l-62 71l-62 -71h-140z" />
    <glyph glyph-name="edieresis" unicode="&#xeb;" horiz-adv-x="611" 
d="M169 26c-43.333 25.333 -76.834 59.832 -100.501 103.499s-35.5 91.834 -35.5 144.501c0 53.333 12 101.666 36 144.999s57 77.333 99 102s88.667 37 140 37c56 0 104.333 -11.667 145 -35s71.667 -55.5 93 -96.5s32 -86.833 32 -137.5c0 -24.667 -2.33301 -44 -7 -58
h-382c4.66699 -34.667 18.5 -62.167 41.5 -82.5s52.833 -30.5 89.5 -30.5c26 0 48.667 5.33301 68 16s34.333 25.334 45 44.001l120 -57c-16.667 -40 -46.167 -72.167 -88.5 -96.5s-91.166 -36.5 -146.499 -36.5c-56 0 -105.667 12.667 -149 38zM418.999 340.999
c-3.33301 29.333 -15 52.833 -35 70.5s-45.333 26.5 -76 26.5c-30 0 -55.167 -8.33301 -75.5 -25s-33.833 -40.667 -40.5 -72h227zM148.999 662.999c-15.333 15.333 -23 33.667 -23 55s7.66699 39.5 23 54.5s33.666 22.5 54.999 22.5s39.5 -7.5 54.5 -22.5
s22.5 -33.167 22.5 -54.5c0 -22 -7.5 -40.5 -22.5 -55.5s-33.167 -22.5 -54.5 -22.5s-39.666 7.66699 -54.999 23zM353.999 772.5c15.333 15 33.666 22.501 54.999 22.501s39.5 -7.5 54.5 -22.5s22.5 -33.167 22.5 -54.5c0 -22 -7.5 -40.5 -22.5 -55.5
s-33.167 -22.5 -54.5 -22.5s-39.666 7.66699 -54.999 23s-23 33.666 -23 54.999s7.66699 39.5 23 54.5z" />
    <glyph glyph-name="igrave" unicode="&#xec;" horiz-adv-x="238" 
d="M44 546h150v-546h-150v546zM-44 784h171l58 -144h-132z" />
    <glyph glyph-name="iacute" unicode="&#xed;" horiz-adv-x="238" 
d="M44 546h150v-546h-150v546zM111 784h171l-97 -144h-132z" />
    <glyph glyph-name="icircumflex" unicode="&#xee;" horiz-adv-x="238" 
d="M44 546h150v-546h-150v546zM39 784h157l122 -144h-137l-62 71l-62 -71h-140z" />
    <glyph glyph-name="idieresis" unicode="&#xef;" horiz-adv-x="238" 
d="M44 546h150v-546h-150v546zM-38 663c-15.333 15.333 -23 33.667 -23 55s7.66699 39.5 23 54.5s33.666 22.5 54.999 22.5s39.5 -7.5 54.5 -22.5s22.5 -33.167 22.5 -54.5c0 -22 -7.5 -40.5 -22.5 -55.5s-33.167 -22.5 -54.5 -22.5s-39.666 7.66699 -54.999 23z
M167 772.501c15.333 15 33.666 22.501 54.999 22.501s39.5 -7.5 54.5 -22.5s22.5 -33.167 22.5 -54.5c0 -22 -7.5 -40.5 -22.5 -55.5s-33.167 -22.5 -54.5 -22.5s-39.666 7.66699 -54.999 23s-23 33.666 -23 54.999s7.66699 39.5 23 54.5z" />
    <glyph glyph-name="eth" unicode="&#xf0;" horiz-adv-x="651" 
d="M180 24c-44.667 24 -80.332 57.501 -106.999 100.501s-40 91.5 -40 145.5c0 52 12.5 99.167 37.5 141.5s59 75.666 102 99.999s90.833 36.5 143.5 36.5c26 0 49.167 -3.33301 69.5 -10s40.166 -17 59.499 -31c-14.667 43.333 -40.667 79 -78 107l-152 -59v60l87 34
c-34 11.333 -69 17 -105 17c-32 0 -64.667 -5 -98 -15l-15 120c49.333 16.667 97 25 143 25c88.667 0 166.334 -28.667 233.001 -86l109 43v-60l-66 -26c36.667 -42.667 65 -92.667 85 -150s30 -118 30 -182c0 -74 -12.333 -137 -37 -189s-59 -91.333 -103 -118
s-94.667 -40 -152 -40c-52.667 0 -101.334 12 -146.001 36zM227.002 164.001c26 -27.333 58.999 -40.999 98.999 -40.999s72.833 13.833 98.5 41.5s38.5 62.5 38.5 104.5c0 41.333 -12.5 75.666 -37.5 102.999s-58.167 41 -99.5 41s-74.666 -13.5 -99.999 -40.5
s-38 -61.5 -38 -103.5c0 -42.667 13 -77.667 39 -105z" />
    <glyph glyph-name="ntilde" unicode="&#xf1;" 
d="M55 546l140.002 -0.000976562v-66c14 26 34.167 45.5 60.5 58.5s57.166 19.5 92.499 19.5c40.667 0 76.667 -8.66699 108 -26s55.666 -41.666 72.999 -72.999s26 -67.333 26 -108v-351h-150v319c0 31.333 -9.16699 56.5 -27.5 75.5s-42.5 28.5 -72.5 28.5
s-54.167 -9.5 -72.5 -28.5s-27.5 -44.167 -27.5 -75.5v-319h-150v546zM334.502 649.499c-11 5 -23.832 12.498 -38.499 22.498c-8.66699 6.66699 -15.667 11.5 -21 14.5s-11.333 4.5 -18 4.5c-10.667 0 -18.334 -4 -23.001 -12s-7.66699 -19 -9 -33h-93
c0 50.667 9.33301 87.5 28 110.5s43.334 34.5 74.001 34.5c15.333 0 28.333 -2.66699 39 -8s21.667 -12.666 33 -21.999c8.66699 -6.66699 15.667 -11.5 21 -14.5s11.333 -4.5 18 -4.5c9.33301 0 16.666 4.33301 21.999 13s8 19 8 31h93
c0.666992 -51.333 -6.83301 -88.166 -22.5 -110.499s-38.5 -33.5 -68.5 -33.5c-17.333 0 -31.5 2.5 -42.5 7.5z" />
    <glyph glyph-name="ograve" unicode="&#xf2;" horiz-adv-x="651" 
d="M178.5 25c-45 24.667 -80.5 58.667 -106.5 102s-39 92 -39 146s13 102.667 39 146s61.5 77.333 106.5 102s94.167 37 147.5 37s102.333 -12.333 147 -37s80 -58.667 106 -102s39 -92 39 -146s-13 -102.667 -39 -146s-61.333 -77.333 -106 -102s-93.667 -37 -147 -37
s-102.5 12.333 -147.5 37zM226.5 165c25.667 -28 58.834 -42 99.501 -42s73.667 14 99 42s38 64 38 108s-12.833 80 -38.5 108s-58.5 42 -98.5 42c-40.667 0 -73.834 -14 -99.501 -42s-38.5 -64 -38.5 -108s12.833 -80 38.5 -108zM163 784h171l58 -144h-132z" />
    <glyph glyph-name="oacute" unicode="&#xf3;" horiz-adv-x="651" 
d="M178.5 25c-45 24.667 -80.5 58.667 -106.5 102s-39 92 -39 146s13 102.667 39 146s61.5 77.333 106.5 102s94.167 37 147.5 37s102.333 -12.333 147 -37s80 -58.667 106 -102s39 -92 39 -146s-13 -102.667 -39 -146s-61.333 -77.333 -106 -102s-93.667 -37 -147 -37
s-102.5 12.333 -147.5 37zM226.5 165c25.667 -28 58.834 -42 99.501 -42s73.667 14 99 42s38 64 38 108s-12.833 80 -38.5 108s-58.5 42 -98.5 42c-40.667 0 -73.834 -14 -99.501 -42s-38.5 -64 -38.5 -108s12.833 -80 38.5 -108zM318 784h171l-97 -144h-132z" />
    <glyph glyph-name="ocircumflex" unicode="&#xf4;" horiz-adv-x="651" 
d="M178.5 25c-45 24.667 -80.5 58.667 -106.5 102s-39 92 -39 146s13 102.667 39 146s61.5 77.333 106.5 102s94.167 37 147.5 37s102.333 -12.333 147 -37s80 -58.667 106 -102s39 -92 39 -146s-13 -102.667 -39 -146s-61.333 -77.333 -106 -102s-93.667 -37 -147 -37
s-102.5 12.333 -147.5 37zM226.5 165c25.667 -28 58.834 -42 99.501 -42s73.667 14 99 42s38 64 38 108s-12.833 80 -38.5 108s-58.5 42 -98.5 42c-40.667 0 -73.834 -14 -99.501 -42s-38.5 -64 -38.5 -108s12.833 -80 38.5 -108zM246 784h157l122 -144h-137l-62 71l-62 -71
h-140z" />
    <glyph glyph-name="otilde" unicode="&#xf5;" horiz-adv-x="651" 
d="M178.5 25c-45 24.667 -80.5 58.667 -106.5 102s-39 92 -39 146s13 102.667 39 146s61.5 77.333 106.5 102s94.167 37 147.5 37s102.333 -12.333 147 -37s80 -58.667 106 -102s39 -92 39 -146s-13 -102.667 -39 -146s-61.333 -77.333 -106 -102s-93.667 -37 -147 -37
s-102.5 12.333 -147.5 37zM226.5 165c25.667 -28 58.834 -42 99.501 -42s73.667 14 99 42s38 64 38 108s-12.833 80 -38.5 108s-58.5 42 -98.5 42c-40.667 0 -73.834 -14 -99.501 -42s-38.5 -64 -38.5 -108s12.833 -80 38.5 -108zM360.5 649.5
c-11 5 -23.832 12.498 -38.499 22.498c-8.66699 6.66699 -15.667 11.5 -21 14.5s-11.333 4.5 -18 4.5c-10.667 0 -18.334 -4 -23.001 -12s-7.66699 -19 -9 -33h-93c0 50.667 9.33301 87.5 28 110.5s43.334 34.5 74.001 34.5c15.333 0 28.333 -2.66699 39 -8
s21.667 -12.666 33 -21.999c8.66699 -6.66699 15.667 -11.5 21 -14.5s11.333 -4.5 18 -4.5c9.33301 0 16.666 4.33301 21.999 13s8 19 8 31h93c0.666992 -51.333 -6.83301 -88.166 -22.5 -110.499s-38.5 -33.5 -68.5 -33.5c-17.333 0 -31.5 2.5 -42.5 7.5z" />
    <glyph glyph-name="odieresis" unicode="&#xf6;" horiz-adv-x="651" 
d="M178.5 25c-45 24.667 -80.5 58.667 -106.5 102s-39 92 -39 146s13 102.667 39 146s61.5 77.333 106.5 102s94.167 37 147.5 37s102.333 -12.333 147 -37s80 -58.667 106 -102s39 -92 39 -146s-13 -102.667 -39 -146s-61.333 -77.333 -106 -102s-93.667 -37 -147 -37
s-102.5 12.333 -147.5 37zM226.5 165c25.667 -28 58.834 -42 99.501 -42s73.667 14 99 42s38 64 38 108s-12.833 80 -38.5 108s-58.5 42 -98.5 42c-40.667 0 -73.834 -14 -99.501 -42s-38.5 -64 -38.5 -108s12.833 -80 38.5 -108zM169 663c-15.333 15.333 -23 33.667 -23 55
s7.66699 39.5 23 54.5s33.666 22.5 54.999 22.5s39.5 -7.5 54.5 -22.5s22.5 -33.167 22.5 -54.5c0 -22 -7.5 -40.5 -22.5 -55.5s-33.167 -22.5 -54.5 -22.5s-39.666 7.66699 -54.999 23zM374 772.501c15.333 15 33.666 22.501 54.999 22.501s39.5 -7.5 54.5 -22.5
s22.5 -33.167 22.5 -54.5c0 -22 -7.5 -40.5 -22.5 -55.5s-33.167 -22.5 -54.5 -22.5s-39.666 7.66699 -54.999 23s-23 33.666 -23 54.999s7.66699 39.5 23 54.5z" />
    <glyph glyph-name="divide" unicode="&#xf7;" horiz-adv-x="678" 
d="M89 313h500v-125h-500v125zM264 118h150v-118h-150v118zM264 500h150v-118h-150v118z" />
    <glyph glyph-name="oslash" unicode="&#xf8;" horiz-adv-x="651" 
d="M191 18l-15 -18h-149l73 89c-21.333 24.667 -37.833 52.667 -49.5 84s-17.5 64.666 -17.5 99.999c0 54 13 102.667 39 146s61.5 77.333 106.5 102s94.167 37 147.5 37c47.333 0 92 -10 134 -30l15 18h149l-73 -89c21.333 -24.667 37.833 -52.667 49.5 -84
s17.5 -64.666 17.5 -99.999c0 -54 -13 -102.667 -39 -146s-61.333 -77.333 -106 -102s-93.667 -37 -147 -37c-48 0 -93 10 -135 30zM199 210l170.001 207c-12.667 4 -27 6 -43 6c-40.667 0 -73.834 -14 -99.501 -42s-38.5 -64 -38.5 -108c0 -22 3.66699 -43 11 -63z
M326.001 123c40.667 0 73.667 14 99 42s38 64 38 108c0 22 -3.66699 43 -11 63l-170 -207c14 -4 28.667 -6 44 -6z" />
    <glyph glyph-name="ugrave" unicode="&#xf9;" 
d="M98.5 49.5c-36.333 41 -54.502 96.167 -54.502 165.5v331h150v-319c0 -31.333 9.16699 -56.5 27.5 -75.5s42.5 -28.5 72.5 -28.5s54.167 9.5 72.5 28.5s27.5 44.167 27.5 75.5v319h150v-546h-140v66c-14 -26 -34.167 -45.5 -60.5 -58.5s-57.166 -19.5 -92.499 -19.5
c-65.333 0 -116.166 20.5 -152.499 61.5zM136.998 784h171l58 -144h-132z" />
    <glyph glyph-name="uacute" unicode="&#xfa;" 
d="M98.5 49.5c-36.333 41 -54.502 96.167 -54.502 165.5v331h150v-319c0 -31.333 9.16699 -56.5 27.5 -75.5s42.5 -28.5 72.5 -28.5s54.167 9.5 72.5 28.5s27.5 44.167 27.5 75.5v319h150v-546h-140v66c-14 -26 -34.167 -45.5 -60.5 -58.5s-57.166 -19.5 -92.499 -19.5
c-65.333 0 -116.166 20.5 -152.499 61.5zM291.998 784h171l-97 -144h-132z" />
    <glyph glyph-name="ucircumflex" unicode="&#xfb;" 
d="M98.5 49.5c-36.333 41 -54.502 96.167 -54.502 165.5v331h150v-319c0 -31.333 9.16699 -56.5 27.5 -75.5s42.5 -28.5 72.5 -28.5s54.167 9.5 72.5 28.5s27.5 44.167 27.5 75.5v319h150v-546h-140v66c-14 -26 -34.167 -45.5 -60.5 -58.5s-57.166 -19.5 -92.499 -19.5
c-65.333 0 -116.166 20.5 -152.499 61.5zM219.998 784h157l122 -144h-137l-62 71l-62 -71h-140z" />
    <glyph glyph-name="udieresis" unicode="&#xfc;" 
d="M98.5 49.5c-36.333 41 -54.502 96.167 -54.502 165.5v331h150v-319c0 -31.333 9.16699 -56.5 27.5 -75.5s42.5 -28.5 72.5 -28.5s54.167 9.5 72.5 28.5s27.5 44.167 27.5 75.5v319h150v-546h-140v66c-14 -26 -34.167 -45.5 -60.5 -58.5s-57.166 -19.5 -92.499 -19.5
c-65.333 0 -116.166 20.5 -152.499 61.5zM142.998 663c-15.333 15.333 -23 33.667 -23 55s7.66699 39.5 23 54.5s33.666 22.5 54.999 22.5s39.5 -7.5 54.5 -22.5s22.5 -33.167 22.5 -54.5c0 -22 -7.5 -40.5 -22.5 -55.5s-33.167 -22.5 -54.5 -22.5
s-39.666 7.66699 -54.999 23zM347.998 772.501c15.333 15 33.666 22.501 54.999 22.501s39.5 -7.5 54.5 -22.5s22.5 -33.167 22.5 -54.5c0 -22 -7.5 -40.5 -22.5 -55.5s-33.167 -22.5 -54.5 -22.5s-39.666 7.66699 -54.999 23s-23 33.666 -23 54.999s7.66699 39.5 23 54.5z
" />
    <glyph glyph-name="yacute" unicode="&#xfd;" horiz-adv-x="602" 
d="M293 784h171l-97 -144h-132z" />
    <glyph glyph-name="thorn" unicode="&#xfe;" horiz-adv-x="673" 
d="M55 745l139.999 -0.000976562v-256c18.667 22 42.334 39 71.001 51s60.667 18 96 18c51.333 0 98.166 -12.667 140.499 -38s75.833 -59.666 100.5 -102.999s37 -91.333 37 -144s-12.167 -100.667 -36.5 -144s-57.666 -77.666 -99.999 -102.999s-89.833 -38 -142.5 -38
c-30.667 0 -59.5 4.66699 -86.5 14s-50.167 22.666 -69.5 39.999v-242h-150v945zM243.499 164.499c25.667 -27.667 58.834 -41.498 99.501 -41.498c41.333 0 75.333 14 102 42s40 64 40 108c0 43.333 -13.333 79.166 -40 107.499s-60.667 42.5 -102 42.5
c-40.667 0 -73.834 -14 -99.501 -42s-38.5 -64 -38.5 -108c0 -44.667 12.833 -80.834 38.5 -108.501z" />
    <glyph glyph-name="ydieresis" unicode="&#xff;" horiz-adv-x="602" 
d="M144 663c-15.333 15.333 -23 33.667 -23 55s7.66699 39.5 23 54.5s33.666 22.5 54.999 22.5s39.5 -7.5 54.5 -22.5s22.5 -33.167 22.5 -54.5c0 -22 -7.5 -40.5 -22.5 -55.5s-33.167 -22.5 -54.5 -22.5s-39.666 7.66699 -54.999 23zM349 772.501
c15.333 15 33.666 22.501 54.999 22.501s39.5 -7.5 54.5 -22.5s22.5 -33.167 22.5 -54.5c0 -22 -7.5 -40.5 -22.5 -55.5s-33.167 -22.5 -54.5 -22.5s-39.666 7.66699 -54.999 23s-23 33.666 -23 54.999s7.66699 39.5 23 54.5z" />
    <glyph glyph-name="Amacron" unicode="&#x100;" horiz-adv-x="732" 
d="M263 745h206l252 -745h-169l-50 152h-273l-50 -152h-168zM459 287l-93 287l-94 -287h187zM222 963h288v-109h-288v109z" />
    <glyph glyph-name="amacron" unicode="&#x101;" horiz-adv-x="583" 
d="M84 30c-34 28 -51.001 66.6641 -51.001 115.997c0 46.667 16.167 84.834 48.5 114.501s80.833 49.834 145.5 60.501l151 24v15c0 20.667 -8.33301 38 -25 52s-38.667 21 -66 21c-26.667 0 -50.167 -7.16699 -70.5 -21.5s-35.166 -33.833 -44.499 -58.5l-120 57
c16 45.333 45.833 81.333 89.5 108s94.5 40 152.5 40c45.333 0 85.833 -8.33301 121.5 -25s63.334 -40 83.001 -70s29.5 -64.333 29.5 -103v-360h-140v51c-21.333 -21.333 -45.333 -37.166 -72 -47.499s-57.334 -15.5 -92.001 -15.5c-59.333 0 -106 14 -140 42z
M206.499 111.997c12.333 -9.33301 28.167 -14 47.5 -14c36.667 0 66.5 11.5 89.5 34.5s34.5 51.5 34.5 85.5v17l-124 -22c-22 -4 -38.5 -11 -49.5 -21s-16.5 -23.667 -16.5 -41c0 -16.667 6.16699 -29.667 18.5 -39zM148 763.997h288v-109h-288v109z" />
    <glyph glyph-name="Abreve" unicode="&#x102;" horiz-adv-x="732" 
d="M263 745h206l252 -745h-169l-50 152h-273l-50 -152h-168zM459 287l-93 287l-94 -287h187zM282 859.5c-26 13.667 -46.667 32 -62 55s-23 47.5 -23 73.5h119c0 -13.333 4.66699 -24 14 -32s21.333 -12 36 -12s26.667 4 36 12s14 18.667 14 32h119
c0 -26 -7.5 -50.5 -22.5 -73.5s-35.5 -41.333 -61.5 -55s-54.333 -20.5 -85 -20.5c-30 0 -58 6.83301 -84 20.5z" />
    <glyph glyph-name="abreve" unicode="&#x103;" horiz-adv-x="583" 
d="M84 30c-34 28 -51.001 66.6641 -51.001 115.997c0 46.667 16.167 84.834 48.5 114.501s80.833 49.834 145.5 60.501l151 24v15c0 20.667 -8.33301 38 -25 52s-38.667 21 -66 21c-26.667 0 -50.167 -7.16699 -70.5 -21.5s-35.166 -33.833 -44.499 -58.5l-120 57
c16 45.333 45.833 81.333 89.5 108s94.5 40 152.5 40c45.333 0 85.833 -8.33301 121.5 -25s63.334 -40 83.001 -70s29.5 -64.333 29.5 -103v-360h-140v51c-21.333 -21.333 -45.333 -37.166 -72 -47.499s-57.334 -15.5 -92.001 -15.5c-59.333 0 -106 14 -140 42z
M206.499 111.997c12.333 -9.33301 28.167 -14 47.5 -14c36.667 0 66.5 11.5 89.5 34.5s34.5 51.5 34.5 85.5v17l-124 -22c-22 -4 -38.5 -11 -49.5 -21s-16.5 -23.667 -16.5 -41c0 -16.667 6.16699 -29.667 18.5 -39zM208 660.497c-26 13.667 -46.667 32 -62 55
s-23 47.5 -23 73.5h119c0 -13.333 4.66699 -24 14 -32s21.333 -12 36 -12s26.667 4 36 12s14 18.667 14 32h119c0 -26 -7.5 -50.5 -22.5 -73.5s-35.5 -41.333 -61.5 -55s-54.333 -20.5 -85 -20.5c-30 0 -58 6.83301 -84 20.5z" />
    <glyph glyph-name="Aogonek" unicode="&#x104;" horiz-adv-x="732" 
d="M263 745l206.001 0.000976562l252 -745h-99c-42.667 -15.333 -64 -36 -64 -62c0 -13.333 5.5 -24.333 16.5 -33s26.5 -13 46.5 -13c29.333 0 60.333 9.66699 93 29l45 -79c-46.667 -36.667 -98 -55 -154 -55c-46.667 0 -85.334 10.667 -116.001 32s-46 50.666 -46 87.999
c0 28 9 53 27 75s41.667 39 71 51l-39 119h-273l-50 -152h-168zM459.001 287.001l-93 287l-94 -287h187z" />
    <glyph glyph-name="aogonek" unicode="&#x105;" horiz-adv-x="583" 
d="M84 30c-34 28 -51 66.665 -51 115.998c0 46.667 16.167 84.834 48.5 114.501s80.833 49.834 145.5 60.501l151 24v15c0 20.667 -8.33301 38 -25 52s-38.667 21 -66 21c-26.667 0 -50.167 -7.16699 -70.5 -21.5s-35.166 -33.833 -44.499 -58.5l-120 57
c16 45.333 45.833 81.333 89.5 108s94.5 40 152.5 40c45.333 0 85.833 -8.33301 121.5 -25s63.334 -40 83.001 -70s29.5 -64.333 29.5 -103v-360h-13c-64 -14.667 -96 -38.334 -96 -71.001c0 -13.333 5.5 -24.333 16.5 -33s26.5 -13 46.5 -13c29.333 0 60.333 9.66699 93 29
l45 -79c-46.667 -36.667 -98 -55 -154 -55c-46.667 0 -85.334 10.667 -116.001 32s-46 50.666 -46 87.999c0 26 7.5 49.333 22.5 70s35.5 37.334 61.5 50.001v33c-21.333 -21.333 -45.333 -37.166 -72 -47.499s-57.334 -15.5 -92.001 -15.5c-59.333 0 -106 14 -140 42z
M206.5 111.998c12.333 -9.33301 28.167 -14 47.5 -14c36.667 0 66.5 11.5 89.5 34.5s34.5 51.5 34.5 85.5v17l-124 -22c-22 -4 -38.5 -11 -49.5 -21s-16.5 -23.667 -16.5 -41c0 -16.667 6.16699 -29.667 18.5 -39z" />
    <glyph glyph-name="Cacute" unicode="&#x106;" horiz-adv-x="772" 
d="M228 38c-57.333 33.333 -102.333 79.3311 -135 137.998s-49 124.334 -49 197.001s16.333 138.334 49 197.001s77.5 104.5 134.5 137.5s121.167 49.5 192.5 49.5c52 0 99.833 -8.83301 143.5 -26.5s80.5 -41.5 110.5 -71.5s51.667 -63.667 65 -101l-137 -66
c-13.333 37.333 -36 67.5 -68 90.5s-70 34.5 -114 34.5c-43.333 0 -81.833 -10.167 -115.5 -30.5s-59.667 -49 -78 -86s-27.5 -79.5 -27.5 -127.5s9.16699 -90.5 27.5 -127.5s44.333 -65.833 78 -86.5s72.167 -31 115.5 -31c44 0 82 11.5 114 34.5s54.667 53.167 68 90.5
l137 -66c-13.333 -37.333 -35 -71 -65 -101s-66.833 -53.833 -110.5 -71.5s-91.5 -26.5 -143.5 -26.5c-70.667 0 -134.667 16.667 -192 50zM378 982.998h171l-97 -144h-132z" />
    <glyph glyph-name="cacute" unicode="&#x107;" horiz-adv-x="611" 
d="M175.5 25.5c-44.333 25 -79.1641 59.335 -104.497 103.002s-38 92.167 -38 145.5s12.667 101.666 38 144.999s60.166 77.333 104.499 102s93.5 37 147.5 37c61.333 0 115.166 -15.333 161.499 -46s77.833 -71.334 94.5 -122.001l-130 -56
c-9.33301 27.333 -25.333 49 -48 65s-48.667 24 -78 24c-39.333 0 -71.666 -14 -96.999 -42s-38 -64 -38 -108s12.667 -80 38 -108s57.666 -42 96.999 -42c30 0 56.167 8 78.5 24s38.166 37.667 47.499 65l130 -57c-16 -49.333 -47.333 -89.5 -94 -120.5
s-100.667 -46.5 -162 -46.5c-54 0 -103.167 12.5 -147.5 37.5zM315.002 784.002h171l-97 -144h-132z" />
    <glyph glyph-name="Ccircumflex" unicode="&#x108;" horiz-adv-x="772" 
d="M228 38c-57.333 33.333 -102.333 79.3311 -135 137.998s-49 124.334 -49 197.001s16.333 138.334 49 197.001s77.5 104.5 134.5 137.5s121.167 49.5 192.5 49.5c52 0 99.833 -8.83301 143.5 -26.5s80.5 -41.5 110.5 -71.5s51.667 -63.667 65 -101l-137 -66
c-13.333 37.333 -36 67.5 -68 90.5s-70 34.5 -114 34.5c-43.333 0 -81.833 -10.167 -115.5 -30.5s-59.667 -49 -78 -86s-27.5 -79.5 -27.5 -127.5s9.16699 -90.5 27.5 -127.5s44.333 -65.833 78 -86.5s72.167 -31 115.5 -31c44 0 82 11.5 114 34.5s54.667 53.167 68 90.5
l137 -66c-13.333 -37.333 -35 -71 -65 -101s-66.833 -53.833 -110.5 -71.5s-91.5 -26.5 -143.5 -26.5c-70.667 0 -134.667 16.667 -192 50zM306 982.998h157l122 -144h-137l-62 71l-62 -71h-140z" />
    <glyph glyph-name="ccircumflex" unicode="&#x109;" horiz-adv-x="611" 
d="M175.5 25.5c-44.333 25 -79.1641 59.335 -104.497 103.002s-38 92.167 -38 145.5s12.667 101.666 38 144.999s60.166 77.333 104.499 102s93.5 37 147.5 37c61.333 0 115.166 -15.333 161.499 -46s77.833 -71.334 94.5 -122.001l-130 -56
c-9.33301 27.333 -25.333 49 -48 65s-48.667 24 -78 24c-39.333 0 -71.666 -14 -96.999 -42s-38 -64 -38 -108s12.667 -80 38 -108s57.666 -42 96.999 -42c30 0 56.167 8 78.5 24s38.166 37.667 47.499 65l130 -57c-16 -49.333 -47.333 -89.5 -94 -120.5
s-100.667 -46.5 -162 -46.5c-54 0 -103.167 12.5 -147.5 37.5zM243.002 784.002h157l122 -144h-137l-62 71l-62 -71h-140z" />
    <glyph glyph-name="Cdotaccent" unicode="&#x10a;" horiz-adv-x="772" 
d="M228 38c-57.333 33.333 -102.333 79.3311 -135 137.998s-49 124.334 -49 197.001s16.333 138.334 49 197.001s77.5 104.5 134.5 137.5s121.167 49.5 192.5 49.5c52 0 99.833 -8.83301 143.5 -26.5s80.5 -41.5 110.5 -71.5s51.667 -63.667 65 -101l-137 -66
c-13.333 37.333 -36 67.5 -68 90.5s-70 34.5 -114 34.5c-43.333 0 -81.833 -10.167 -115.5 -30.5s-59.667 -49 -78 -86s-27.5 -79.5 -27.5 -127.5s9.16699 -90.5 27.5 -127.5s44.333 -65.833 78 -86.5s72.167 -31 115.5 -31c44 0 82 11.5 114 34.5s54.667 53.167 68 90.5
l137 -66c-13.333 -37.333 -35 -71 -65 -101s-66.833 -53.833 -110.5 -71.5s-91.5 -26.5 -143.5 -26.5c-70.667 0 -134.667 16.667 -192 50zM331 861.998c-15.333 15.333 -23 33.667 -23 55s7.66699 39.5 23 54.5s33.666 22.5 54.999 22.5s39.5 -7.5 54.5 -22.5
s22.5 -33.167 22.5 -54.5c0 -22 -7.5 -40.5 -22.5 -55.5s-33.167 -22.5 -54.5 -22.5s-39.666 7.66699 -54.999 23z" />
    <glyph glyph-name="cdotaccent" unicode="&#x10b;" horiz-adv-x="611" 
d="M175.5 25.5c-44.333 25 -79.1641 59.335 -104.497 103.002s-38 92.167 -38 145.5s12.667 101.666 38 144.999s60.166 77.333 104.499 102s93.5 37 147.5 37c61.333 0 115.166 -15.333 161.499 -46s77.833 -71.334 94.5 -122.001l-130 -56
c-9.33301 27.333 -25.333 49 -48 65s-48.667 24 -78 24c-39.333 0 -71.666 -14 -96.999 -42s-38 -64 -38 -108s12.667 -80 38 -108s57.666 -42 96.999 -42c30 0 56.167 8 78.5 24s38.166 37.667 47.499 65l130 -57c-16 -49.333 -47.333 -89.5 -94 -120.5
s-100.667 -46.5 -162 -46.5c-54 0 -103.167 12.5 -147.5 37.5zM268.002 663.002c-15.333 15.333 -23 33.667 -23 55s7.66699 39.5 23 54.5s33.666 22.5 54.999 22.5s39.5 -7.5 54.5 -22.5s22.5 -33.167 22.5 -54.5c0 -22 -7.5 -40.5 -22.5 -55.5s-33.167 -22.5 -54.5 -22.5
s-39.666 7.66699 -54.999 23z" />
    <glyph glyph-name="Ccaron" unicode="&#x10c;" horiz-adv-x="772" 
d="M228 38c-57.333 33.333 -102.333 79.3311 -135 137.998s-49 124.334 -49 197.001s16.333 138.334 49 197.001s77.5 104.5 134.5 137.5s121.167 49.5 192.5 49.5c52 0 99.833 -8.83301 143.5 -26.5s80.5 -41.5 110.5 -71.5s51.667 -63.667 65 -101l-137 -66
c-13.333 37.333 -36 67.5 -68 90.5s-70 34.5 -114 34.5c-43.333 0 -81.833 -10.167 -115.5 -30.5s-59.667 -49 -78 -86s-27.5 -79.5 -27.5 -127.5s9.16699 -90.5 27.5 -127.5s44.333 -65.833 78 -86.5s72.167 -31 115.5 -31c44 0 82 11.5 114 34.5s54.667 53.167 68 90.5
l137 -66c-13.333 -37.333 -35 -71 -65 -101s-66.833 -53.833 -110.5 -71.5s-91.5 -26.5 -143.5 -26.5c-70.667 0 -134.667 16.667 -192 50zM185 982.998h140l62 -71l62 71h137l-122 -144h-157z" />
    <glyph glyph-name="ccaron" unicode="&#x10d;" horiz-adv-x="611" 
d="M175.5 25.5c-44.333 25 -79.1641 59.335 -104.497 103.002s-38 92.167 -38 145.5s12.667 101.666 38 144.999s60.166 77.333 104.499 102s93.5 37 147.5 37c61.333 0 115.166 -15.333 161.499 -46s77.833 -71.334 94.5 -122.001l-130 -56
c-9.33301 27.333 -25.333 49 -48 65s-48.667 24 -78 24c-39.333 0 -71.666 -14 -96.999 -42s-38 -64 -38 -108s12.667 -80 38 -108s57.666 -42 96.999 -42c30 0 56.167 8 78.5 24s38.166 37.667 47.499 65l130 -57c-16 -49.333 -47.333 -89.5 -94 -120.5
s-100.667 -46.5 -162 -46.5c-54 0 -103.167 12.5 -147.5 37.5zM122.002 784.002h140l62 -71l62 71h137l-122 -144h-157z" />
    <glyph glyph-name="Dcaron" unicode="&#x10e;" horiz-adv-x="739" 
d="M66 745h243c79.333 0 149 -15.833 209 -47.5s106.333 -75.667 139 -132s49 -120.5 49 -192.5s-16.333 -136.167 -49 -192.5s-79.167 -100.5 -139.5 -132.5s-129.833 -48 -208.5 -48h-243v745zM313 135c48 0 90 9.66699 126 29s63.667 47 83 83s29 78 29 126
s-9.66699 89.833 -29 125.5s-47 63.167 -83 82.5s-78 29 -126 29h-92v-475h92zM174 983h140l62 -71l62 71h137l-122 -144h-157z" />
    <glyph glyph-name="dcaron" unicode="&#x10f;" horiz-adv-x="866" 
d="M169.5 26c-42.333 25.333 -75.666 59.668 -99.999 103.001s-36.5 91.333 -36.5 144s12.333 100.667 37 144s58.167 77.666 100.5 102.999s89.166 38 140.499 38c32 0 61.5 -5 88.5 -15s49.833 -24.333 68.5 -43v257h150v-757h-140v52
c-19.333 -20.667 -43.333 -36.5 -72 -47.5s-60 -16.5 -94 -16.5c-52.667 0 -100.167 12.667 -142.5 38zM228 165.002c26.667 -28 60.667 -42.002 102 -42.002c40.667 0 73.834 13.833 99.501 41.5s38.5 63.834 38.5 108.501c0 44 -12.833 80 -38.5 108
s-58.834 42 -99.501 42c-41.333 0 -75.333 -14.167 -102 -42.5s-40 -64.166 -40 -107.499c0 -44 13.333 -80 40 -108zM693 826h162l-21 -184h-120z" />
    <glyph glyph-name="Dcroat" unicode="&#x110;" horiz-adv-x="739" 
d="M66 328h-97v90h97v327h243c79.333 0 149 -15.833 209 -47.5s106.333 -75.667 139 -132s49 -120.5 49 -192.5s-16.333 -136.167 -49 -192.5s-79.167 -100.5 -139.5 -132.5s-129.833 -48 -208.5 -48h-243v328zM313 135c48 0 90 9.66699 126 29s63.667 47 83 83
s29 78 29 126s-9.66699 89.833 -29 125.5s-47 63.167 -83 82.5s-78 29 -126 29h-92v-192h198v-90h-198v-193h92z" />
    <glyph glyph-name="dcroat" unicode="&#x111;" horiz-adv-x="673" 
d="M169.5 26c-42.333 25.333 -75.666 59.668 -99.999 103.001s-36.5 91.333 -36.5 144s12.333 100.667 37 144s58.167 77.666 100.5 102.999s89.166 38 140.499 38c32 0 61.5 -5 88.5 -15s49.833 -24.333 68.5 -43v95h-100v90h100v72h150v-72h100v-90h-100v-595h-140v52
c-19.333 -20.667 -43.333 -36.5 -72 -47.5s-60 -16.5 -94 -16.5c-52.667 0 -100.167 12.667 -142.5 38zM228 165.002c26.667 -28 60.667 -42.002 102 -42.002c40.667 0 73.834 13.833 99.501 41.5s38.5 63.834 38.5 108.501c0 44 -12.833 80 -38.5 108
s-58.834 42 -99.501 42c-41.333 0 -75.333 -14.167 -102 -42.5s-40 -64.166 -40 -107.499c0 -44 13.333 -80 40 -108z" />
    <glyph glyph-name="Emacron" unicode="&#x112;" horiz-adv-x="589" 
d="M66 745h501v-135h-346v-169h326v-135h-326v-171h346v-135h-501v745zM173 963h288v-109h-288v109z" />
    <glyph glyph-name="emacron" unicode="&#x113;" horiz-adv-x="611" 
d="M169 26c-43.333 25.333 -76.834 59.832 -100.501 103.499s-35.5 91.834 -35.5 144.501c0 53.333 12 101.666 36 144.999s57 77.333 99 102s88.667 37 140 37c56 0 104.333 -11.667 145 -35s71.667 -55.5 93 -96.5s32 -86.833 32 -137.5c0 -24.667 -2.33301 -44 -7 -58
h-382c4.66699 -34.667 18.5 -62.167 41.5 -82.5s52.833 -30.5 89.5 -30.5c26 0 48.667 5.33301 68 16s34.333 25.334 45 44.001l120 -57c-16.667 -40 -46.167 -72.167 -88.5 -96.5s-91.166 -36.5 -146.499 -36.5c-56 0 -105.667 12.667 -149 38zM418.999 340.999
c-3.33301 29.333 -15 52.833 -35 70.5s-45.333 26.5 -76 26.5c-30 0 -55.167 -8.33301 -75.5 -25s-33.833 -40.667 -40.5 -72h227zM161.999 763.999h288v-109h-288v109z" />
    <glyph glyph-name="Ebreve" unicode="&#x114;" horiz-adv-x="589" 
d="M66 745h501v-135h-346v-169h326v-135h-326v-171h346v-135h-501v745zM233 859.5c-26 13.667 -46.667 32 -62 55s-23 47.5 -23 73.5h119c0 -13.333 4.66699 -24 14 -32s21.333 -12 36 -12s26.667 4 36 12s14 18.667 14 32h119c0 -26 -7.5 -50.5 -22.5 -73.5
s-35.5 -41.333 -61.5 -55s-54.333 -20.5 -85 -20.5c-30 0 -58 6.83301 -84 20.5z" />
    <glyph glyph-name="ebreve" unicode="&#x115;" horiz-adv-x="611" 
d="M169 26c-43.333 25.333 -76.834 59.832 -100.501 103.499s-35.5 91.834 -35.5 144.501c0 53.333 12 101.666 36 144.999s57 77.333 99 102s88.667 37 140 37c56 0 104.333 -11.667 145 -35s71.667 -55.5 93 -96.5s32 -86.833 32 -137.5c0 -24.667 -2.33301 -44 -7 -58
h-382c4.66699 -34.667 18.5 -62.167 41.5 -82.5s52.833 -30.5 89.5 -30.5c26 0 48.667 5.33301 68 16s34.333 25.334 45 44.001l120 -57c-16.667 -40 -46.167 -72.167 -88.5 -96.5s-91.166 -36.5 -146.499 -36.5c-56 0 -105.667 12.667 -149 38zM418.999 340.999
c-3.33301 29.333 -15 52.833 -35 70.5s-45.333 26.5 -76 26.5c-30 0 -55.167 -8.33301 -75.5 -25s-33.833 -40.667 -40.5 -72h227zM221.999 660.499c-26 13.667 -46.667 32 -62 55s-23 47.5 -23 73.5h119c0 -13.333 4.66699 -24 14 -32s21.333 -12 36 -12s26.667 4 36 12
s14 18.667 14 32h119c0 -26 -7.5 -50.5 -22.5 -73.5s-35.5 -41.333 -61.5 -55s-54.333 -20.5 -85 -20.5c-30 0 -58 6.83301 -84 20.5z" />
    <glyph glyph-name="Edotaccent" unicode="&#x116;" horiz-adv-x="589" 
d="M66 745h501v-135h-346v-169h326v-135h-326v-171h346v-135h-501v745zM262 862c-15.333 15.333 -23 33.667 -23 55s7.66699 39.5 23 54.5s33.666 22.5 54.999 22.5s39.5 -7.5 54.5 -22.5s22.5 -33.167 22.5 -54.5c0 -22 -7.5 -40.5 -22.5 -55.5s-33.167 -22.5 -54.5 -22.5
s-39.666 7.66699 -54.999 23z" />
    <glyph glyph-name="edotaccent" unicode="&#x117;" horiz-adv-x="611" 
d="M169 26c-43.333 25.333 -76.834 59.832 -100.501 103.499s-35.5 91.834 -35.5 144.501c0 53.333 12 101.666 36 144.999s57 77.333 99 102s88.667 37 140 37c56 0 104.333 -11.667 145 -35s71.667 -55.5 93 -96.5s32 -86.833 32 -137.5c0 -24.667 -2.33301 -44 -7 -58
h-382c4.66699 -34.667 18.5 -62.167 41.5 -82.5s52.833 -30.5 89.5 -30.5c26 0 48.667 5.33301 68 16s34.333 25.334 45 44.001l120 -57c-16.667 -40 -46.167 -72.167 -88.5 -96.5s-91.166 -36.5 -146.499 -36.5c-56 0 -105.667 12.667 -149 38zM418.999 340.999
c-3.33301 29.333 -15 52.833 -35 70.5s-45.333 26.5 -76 26.5c-30 0 -55.167 -8.33301 -75.5 -25s-33.833 -40.667 -40.5 -72h227zM250.999 662.999c-15.333 15.333 -23 33.667 -23 55s7.66699 39.5 23 54.5s33.666 22.5 54.999 22.5s39.5 -7.5 54.5 -22.5
s22.5 -33.167 22.5 -54.5c0 -22 -7.5 -40.5 -22.5 -55.5s-33.167 -22.5 -54.5 -22.5s-39.666 7.66699 -54.999 23z" />
    <glyph glyph-name="Eogonek" unicode="&#x118;" horiz-adv-x="589" 
d="M66 745l501.001 0.000976562v-135h-346v-169h326v-135h-326v-171h346v-135h-135c-42.667 -15.333 -64 -36 -64 -62c0 -13.333 5.5 -24.333 16.5 -33s26.5 -13 46.5 -13c29.333 0 60.333 9.66699 93 29l45 -79c-46.667 -36.667 -98 -55 -154 -55
c-46.667 0 -85.334 10.667 -116.001 32s-46 50.666 -46 87.999c0 36.667 14.333 67.667 43 93h-230v745z" />
    <glyph glyph-name="eogonek" unicode="&#x119;" horiz-adv-x="611" 
d="M297 -11c-38.667 -15.333 -58 -35.333 -58 -60c0 -13.333 5.5 -24.333 16.5 -33s26.5 -13 46.5 -13c29.333 0 60.333 9.66699 93 29l45 -79c-46.667 -36.667 -98 -55 -154 -55c-46.667 0 -85.334 10.667 -116.001 32s-46 50.666 -46 87.999c0 24 6.5 45.833 19.5 65.5
s30.833 35.834 53.5 48.501c-51.333 22 -91.5 56.5 -120.5 103.5s-43.5 99.833 -43.5 158.5c0 53.333 12 101.666 36 144.999s57 77.333 99 102s88.667 37 140 37c56 0 104.333 -11.667 145 -35s71.667 -55.5 93 -96.5s32 -86.833 32 -137.5c0 -24.667 -2.33301 -44 -7 -58
h-382c4.66699 -34.667 18.5 -62.167 41.5 -82.5s52.833 -30.5 89.5 -30.5c26 0 48.667 5.33301 68 16s34.333 25.334 45 44.001l120 -57c-16.667 -40 -46.167 -72.167 -88.5 -96.5s-91.166 -36.5 -146.499 -36.5zM419 341c-3.33301 29.333 -15 52.833 -35 70.5
s-45.333 26.5 -76 26.5c-30 0 -55.167 -8.33301 -75.5 -25s-33.833 -40.667 -40.5 -72h227z" />
    <glyph glyph-name="Ecaron" unicode="&#x11a;" horiz-adv-x="589" 
d="M66 745h501v-135h-346v-169h326v-135h-326v-171h346v-135h-501v745zM116 983h140l62 -71l62 71h137l-122 -144h-157z" />
    <glyph glyph-name="ecaron" unicode="&#x11b;" horiz-adv-x="611" 
d="M169 26c-43.333 25.333 -76.834 59.832 -100.501 103.499s-35.5 91.834 -35.5 144.501c0 53.333 12 101.666 36 144.999s57 77.333 99 102s88.667 37 140 37c56 0 104.333 -11.667 145 -35s71.667 -55.5 93 -96.5s32 -86.833 32 -137.5c0 -24.667 -2.33301 -44 -7 -58
h-382c4.66699 -34.667 18.5 -62.167 41.5 -82.5s52.833 -30.5 89.5 -30.5c26 0 48.667 5.33301 68 16s34.333 25.334 45 44.001l120 -57c-16.667 -40 -46.167 -72.167 -88.5 -96.5s-91.166 -36.5 -146.499 -36.5c-56 0 -105.667 12.667 -149 38zM418.999 340.999
c-3.33301 29.333 -15 52.833 -35 70.5s-45.333 26.5 -76 26.5c-30 0 -55.167 -8.33301 -75.5 -25s-33.833 -40.667 -40.5 -72h227zM104.999 783.999h140l62 -71l62 71h137l-122 -144h-157z" />
    <glyph glyph-name="Gcircumflex" unicode="&#x11c;" horiz-adv-x="804" 
d="M231 38c-58 33.333 -103.668 79.3311 -137.001 137.998s-50 124.334 -50 197.001s16.333 138.334 49 197.001s77.5 104.5 134.5 137.5s121.167 49.5 192.5 49.5c52 0 99.833 -8.83301 143.5 -26.5s80.5 -41.5 110.5 -71.5s51.667 -63.667 65 -101l-137 -66
c-13.333 37.333 -36 67.5 -68 90.5s-70 34.5 -114 34.5c-43.333 0 -81.833 -10.167 -115.5 -30.5s-59.667 -49 -78 -86s-27.5 -79.5 -27.5 -127.5s9.5 -90.5 28.5 -127.5s45.667 -65.833 80 -86.5s73.166 -31 116.499 -31c34.667 0 66.834 6.66699 96.501 20
s53.5 32.5 71.5 57.5s27 54.167 27 87.5v2h-199v130h354v-79c0 -77.333 -16.667 -143 -50 -197s-76.666 -94.333 -129.999 -121s-110 -40 -170 -40c-70.667 0 -135 16.667 -193 50zM321.999 982.998h157l122 -144h-137l-62 71l-62 -71h-140z" />
    <glyph glyph-name="gcircumflex" unicode="&#x11d;" horiz-adv-x="648" 
d="M156 -174.5c-48 30.333 -80.666 71.167 -97.999 122.5l139 49c7.33301 -25.333 22.333 -45.333 45 -60s49.667 -22 81 -22c37.333 0 66.666 10.167 87.999 30.5s32 48.166 32 83.499v52c-36 -36 -84.667 -54 -146 -54c-50 0 -95.167 11.5 -135.5 34.5
s-71.833 54.833 -94.5 95.5s-34 86.334 -34 137.001c0 50 11.167 95.167 33.5 135.5s53.333 71.833 93 94.5s84.5 34 134.5 34c67.333 0 120.333 -23 159 -69v57h140v-517c0 -48 -11.5 -90.833 -34.5 -128.5s-55 -67.167 -96 -88.5s-87.5 -32 -139.5 -32
c-63.333 0 -119 15.167 -167 45.5zM224.501 199.001c24.333 -24 55.5 -36.001 93.5 -36.001c37.333 0 67.5 11.833 90.5 35.5s34.5 54.834 34.5 93.501s-11.5 70.167 -34.5 94.5s-53.167 36.5 -90.5 36.5c-38 0 -69.167 -12.167 -93.5 -36.5s-36.5 -55.833 -36.5 -94.5
c0 -38 12.167 -69 36.5 -93zM244.001 784h157l122 -144h-137l-62 71l-62 -71h-140z" />
    <glyph glyph-name="Gbreve" unicode="&#x11e;" horiz-adv-x="804" 
d="M231 38c-58 33.333 -103.668 79.3311 -137.001 137.998s-50 124.334 -50 197.001s16.333 138.334 49 197.001s77.5 104.5 134.5 137.5s121.167 49.5 192.5 49.5c52 0 99.833 -8.83301 143.5 -26.5s80.5 -41.5 110.5 -71.5s51.667 -63.667 65 -101l-137 -66
c-13.333 37.333 -36 67.5 -68 90.5s-70 34.5 -114 34.5c-43.333 0 -81.833 -10.167 -115.5 -30.5s-59.667 -49 -78 -86s-27.5 -79.5 -27.5 -127.5s9.5 -90.5 28.5 -127.5s45.667 -65.833 80 -86.5s73.166 -31 116.499 -31c34.667 0 66.834 6.66699 96.501 20
s53.5 32.5 71.5 57.5s27 54.167 27 87.5v2h-199v130h354v-79c0 -77.333 -16.667 -143 -50 -197s-76.666 -94.333 -129.999 -121s-110 -40 -170 -40c-70.667 0 -135 16.667 -193 50zM317.999 859.498c-26 13.667 -46.667 32 -62 55s-23 47.5 -23 73.5h119
c0 -13.333 4.66699 -24 14 -32s21.333 -12 36 -12s26.667 4 36 12s14 18.667 14 32h119c0 -26 -7.5 -50.5 -22.5 -73.5s-35.5 -41.333 -61.5 -55s-54.333 -20.5 -85 -20.5c-30 0 -58 6.83301 -84 20.5z" />
    <glyph glyph-name="gbreve" unicode="&#x11f;" horiz-adv-x="648" 
d="M156 -174.5c-48 30.333 -80.666 71.167 -97.999 122.5l139 49c7.33301 -25.333 22.333 -45.333 45 -60s49.667 -22 81 -22c37.333 0 66.666 10.167 87.999 30.5s32 48.166 32 83.499v52c-36 -36 -84.667 -54 -146 -54c-50 0 -95.167 11.5 -135.5 34.5
s-71.833 54.833 -94.5 95.5s-34 86.334 -34 137.001c0 50 11.167 95.167 33.5 135.5s53.333 71.833 93 94.5s84.5 34 134.5 34c67.333 0 120.333 -23 159 -69v57h140v-517c0 -48 -11.5 -90.833 -34.5 -128.5s-55 -67.167 -96 -88.5s-87.5 -32 -139.5 -32
c-63.333 0 -119 15.167 -167 45.5zM224.501 199.001c24.333 -24 55.5 -36.001 93.5 -36.001c37.333 0 67.5 11.833 90.5 35.5s34.5 54.834 34.5 93.501s-11.5 70.167 -34.5 94.5s-53.167 36.5 -90.5 36.5c-38 0 -69.167 -12.167 -93.5 -36.5s-36.5 -55.833 -36.5 -94.5
c0 -38 12.167 -69 36.5 -93zM240.001 660.5c-26 13.667 -46.667 32 -62 55s-23 47.5 -23 73.5h119c0 -13.333 4.66699 -24 14 -32s21.333 -12 36 -12s26.667 4 36 12s14 18.667 14 32h119c0 -26 -7.5 -50.5 -22.5 -73.5s-35.5 -41.333 -61.5 -55s-54.333 -20.5 -85 -20.5
c-30 0 -58 6.83301 -84 20.5z" />
    <glyph glyph-name="Gdotaccent" unicode="&#x120;" horiz-adv-x="804" 
d="M231 38c-58 33.333 -103.668 79.3311 -137.001 137.998s-50 124.334 -50 197.001s16.333 138.334 49 197.001s77.5 104.5 134.5 137.5s121.167 49.5 192.5 49.5c52 0 99.833 -8.83301 143.5 -26.5s80.5 -41.5 110.5 -71.5s51.667 -63.667 65 -101l-137 -66
c-13.333 37.333 -36 67.5 -68 90.5s-70 34.5 -114 34.5c-43.333 0 -81.833 -10.167 -115.5 -30.5s-59.667 -49 -78 -86s-27.5 -79.5 -27.5 -127.5s9.5 -90.5 28.5 -127.5s45.667 -65.833 80 -86.5s73.166 -31 116.499 -31c34.667 0 66.834 6.66699 96.501 20
s53.5 32.5 71.5 57.5s27 54.167 27 87.5v2h-199v130h354v-79c0 -77.333 -16.667 -143 -50 -197s-76.666 -94.333 -129.999 -121s-110 -40 -170 -40c-70.667 0 -135 16.667 -193 50zM346.999 861.998c-15.333 15.333 -23 33.667 -23 55s7.66699 39.5 23 54.5
s33.666 22.5 54.999 22.5s39.5 -7.5 54.5 -22.5s22.5 -33.167 22.5 -54.5c0 -22 -7.5 -40.5 -22.5 -55.5s-33.167 -22.5 -54.5 -22.5s-39.666 7.66699 -54.999 23z" />
    <glyph glyph-name="gdotaccent" unicode="&#x121;" horiz-adv-x="648" 
d="M156 -174.5c-48 30.333 -80.666 71.167 -97.999 122.5l139 49c7.33301 -25.333 22.333 -45.333 45 -60s49.667 -22 81 -22c37.333 0 66.666 10.167 87.999 30.5s32 48.166 32 83.499v52c-36 -36 -84.667 -54 -146 -54c-50 0 -95.167 11.5 -135.5 34.5
s-71.833 54.833 -94.5 95.5s-34 86.334 -34 137.001c0 50 11.167 95.167 33.5 135.5s53.333 71.833 93 94.5s84.5 34 134.5 34c67.333 0 120.333 -23 159 -69v57h140v-517c0 -48 -11.5 -90.833 -34.5 -128.5s-55 -67.167 -96 -88.5s-87.5 -32 -139.5 -32
c-63.333 0 -119 15.167 -167 45.5zM224.501 199.001c24.333 -24 55.5 -36.001 93.5 -36.001c37.333 0 67.5 11.833 90.5 35.5s34.5 54.834 34.5 93.501s-11.5 70.167 -34.5 94.5s-53.167 36.5 -90.5 36.5c-38 0 -69.167 -12.167 -93.5 -36.5s-36.5 -55.833 -36.5 -94.5
c0 -38 12.167 -69 36.5 -93zM269.001 663c-15.333 15.333 -23 33.667 -23 55s7.66699 39.5 23 54.5s33.666 22.5 54.999 22.5s39.5 -7.5 54.5 -22.5s22.5 -33.167 22.5 -54.5c0 -22 -7.5 -40.5 -22.5 -55.5s-33.167 -22.5 -54.5 -22.5s-39.666 7.66699 -54.999 23z" />
    <glyph glyph-name="uni0122" unicode="&#x122;" horiz-adv-x="804" 
d="M231 38c-58 33.333 -103.668 79.3311 -137.001 137.998s-50 124.334 -50 197.001s16.333 138.334 49 197.001s77.5 104.5 134.5 137.5s121.167 49.5 192.5 49.5c52 0 99.833 -8.83301 143.5 -26.5s80.5 -41.5 110.5 -71.5s51.667 -63.667 65 -101l-137 -66
c-13.333 37.333 -36 67.5 -68 90.5s-70 34.5 -114 34.5c-43.333 0 -81.833 -10.167 -115.5 -30.5s-59.667 -49 -78 -86s-27.5 -79.5 -27.5 -127.5s9.5 -90.5 28.5 -127.5s45.667 -65.833 80 -86.5s73.166 -31 116.499 -31c34.667 0 66.834 6.66699 96.501 20
s53.5 32.5 71.5 57.5s27 54.167 27 87.5v2h-199v130h354v-79c0 -77.333 -16.667 -143 -50 -197s-76.666 -94.333 -129.999 -121s-110 -40 -170 -40c-70.667 0 -135 16.667 -193 50zM403.999 -230.002h-67v150h150v-87c0 -63.333 -14.333 -114.333 -43 -153
s-71 -63.667 -127 -75v75c49.333 11.333 78.333 41.333 87 90z" />
    <glyph glyph-name="uni0123" unicode="&#x123;" horiz-adv-x="648" 
d="M156 -174.5c-48 30.333 -80.666 71.167 -97.999 122.5l139 49c7.33301 -25.333 22.333 -45.333 45 -60s49.667 -22 81 -22c37.333 0 66.666 10.167 87.999 30.5s32 48.166 32 83.499v52c-36 -36 -84.667 -54 -146 -54c-50 0 -95.167 11.5 -135.5 34.5
s-71.833 54.833 -94.5 95.5s-34 86.334 -34 137.001c0 50 11.167 95.167 33.5 135.5s53.333 71.833 93 94.5s84.5 34 134.5 34c67.333 0 120.333 -23 159 -69v57h140v-517c0 -48 -11.5 -90.833 -34.5 -128.5s-55 -67.167 -96 -88.5s-87.5 -32 -139.5 -32
c-63.333 0 -119 15.167 -167 45.5zM224.501 199.001c24.333 -24 55.5 -36.001 93.5 -36.001c37.333 0 67.5 11.833 90.5 35.5s34.5 54.834 34.5 93.501s-11.5 70.167 -34.5 94.5s-53.167 36.5 -90.5 36.5c-38 0 -69.167 -12.167 -93.5 -36.5s-36.5 -55.833 -36.5 -94.5
c0 -38 12.167 -69 36.5 -93zM292.501 833.5c29 37.667 71.167 62.166 126.5 73.499v-75c-23.333 -5.33301 -42.5 -15 -57.5 -29s-24.833 -31 -29.5 -51h67v-150h-150v87c0 58.667 14.5 106.834 43.5 144.501z" />
    <glyph glyph-name="Hcircumflex" unicode="&#x124;" horiz-adv-x="732" 
d="M66 745h155v-322h290v322h155v-745h-155v288h-290v-288h-155v745zM286 983h157l122 -144h-137l-62 71l-62 -71h-140z" />
    <glyph glyph-name="hcircumflex" unicode="&#x125;" 
d="M55 757l150 -0.000976562v-261c14.667 20.667 34.334 36.167 59.001 46.5s52.667 15.5 84 15.5c40.667 0 76.667 -8.66699 108 -26s55.666 -41.666 72.999 -72.999s26 -67.333 26 -108v-351h-150v319c0 31.333 -9.16699 56.5 -27.5 75.5s-42.5 28.5 -72.5 28.5
s-54.167 -9.5 -72.5 -28.5s-27.5 -44.167 -27.5 -75.5v-319h-150v757zM50 994.999h157l122 -144h-137l-62 71l-62 -71h-140z" />
    <glyph glyph-name="Hbar" unicode="&#x126;" horiz-adv-x="732" 
d="M66 550h-90v90h90v105h155v-105h290v105h155v-105h90v-90h-90v-550h-155v288h-290v-288h-155v550zM511 423v127h-290v-127h290z" />
    <glyph glyph-name="hbar" unicode="&#x127;" 
d="M55 595l-100 -0.000976562v90h100v72h150v-72h100v-90h-100v-99c14.667 20.667 34.334 36.167 59.001 46.5s52.667 15.5 84 15.5c40.667 0 76.667 -8.66699 108 -26s55.666 -41.666 72.999 -72.999s26 -67.333 26 -108v-351h-150v319c0 31.333 -9.16699 56.5 -27.5 75.5
s-42.5 28.5 -72.5 28.5s-54.167 -9.5 -72.5 -28.5s-27.5 -44.167 -27.5 -75.5v-319h-150v595z" />
    <glyph glyph-name="Itilde" unicode="&#x128;" horiz-adv-x="287" 
d="M66 745h155v-745h-155v745zM178.5 848.5c-11 5 -23.832 12.498 -38.499 22.498c-8.66699 6.66699 -15.667 11.5 -21 14.5s-11.333 4.5 -18 4.5c-10.667 0 -18.334 -4 -23.001 -12s-7.66699 -19 -9 -33h-93c0 50.667 9.33301 87.5 28 110.5s43.334 34.5 74.001 34.5
c15.333 0 28.333 -2.66699 39 -8s21.667 -12.666 33 -21.999c8.66699 -6.66699 15.667 -11.5 21 -14.5s11.333 -4.5 18 -4.5c9.33301 0 16.666 4.33301 21.999 13s8 19 8 31h93c0.666992 -51.333 -6.83301 -88.166 -22.5 -110.499s-38.5 -33.5 -68.5 -33.5
c-17.333 0 -31.5 2.5 -42.5 7.5z" />
    <glyph glyph-name="itilde" unicode="&#x129;" horiz-adv-x="238" 
d="M44 546h150v-546h-150v546zM153.5 649.5c-11 5 -23.832 12.498 -38.499 22.498c-8.66699 6.66699 -15.667 11.5 -21 14.5s-11.333 4.5 -18 4.5c-10.667 0 -18.334 -4 -23.001 -12s-7.66699 -19 -9 -33h-93c0 50.667 9.33301 87.5 28 110.5s43.334 34.5 74.001 34.5
c15.333 0 28.333 -2.66699 39 -8s21.667 -12.666 33 -21.999c8.66699 -6.66699 15.667 -11.5 21 -14.5s11.333 -4.5 18 -4.5c9.33301 0 16.666 4.33301 21.999 13s8 19 8 31h93c0.666992 -51.333 -6.83301 -88.166 -22.5 -110.499s-38.5 -33.5 -68.5 -33.5
c-17.333 0 -31.5 2.5 -42.5 7.5z" />
    <glyph glyph-name="Imacron" unicode="&#x12a;" horiz-adv-x="287" 
d="M66 745h155v-745h-155v745zM0 963h288v-109h-288v109z" />
    <glyph glyph-name="imacron" unicode="&#x12b;" horiz-adv-x="238" 
d="M44 546h150v-546h-150v546zM-25 764h288v-109h-288v109z" />
    <glyph glyph-name="Ibreve" unicode="&#x12c;" horiz-adv-x="287" 
d="M66 745h155v-745h-155v745zM60 859.5c-26 13.667 -46.667 32 -62 55s-23 47.5 -23 73.5h119c0 -13.333 4.66699 -24 14 -32s21.333 -12 36 -12s26.667 4 36 12s14 18.667 14 32h119c0 -26 -7.5 -50.5 -22.5 -73.5s-35.5 -41.333 -61.5 -55s-54.333 -20.5 -85 -20.5
c-30 0 -58 6.83301 -84 20.5z" />
    <glyph glyph-name="ibreve" unicode="&#x12d;" horiz-adv-x="238" 
d="M44 546h150v-546h-150v546zM35 660.5c-26 13.667 -46.667 32 -62 55s-23 47.5 -23 73.5h119c0 -13.333 4.66699 -24 14 -32s21.333 -12 36 -12s26.667 4 36 12s14 18.667 14 32h119c0 -26 -7.5 -50.5 -22.5 -73.5s-35.5 -41.333 -61.5 -55s-54.333 -20.5 -85 -20.5
c-30 0 -58 6.83301 -84 20.5z" />
    <glyph glyph-name="Iogonek" unicode="&#x12e;" horiz-adv-x="287" 
d="M-4 -181c-30.667 21.333 -45.999 50.668 -45.999 88.001c0 31.333 10.667 58.666 32 81.999s49.333 40.333 84 51v705h155v-745h-92c-42.667 -15.333 -64 -36 -64 -62c0 -13.333 5.5 -24.333 16.5 -33s26.5 -13 46.5 -13c29.333 0 60.333 9.66699 93 29l45 -79
c-46.667 -36.667 -98 -55 -154 -55c-46.667 0 -85.334 10.667 -116.001 32z" />
    <glyph glyph-name="iogonek" unicode="&#x12f;" horiz-adv-x="238" 
d="M64 663c-15.333 15.333 -23 33.667 -23 55s7.66699 39.5 23 54.5s33.666 22.5 54.999 22.5s39.5 -7.5 54.5 -22.5s22.5 -33.167 22.5 -54.5c0 -22 -7.5 -40.5 -22.5 -55.5s-33.167 -22.5 -54.5 -22.5s-39.666 7.66699 -54.999 23zM-42 -19.499
c22 23.667 50.668 40.835 86.001 51.502v514h150v-546h-58c-64 -14.667 -96 -38.334 -96 -71.001c0 -13.333 5.5 -24.333 16.5 -33s26.5 -13 46.5 -13c29.333 0 60.333 9.66699 93 29l45 -79c-46.667 -36.667 -98 -55 -154 -55c-46.667 0 -85.334 10.667 -116.001 32
s-46 50.666 -46 87.999c0 31.333 11 58.833 33 82.5z" />
    <glyph glyph-name="Idotaccent" unicode="&#x130;" horiz-adv-x="287" 
d="M66 745h155v-745h-155v745zM89 862c-15.333 15.333 -23 33.667 -23 55s7.66699 39.5 23 54.5s33.666 22.5 54.999 22.5s39.5 -7.5 54.5 -22.5s22.5 -33.167 22.5 -54.5c0 -22 -7.5 -40.5 -22.5 -55.5s-33.167 -22.5 -54.5 -22.5s-39.666 7.66699 -54.999 23z" />
    <glyph glyph-name="dotlessi" unicode="&#x131;" horiz-adv-x="238" 
d="M44 546h150v-546h-150v546z" />
    <glyph glyph-name="Jcircumflex" unicode="&#x134;" horiz-adv-x="396" 
d="M33 140h44.999c30 0 54.167 8.5 72.5 25.5s27.5 39.5 27.5 67.5v512h155v-505c0 -48 -10.5 -90 -31.5 -126s-50.667 -64 -89 -84s-83.166 -30 -134.499 -30h-45v140zM175.999 983h157l122 -144h-137l-62 71l-62 -71h-140z" />
    <glyph glyph-name="jcircumflex" unicode="&#x135;" horiz-adv-x="260" 
d="M-65 -217v128c10.667 -2 22 -3 34 -3c57.333 0 86 24 86 72v566h150v-566c0 -64 -19 -113.667 -57 -149s-91 -53 -159 -53c-21.333 0 -39.333 1.66699 -54 5zM50 784h157l122 -144h-137l-62 71l-62 -71h-140z" />
    <glyph glyph-name="uni0136" unicode="&#x136;" horiz-adv-x="687" 
d="M66 745h155v-306l255 306h194l-252 -304l258 -441h-181l-182 315l-92 -111v-204h-155v745zM346 -230h-67v150h150v-87c0 -63.333 -14.333 -114.333 -43 -153s-71 -63.667 -127 -75v75c49.333 11.333 78.333 41.333 87 90z" />
    <glyph glyph-name="uni0137" unicode="&#x137;" horiz-adv-x="586" 
d="M55 757h150v-408l185 197h185l-198 -220l197 -326h-170l-139 233l-60 -66v-167h-150v757zM295 -230h-67v150h150v-87c0 -63.333 -14.333 -114.333 -43 -153s-71 -63.667 -127 -75v75c49.333 11.333 78.333 41.333 87 90z" />
    <glyph glyph-name="kgreenlandic" unicode="&#x138;" horiz-adv-x="586" 
d="M255 218h-50v-218h-150v546h150v-198h59l126 198h164l-168 -270l189 -276h-169z" />
    <glyph glyph-name="Lacute" unicode="&#x139;" horiz-adv-x="547" 
d="M66 745h155v-610h315v-135h-470v745zM136 983h171l-97 -144h-132z" />
    <glyph glyph-name="lacute" unicode="&#x13a;" horiz-adv-x="260" 
d="M55 757h150v-757h-150v757zM122 983h171l-97 -144h-132z" />
    <glyph glyph-name="uni013B" unicode="&#x13b;" horiz-adv-x="547" 
d="M66 745h155v-610h315v-135h-470v745zM303 -230h-67v150h150v-87c0 -63.333 -14.333 -114.333 -43 -153s-71 -63.667 -127 -75v75c49.333 11.333 78.333 41.333 87 90z" />
    <glyph glyph-name="uni013C" unicode="&#x13c;" horiz-adv-x="260" 
d="M55 757h150v-757h-150v757zM132 -230h-67v150h150v-87c0 -63.333 -14.333 -114.333 -43 -153s-71 -63.667 -127 -75v75c49.333 11.333 78.333 41.333 87 90z" />
    <glyph glyph-name="Lcaron" unicode="&#x13d;" horiz-adv-x="635" 
d="M66 745h155v-610h315v-135h-470v745zM349 745h162l-21 -184h-120z" />
    <glyph glyph-name="lcaron" unicode="&#x13e;" horiz-adv-x="453" 
d="M55 757h150v-757h-150v757zM280 826h162l-21 -184h-120z" />
    <glyph glyph-name="Ldot" unicode="&#x13f;" horiz-adv-x="547" 
d="M66 745h155v-610h315v-135h-470v745zM324 426.5c15.333 15 33.666 22.501 54.999 22.501s39.5 -7.5 54.5 -22.5s22.5 -33.167 22.5 -54.5c0 -22 -7.5 -40.5 -22.5 -55.5s-33.167 -22.5 -54.5 -22.5s-39.666 7.66699 -54.999 23s-23 33.666 -23 54.999
s7.66699 39.5 23 54.5z" />
    <glyph glyph-name="ldot" unicode="&#x140;" horiz-adv-x="445" 
d="M55 757h150v-757h-150v757zM285 426.5c15.333 15 33.666 22.501 54.999 22.501s39.5 -7.5 54.5 -22.5s22.5 -33.167 22.5 -54.5c0 -22 -7.5 -40.5 -22.5 -55.5s-33.167 -22.5 -54.5 -22.5s-39.666 7.66699 -54.999 23s-23 33.666 -23 54.999s7.66699 39.5 23 54.5z" />
    <glyph glyph-name="Lslash" unicode="&#x141;" horiz-adv-x="547" 
d="M66 304l-97 -28v94l97 28v347h155v-303l98 28v-94l-98 -28v-213h315v-135h-470v304z" />
    <glyph glyph-name="lslash" unicode="&#x142;" horiz-adv-x="260" 
d="M55 319l-75 -25v95l75 25v343h150v-293l75 25v-95l-75 -25v-369h-150v319z" />
    <glyph glyph-name="Nacute" unicode="&#x143;" horiz-adv-x="742" 
d="M66 745h119l336 -443v443h155v-745h-120l-335 453v-453h-155v745zM363 983h171l-97 -144h-132z" />
    <glyph glyph-name="nacute" unicode="&#x144;" 
d="M55 546l140.002 -0.000976562v-66c14 26 34.167 45.5 60.5 58.5s57.166 19.5 92.499 19.5c40.667 0 76.667 -8.66699 108 -26s55.666 -41.666 72.999 -72.999s26 -67.333 26 -108v-351h-150v319c0 31.333 -9.16699 56.5 -27.5 75.5s-42.5 28.5 -72.5 28.5
s-54.167 -9.5 -72.5 -28.5s-27.5 -44.167 -27.5 -75.5v-319h-150v546zM292.002 783.999h171l-97 -144h-132z" />
    <glyph glyph-name="uni0145" unicode="&#x145;" horiz-adv-x="742" 
d="M66 745h119l336 -443v443h155v-745h-120l-335 453v-453h-155v745zM373 -230h-67v150h150v-87c0 -63.333 -14.333 -114.333 -43 -153s-71 -63.667 -127 -75v75c49.333 11.333 78.333 41.333 87 90z" />
    <glyph glyph-name="uni0146" unicode="&#x146;" 
d="M55 546l140.002 -0.000976562v-66c14 26 34.167 45.5 60.5 58.5s57.166 19.5 92.499 19.5c40.667 0 76.667 -8.66699 108 -26s55.666 -41.666 72.999 -72.999s26 -67.333 26 -108v-351h-150v319c0 31.333 -9.16699 56.5 -27.5 75.5s-42.5 28.5 -72.5 28.5
s-54.167 -9.5 -72.5 -28.5s-27.5 -44.167 -27.5 -75.5v-319h-150v546zM302.002 -230.001h-67v150h150v-87c0 -63.333 -14.333 -114.333 -43 -153s-71 -63.667 -127 -75v75c49.333 11.333 78.333 41.333 87 90z" />
    <glyph glyph-name="Ncaron" unicode="&#x147;" horiz-adv-x="742" 
d="M66 745h119l336 -443v443h155v-745h-120l-335 453v-453h-155v745zM170 983h140l62 -71l62 71h137l-122 -144h-157z" />
    <glyph glyph-name="ncaron" unicode="&#x148;" 
d="M55 546l140.002 -0.000976562v-66c14 26 34.167 45.5 60.5 58.5s57.166 19.5 92.499 19.5c40.667 0 76.667 -8.66699 108 -26s55.666 -41.666 72.999 -72.999s26 -67.333 26 -108v-351h-150v319c0 31.333 -9.16699 56.5 -27.5 75.5s-42.5 28.5 -72.5 28.5
s-54.167 -9.5 -72.5 -28.5s-27.5 -44.167 -27.5 -75.5v-319h-150v546zM99.002 783.999h140l62 -71l62 71h137l-122 -144h-157z" />
    <glyph glyph-name="Eng" unicode="&#x14a;" horiz-adv-x="742" 
d="M406 -217l0.000976562 128c11.333 -2 22.666 -3 33.999 -3c57.333 0 86 24 86 72v61l-305 412v-453h-155v745h119l336 -443v443h155v-765c0 -64 -19 -113.667 -57 -149s-91 -53 -159 -53c-21.333 0 -39.333 1.66699 -54 5z" />
    <glyph glyph-name="eng" unicode="&#x14b;" horiz-adv-x="600" 
d="M280 -217l0.00292969 127.999c11.333 -2 22.666 -3 33.999 -3c57.333 0 86 24 86 72v339c0 31.333 -9.16699 56.5 -27.5 75.5s-42.5 28.5 -72.5 28.5s-54.167 -9.5 -72.5 -28.5s-27.5 -44.167 -27.5 -75.5v-319h-150v546h140v-66c14 26 34.167 45.5 60.5 58.5
s57.166 19.5 92.499 19.5c40.667 0 76.667 -8.66699 108 -26s55.666 -41.666 72.999 -72.999s26 -67.333 26 -108v-371c0 -64 -19 -113.667 -57 -149s-91 -53 -159 -53c-21.333 0 -39.333 1.66699 -54 5z" />
    <glyph glyph-name="Omacron" unicode="&#x14c;" horiz-adv-x="878" 
d="M237.5 38.5c-60.333 33.667 -107.666 79.834 -141.999 138.501s-51.5 124 -51.5 196s17.167 137.333 51.5 196s81.666 104.667 141.999 138s127.5 50 201.5 50s141.167 -16.667 201.5 -50s107.666 -79.333 141.999 -138s51.5 -124 51.5 -196s-17.167 -137.333 -51.5 -196
s-81.666 -104.834 -141.999 -138.501s-127.5 -50.5 -201.5 -50.5s-141.167 16.833 -201.5 50.5zM230.5 246.5c21 -37 49.8291 -66 86.4961 -87s77.334 -31.5 122.001 -31.5s85.334 10.5 122.001 31.5s65.5 50 86.5 87s31.5 79.167 31.5 126.5s-10.5 89.5 -31.5 126.5
s-49.667 65.833 -86 86.5s-77.166 31 -122.499 31s-86.166 -10.333 -122.499 -31s-65 -49.5 -86 -86.5s-31.5 -79.167 -31.5 -126.5s10.5 -89.5 31.5 -126.5zM294.996 963h288v-109h-288v109z" />
    <glyph glyph-name="omacron" unicode="&#x14d;" horiz-adv-x="651" 
d="M178.5 25c-45 24.667 -80.5 58.667 -106.5 102s-39 92 -39 146s13 102.667 39 146s61.5 77.333 106.5 102s94.167 37 147.5 37s102.333 -12.333 147 -37s80 -58.667 106 -102s39 -92 39 -146s-13 -102.667 -39 -146s-61.333 -77.333 -106 -102s-93.667 -37 -147 -37
s-102.5 12.333 -147.5 37zM226.5 165c25.667 -28 58.834 -42 99.501 -42s73.667 14 99 42s38 64 38 108s-12.833 80 -38.5 108s-58.5 42 -98.5 42c-40.667 0 -73.834 -14 -99.501 -42s-38.5 -64 -38.5 -108s12.833 -80 38.5 -108zM182 764h288v-109h-288v109z" />
    <glyph glyph-name="Obreve" unicode="&#x14e;" horiz-adv-x="878" 
d="M237.5 38.5c-60.333 33.667 -107.666 79.834 -141.999 138.501s-51.5 124 -51.5 196s17.167 137.333 51.5 196s81.666 104.667 141.999 138s127.5 50 201.5 50s141.167 -16.667 201.5 -50s107.666 -79.333 141.999 -138s51.5 -124 51.5 -196s-17.167 -137.333 -51.5 -196
s-81.666 -104.834 -141.999 -138.501s-127.5 -50.5 -201.5 -50.5s-141.167 16.833 -201.5 50.5zM230.5 246.5c21 -37 49.8291 -66 86.4961 -87s77.334 -31.5 122.001 -31.5s85.334 10.5 122.001 31.5s65.5 50 86.5 87s31.5 79.167 31.5 126.5s-10.5 89.5 -31.5 126.5
s-49.667 65.833 -86 86.5s-77.166 31 -122.499 31s-86.166 -10.333 -122.499 -31s-65 -49.5 -86 -86.5s-31.5 -79.167 -31.5 -126.5s10.5 -89.5 31.5 -126.5zM354.996 859.5c-26 13.667 -46.667 32 -62 55s-23 47.5 -23 73.5h119c0 -13.333 4.66699 -24 14 -32
s21.333 -12 36 -12s26.667 4 36 12s14 18.667 14 32h119c0 -26 -7.5 -50.5 -22.5 -73.5s-35.5 -41.333 -61.5 -55s-54.333 -20.5 -85 -20.5c-30 0 -58 6.83301 -84 20.5z" />
    <glyph glyph-name="obreve" unicode="&#x14f;" horiz-adv-x="651" 
d="M178.5 25c-45 24.667 -80.5 58.667 -106.5 102s-39 92 -39 146s13 102.667 39 146s61.5 77.333 106.5 102s94.167 37 147.5 37s102.333 -12.333 147 -37s80 -58.667 106 -102s39 -92 39 -146s-13 -102.667 -39 -146s-61.333 -77.333 -106 -102s-93.667 -37 -147 -37
s-102.5 12.333 -147.5 37zM226.5 165c25.667 -28 58.834 -42 99.501 -42s73.667 14 99 42s38 64 38 108s-12.833 80 -38.5 108s-58.5 42 -98.5 42c-40.667 0 -73.834 -14 -99.501 -42s-38.5 -64 -38.5 -108s12.833 -80 38.5 -108zM242 660.5c-26 13.667 -46.667 32 -62 55
s-23 47.5 -23 73.5h119c0 -13.333 4.66699 -24 14 -32s21.333 -12 36 -12s26.667 4 36 12s14 18.667 14 32h119c0 -26 -7.5 -50.5 -22.5 -73.5s-35.5 -41.333 -61.5 -55s-54.333 -20.5 -85 -20.5c-30 0 -58 6.83301 -84 20.5z" />
    <glyph glyph-name="Ohungarumlaut" unicode="&#x150;" horiz-adv-x="878" 
d="M237.5 38.5c-60.333 33.667 -107.666 79.834 -141.999 138.501s-51.5 124 -51.5 196s17.167 137.333 51.5 196s81.666 104.667 141.999 138s127.5 50 201.5 50s141.167 -16.667 201.5 -50s107.666 -79.333 141.999 -138s51.5 -124 51.5 -196s-17.167 -137.333 -51.5 -196
s-81.666 -104.834 -141.999 -138.501s-127.5 -50.5 -201.5 -50.5s-141.167 16.833 -201.5 50.5zM230.5 246.5c21 -37 49.8291 -66 86.4961 -87s77.334 -31.5 122.001 -31.5s85.334 10.5 122.001 31.5s65.5 50 86.5 87s31.5 79.167 31.5 126.5s-10.5 89.5 -31.5 126.5
s-49.667 65.833 -86 86.5s-77.166 31 -122.499 31s-86.166 -10.333 -122.499 -31s-65 -49.5 -86 -86.5s-31.5 -79.167 -31.5 -126.5s10.5 -89.5 31.5 -126.5zM329.996 983h171l-97 -144h-132zM531.996 983h171l-97 -144h-132z" />
    <glyph glyph-name="ohungarumlaut" unicode="&#x151;" horiz-adv-x="651" 
d="M178.5 25c-45 24.667 -80.5 58.667 -106.5 102s-39 92 -39 146s13 102.667 39 146s61.5 77.333 106.5 102s94.167 37 147.5 37s102.333 -12.333 147 -37s80 -58.667 106 -102s39 -92 39 -146s-13 -102.667 -39 -146s-61.333 -77.333 -106 -102s-93.667 -37 -147 -37
s-102.5 12.333 -147.5 37zM226.5 165c25.667 -28 58.834 -42 99.501 -42s73.667 14 99 42s38 64 38 108s-12.833 80 -38.5 108s-58.5 42 -98.5 42c-40.667 0 -73.834 -14 -99.501 -42s-38.5 -64 -38.5 -108s12.833 -80 38.5 -108zM217 784h171l-97 -144h-132zM419 784h171
l-97 -144h-132z" />
    <glyph glyph-name="OE" unicode="&#x152;" horiz-adv-x="1207" 
d="M237.5 38.5c-60.333 33.667 -107.666 79.832 -141.999 138.499s-51.5 124 -51.5 196s17.167 137.333 51.5 196s81.666 104.667 141.999 138s127.5 50 201.5 50c47.333 0 91.833 -7.16699 133.5 -21.5s78.834 -35.166 111.501 -62.499v72h501v-135h-346v-169h326v-135
h-326v-171h346l-1 -135h-500v74c-32.667 -28 -69.834 -49.333 -111.501 -64s-86.167 -22 -133.5 -22c-74 0 -141.167 16.833 -201.5 50.5zM230.5 246.498c21 -37 49.8291 -66 86.4961 -87s77.334 -31.5 122.001 -31.5s85.334 10.5 122.001 31.5s65.5 50 86.5 87
s31.5 79.167 31.5 126.5s-10.5 89.5 -31.5 126.5s-49.667 65.833 -86 86.5s-77.166 31 -122.499 31s-86.166 -10.333 -122.499 -31s-65 -49.5 -86 -86.5s-31.5 -79.167 -31.5 -126.5s10.5 -89.5 31.5 -126.5z" />
    <glyph glyph-name="oe" unicode="&#x153;" horiz-adv-x="1045" 
d="M178.5 25c-45 24.667 -80.501 58.666 -106.501 101.999s-39 92 -39 146s13 102.667 39 146s61.5 77.333 106.5 102s94.167 37 147.5 37c41.333 0 80.5 -7.66699 117.5 -23s69.167 -37 96.5 -65c24.667 28 54.5 49.667 89.5 65s72.5 23 112.5 23
c56 0 104.333 -11.667 145 -35s71.667 -55.5 93 -96.5s32 -86.833 32 -137.5c0 -24.667 -2.33301 -44 -7 -58h-382c4.66699 -34.667 18.5 -62.167 41.5 -82.5s52.833 -30.5 89.5 -30.5c26 0 48.667 5.33301 68 16s34.333 25.334 45 44.001l120 -57
c-16.667 -40 -46.167 -72.167 -88.5 -96.5s-91.166 -36.5 -146.499 -36.5c-43.333 0 -83 7.66699 -119 23s-67 37 -93 65c-27.333 -28 -59.333 -49.667 -96 -65s-76 -23 -118 -23c-53.333 0 -102.5 12.333 -147.5 37zM226.499 164.999c25.667 -28 58.834 -42 99.501 -42
s73.667 14 99 42s38 64 38 108s-12.833 80 -38.5 108s-58.5 42 -98.5 42c-40.667 0 -73.834 -14 -99.501 -42s-38.5 -64 -38.5 -108s12.833 -80 38.5 -108zM852.999 340.999c-3.33301 29.333 -15 52.833 -35 70.5s-45.333 26.5 -76 26.5c-30 0 -55.167 -8.33301 -75.5 -25
s-33.833 -40.667 -40.5 -72h227z" />
    <glyph glyph-name="Racute" unicode="&#x154;" horiz-adv-x="667" 
d="M66 745l285.002 0.000976562c79.333 0 143.166 -20.667 191.499 -62s72.5 -100 72.5 -176c0 -50 -11.333 -92.833 -34 -128.5s-54.334 -62.834 -95.001 -81.501l170 -297h-174l-151 270h-110v-270h-155v745zM352.002 405.001c32.667 0 58.834 9.33203 78.501 27.999
s29.5 43.334 29.5 74.001s-9.83301 55.5 -29.5 74.5s-45.834 28.5 -78.501 28.5h-131v-205h131zM326.002 983h171l-97 -144h-132z" />
    <glyph glyph-name="racute" unicode="&#x155;" horiz-adv-x="386" 
d="M55 546h139.999v-82c13.333 32 32.333 54.667 57 68s55 20 91 20h32v-130h-47c-37.333 0 -67.166 -11.333 -89.499 -34s-33.5 -54 -33.5 -94v-294h-150v546zM206.999 784h171l-97 -144h-132z" />
    <glyph glyph-name="uni0156" unicode="&#x156;" horiz-adv-x="667" 
d="M66 745l285.002 0.000976562c79.333 0 143.166 -20.667 191.499 -62s72.5 -100 72.5 -176c0 -50 -11.333 -92.833 -34 -128.5s-54.334 -62.834 -95.001 -81.501l170 -297h-174l-151 270h-110v-270h-155v745zM352.002 405.001c32.667 0 58.834 9.33203 78.501 27.999
s29.5 43.334 29.5 74.001s-9.83301 55.5 -29.5 74.5s-45.834 28.5 -78.501 28.5h-131v-205h131zM336.002 -230h-67v150h150v-87c0 -63.333 -14.333 -114.333 -43 -153s-71 -63.667 -127 -75v75c49.333 11.333 78.333 41.333 87 90z" />
    <glyph glyph-name="uni0157" unicode="&#x157;" horiz-adv-x="386" 
d="M55 546h139.999v-82c13.333 32 32.333 54.667 57 68s55 20 91 20h32v-130h-47c-37.333 0 -67.166 -11.333 -89.499 -34s-33.5 -54 -33.5 -94v-294h-150v546zM131.999 -230h-67v150h150v-87c0 -63.333 -14.333 -114.333 -43 -153s-71 -63.667 -127 -75v75
c49.333 11.333 78.333 41.333 87 90z" />
    <glyph glyph-name="Rcaron" unicode="&#x158;" horiz-adv-x="667" 
d="M66 745l285.002 0.000976562c79.333 0 143.166 -20.667 191.499 -62s72.5 -100 72.5 -176c0 -50 -11.333 -92.833 -34 -128.5s-54.334 -62.834 -95.001 -81.501l170 -297h-174l-151 270h-110v-270h-155v745zM352.002 405.001c32.667 0 58.834 9.33203 78.501 27.999
s29.5 43.334 29.5 74.001s-9.83301 55.5 -29.5 74.5s-45.834 28.5 -78.501 28.5h-131v-205h131zM133.002 983h140l62 -71l62 71h137l-122 -144h-157z" />
    <glyph glyph-name="rcaron" unicode="&#x159;" horiz-adv-x="386" 
d="M55 546h139.999v-82c13.333 32 32.333 54.667 57 68s55 20 91 20h32v-130h-47c-37.333 0 -67.166 -11.333 -89.499 -34s-33.5 -54 -33.5 -94v-294h-150v546zM13.999 784h140l62 -71l62 71h137l-122 -144h-157z" />
    <glyph glyph-name="Sacute" unicode="&#x15a;" horiz-adv-x="647" 
d="M177 23c-44 23.333 -77.666 52.502 -100.999 87.502s-37.666 70.5 -42.999 106.5l147 37c17.333 -80.667 70.666 -121 159.999 -121c31.333 0 56.166 7 74.499 21s27.5 32.333 27.5 55c0 19.333 -6.83301 35.666 -20.5 48.999s-32.5 22.333 -56.5 27l-104 19
c-62.667 11.333 -111.834 37 -147.501 77s-53.5 90.333 -53.5 151c0 40.667 12.167 78.334 36.5 113.001s56.333 62 96 82s81.5 30 125.5 30c59.333 0 108.833 -9.83301 148.5 -29.5s69.834 -44 90.501 -73s34 -58.833 40 -89.5l-146 -44c-14 34.667 -30.667 58.5 -50 71.5
s-47 19.5 -83 19.5c-18.667 0 -35.167 -3.83301 -49.5 -11.5s-25.5 -17.334 -33.5 -29.001s-12 -23.5 -12 -35.5c0 -19.333 6 -35.333 18 -48s29.667 -21.334 53 -26.001l103 -21c67.333 -14 119.333 -41 156 -81s55 -87.667 55 -143c0 -38 -10.833 -74.667 -32.5 -110
s-53 -64 -94 -86s-89.167 -33 -144.5 -33c-62.667 0 -116 11.667 -160 35zM316.001 983.002h171l-97 -144h-132z" />
    <glyph glyph-name="sacute" unicode="&#x15b;" horiz-adv-x="515" 
d="M116.5 28.5c-43 26.333 -72.833 62.4971 -89.5 108.497l108 56c14.667 -28 33.667 -49.833 57 -65.5s49.333 -23.5 78 -23.5c22 0 39 4.33301 51 13s18 20.667 18 36c0 12 -4.66699 22.333 -14 31s-23.333 14.667 -42 18l-93 18
c-45.333 10.667 -80.833 30.834 -106.5 60.501s-38.5 64.834 -38.5 105.501c0 34 8.83301 64 26.5 90s42.667 46.167 75 60.5s69.5 21.5 111.5 21.5c50.667 0 95.334 -11.833 134.001 -35.5s67 -56.834 85 -99.501l-109 -56c-8.66699 21.333 -23.334 38.5 -44.001 51.5
s-43.667 19.5 -69 19.5c-20.667 0 -36.667 -4 -48 -12s-17 -19 -17 -33c0 -11.333 4.83301 -21.166 14.5 -29.499s25.167 -15.166 46.5 -20.499l87 -18c46.667 -12.667 82.667 -33.167 108 -61.5s38 -62.5 38 -102.5c0 -34 -9 -64 -27 -90s-43.333 -46.167 -76 -60.5
s-70.667 -21.5 -114 -21.5c-57.333 0 -107.5 13.167 -150.5 39.5zM250 783.997h171l-97 -144h-132z" />
    <glyph glyph-name="Scircumflex" unicode="&#x15c;" horiz-adv-x="647" 
d="M177 23c-44 23.333 -77.666 52.502 -100.999 87.502s-37.666 70.5 -42.999 106.5l147 37c17.333 -80.667 70.666 -121 159.999 -121c31.333 0 56.166 7 74.499 21s27.5 32.333 27.5 55c0 19.333 -6.83301 35.666 -20.5 48.999s-32.5 22.333 -56.5 27l-104 19
c-62.667 11.333 -111.834 37 -147.501 77s-53.5 90.333 -53.5 151c0 40.667 12.167 78.334 36.5 113.001s56.333 62 96 82s81.5 30 125.5 30c59.333 0 108.833 -9.83301 148.5 -29.5s69.834 -44 90.501 -73s34 -58.833 40 -89.5l-146 -44c-14 34.667 -30.667 58.5 -50 71.5
s-47 19.5 -83 19.5c-18.667 0 -35.167 -3.83301 -49.5 -11.5s-25.5 -17.334 -33.5 -29.001s-12 -23.5 -12 -35.5c0 -19.333 6 -35.333 18 -48s29.667 -21.334 53 -26.001l103 -21c67.333 -14 119.333 -41 156 -81s55 -87.667 55 -143c0 -38 -10.833 -74.667 -32.5 -110
s-53 -64 -94 -86s-89.167 -33 -144.5 -33c-62.667 0 -116 11.667 -160 35zM244.001 983.002h157l122 -144h-137l-62 71l-62 -71h-140z" />
    <glyph glyph-name="scircumflex" unicode="&#x15d;" horiz-adv-x="515" 
d="M116.5 28.5c-43 26.333 -72.833 62.4971 -89.5 108.497l108 56c14.667 -28 33.667 -49.833 57 -65.5s49.333 -23.5 78 -23.5c22 0 39 4.33301 51 13s18 20.667 18 36c0 12 -4.66699 22.333 -14 31s-23.333 14.667 -42 18l-93 18
c-45.333 10.667 -80.833 30.834 -106.5 60.501s-38.5 64.834 -38.5 105.501c0 34 8.83301 64 26.5 90s42.667 46.167 75 60.5s69.5 21.5 111.5 21.5c50.667 0 95.334 -11.833 134.001 -35.5s67 -56.834 85 -99.501l-109 -56c-8.66699 21.333 -23.334 38.5 -44.001 51.5
s-43.667 19.5 -69 19.5c-20.667 0 -36.667 -4 -48 -12s-17 -19 -17 -33c0 -11.333 4.83301 -21.166 14.5 -29.499s25.167 -15.166 46.5 -20.499l87 -18c46.667 -12.667 82.667 -33.167 108 -61.5s38 -62.5 38 -102.5c0 -34 -9 -64 -27 -90s-43.333 -46.167 -76 -60.5
s-70.667 -21.5 -114 -21.5c-57.333 0 -107.5 13.167 -150.5 39.5zM178 783.997h157l122 -144h-137l-62 71l-62 -71h-140z" />
    <glyph glyph-name="Scedilla" unicode="&#x15e;" horiz-adv-x="647" 
d="M225 -251l13.0049 76.0029c16 -5.33301 36.667 -8 62 -8c16.667 0 29.5 2.66699 38.5 8s13.5 13 13.5 23c0 18 -10.667 27 -32 27c-14.667 0 -27.334 -1.33301 -38.001 -4l-24 12l15 110c-49.333 7.33301 -91.166 23 -125.499 47s-60.833 51.5 -79.5 82.5
s-30.334 62.5 -35.001 94.5l147 37c17.333 -80.667 70.666 -121 159.999 -121c31.333 0 56.166 7 74.499 21s27.5 32.333 27.5 55c0 19.333 -6.83301 35.666 -20.5 48.999s-32.5 22.333 -56.5 27l-104 19c-62.667 11.333 -111.834 37 -147.501 77s-53.5 90.333 -53.5 151
c0 40.667 12.167 78.334 36.5 113.001s56.333 62 96 82s81.5 30 125.5 30c59.333 0 108.833 -9.83301 148.5 -29.5s69.834 -44 90.501 -73s34 -58.833 40 -89.5l-146 -44c-14 34.667 -30.667 58.5 -50 71.5s-47 19.5 -83 19.5c-18.667 0 -35.167 -3.83301 -49.5 -11.5
s-25.5 -17.334 -33.5 -29.001s-12 -23.5 -12 -35.5c0 -19.333 6 -35.333 18 -48s29.667 -21.334 53 -26.001l103 -21c67.333 -14 119.333 -41 156 -81s55 -87.667 55 -143c0 -35.333 -9.33301 -69.5 -28 -102.5s-45.834 -60.833 -81.501 -83.5
s-77.834 -36.334 -126.501 -41.001l-4 -52l13 1c27.333 0 49.5 -8 66.5 -24s25.5 -37.333 25.5 -64c0 -32.667 -13.667 -59.5 -41 -80.5s-67 -31.5 -119 -31.5c-34.667 0 -64 3.33301 -88 10z" />
    <glyph glyph-name="scedilla" unicode="&#x15f;" horiz-adv-x="515" 
d="M159 -251l13 75.9971c16 -5.33301 36.667 -8 62 -8c16.667 0 29.5 2.66699 38.5 8s13.5 13 13.5 23c0 18 -10.667 27 -32 27c-14.667 0 -27.334 -1.33301 -38.001 -4l-24 12l15 111c-43.333 8 -80.666 24.5 -111.999 49.5s-54 56.167 -68 93.5l108 56
c14.667 -28 33.667 -49.833 57 -65.5s49.333 -23.5 78 -23.5c22 0 39 4.33301 51 13s18 20.667 18 36c0 12 -4.66699 22.333 -14 31s-23.333 14.667 -42 18l-93 18c-45.333 10.667 -80.833 30.834 -106.5 60.501s-38.5 64.834 -38.5 105.501c0 34 8.83301 64 26.5 90
s42.667 46.167 75 60.5s69.5 21.5 111.5 21.5c50.667 0 95.334 -11.833 134.001 -35.5s67 -56.834 85 -99.501l-109 -56c-8.66699 21.333 -23.334 38.5 -44.001 51.5s-43.667 19.5 -69 19.5c-20.667 0 -36.667 -4 -48 -12s-17 -19 -17 -33
c0 -11.333 4.83301 -21.166 14.5 -29.499s25.167 -15.166 46.5 -20.499l87 -18c46.667 -12.667 82.667 -33.167 108 -61.5s38 -62.5 38 -102.5c0 -46 -16 -84.333 -48 -115s-75.333 -49 -130 -55l-4 -53l13 1c27.333 0 49.5 -8 66.5 -24s25.5 -37.333 25.5 -64
c0 -32.667 -13.667 -59.5 -41 -80.5s-67 -31.5 -119 -31.5c-34.667 0 -64 3.33301 -88 10z" />
    <glyph glyph-name="Scaron" unicode="&#x160;" horiz-adv-x="647" 
d="M177 23c-44 23.333 -77.666 52.502 -100.999 87.502s-37.666 70.5 -42.999 106.5l147 37c17.333 -80.667 70.666 -121 159.999 -121c31.333 0 56.166 7 74.499 21s27.5 32.333 27.5 55c0 19.333 -6.83301 35.666 -20.5 48.999s-32.5 22.333 -56.5 27l-104 19
c-62.667 11.333 -111.834 37 -147.501 77s-53.5 90.333 -53.5 151c0 40.667 12.167 78.334 36.5 113.001s56.333 62 96 82s81.5 30 125.5 30c59.333 0 108.833 -9.83301 148.5 -29.5s69.834 -44 90.501 -73s34 -58.833 40 -89.5l-146 -44c-14 34.667 -30.667 58.5 -50 71.5
s-47 19.5 -83 19.5c-18.667 0 -35.167 -3.83301 -49.5 -11.5s-25.5 -17.334 -33.5 -29.001s-12 -23.5 -12 -35.5c0 -19.333 6 -35.333 18 -48s29.667 -21.334 53 -26.001l103 -21c67.333 -14 119.333 -41 156 -81s55 -87.667 55 -143c0 -38 -10.833 -74.667 -32.5 -110
s-53 -64 -94 -86s-89.167 -33 -144.5 -33c-62.667 0 -116 11.667 -160 35zM123.001 983.002h140l62 -71l62 71h137l-122 -144h-157z" />
    <glyph glyph-name="scaron" unicode="&#x161;" horiz-adv-x="515" 
d="M116.5 28.5c-43 26.333 -72.833 62.4971 -89.5 108.497l108 56c14.667 -28 33.667 -49.833 57 -65.5s49.333 -23.5 78 -23.5c22 0 39 4.33301 51 13s18 20.667 18 36c0 12 -4.66699 22.333 -14 31s-23.333 14.667 -42 18l-93 18
c-45.333 10.667 -80.833 30.834 -106.5 60.501s-38.5 64.834 -38.5 105.501c0 34 8.83301 64 26.5 90s42.667 46.167 75 60.5s69.5 21.5 111.5 21.5c50.667 0 95.334 -11.833 134.001 -35.5s67 -56.834 85 -99.501l-109 -56c-8.66699 21.333 -23.334 38.5 -44.001 51.5
s-43.667 19.5 -69 19.5c-20.667 0 -36.667 -4 -48 -12s-17 -19 -17 -33c0 -11.333 4.83301 -21.166 14.5 -29.499s25.167 -15.166 46.5 -20.499l87 -18c46.667 -12.667 82.667 -33.167 108 -61.5s38 -62.5 38 -102.5c0 -34 -9 -64 -27 -90s-43.333 -46.167 -76 -60.5
s-70.667 -21.5 -114 -21.5c-57.333 0 -107.5 13.167 -150.5 39.5zM57 783.997h140l62 -71l62 71h137l-122 -144h-157z" />
    <glyph glyph-name="uni0162" unicode="&#x162;" horiz-adv-x="552" 
d="M200 610h-189v135h530v-135h-186v-610h-155v610zM177 -251l13.001 76c16 -5.33301 36.667 -8 62 -8c16.667 0 29.5 2.66699 38.5 8s13.5 13 13.5 23c0 18 -10.667 27 -32 27c-14.667 0 -27.334 -1.33301 -38.001 -4l-24 12l16 117h99l-5 -62l13 1
c27.333 0 49.5 -8 66.5 -24s25.5 -37.333 25.5 -64c0 -32.667 -13.667 -59.5 -41 -80.5s-67 -31.5 -119 -31.5c-34.667 0 -64 3.33301 -88 10z" />
    <glyph glyph-name="uni0163" unicode="&#x163;" horiz-adv-x="421" 
d="M212 -251l13.002 76.001c16 -5.33301 36.667 -8 62 -8c16.667 0 29.5 2.66699 38.5 8s13.5 13 13.5 23c0 18 -10.667 27 -32 27c-14.667 0 -27.334 -1.33301 -38.001 -4l-24 12l16 116c-48.667 9.33301 -86 31.166 -112 65.499s-39 78.5 -39 132.5v219h-92v130h5
c28 0 49.5 7 64.5 21s22.5 35 22.5 63v40h150v-124h128v-130h-128v-209c0 -28 7.66699 -48.833 23 -62.5s38.666 -20.5 69.999 -20.5c9.33301 0 21 1 35 3v-128l-28 -3l-5 -58l13 1c27.333 0 49.5 -8 66.5 -24s25.5 -37.333 25.5 -64c0 -32.667 -13.667 -59.5 -41 -80.5
s-67 -31.5 -119 -31.5c-34.667 0 -64 3.33301 -88 10z" />
    <glyph glyph-name="Tcaron" unicode="&#x164;" horiz-adv-x="552" 
d="M200 610h-189v135h530v-135h-186v-610h-155v610zM75 983h140l62 -71l62 71h137l-122 -144h-157z" />
    <glyph glyph-name="tcaron" unicode="&#x165;" horiz-adv-x="523" 
d="M164.5 47.5c-36.333 35.667 -54.499 85.5 -54.499 149.5v219h-92v130h5c28 0 49.5 7 64.5 21s22.5 35 22.5 63v40h150v-124h128v-130h-128v-209c0 -28 7.66699 -48.833 23 -62.5s38.666 -20.5 69.999 -20.5c9.33301 0 21 1 35 3v-128c-22 -3.33301 -45.333 -5 -70 -5
c-66 0 -117.167 17.833 -153.5 53.5zM344.001 826h162l-21 -184h-120z" />
    <glyph glyph-name="Tbar" unicode="&#x166;" horiz-adv-x="552" 
d="M200 328h-149v90h149v192h-189v135h530v-135h-186v-192h146v-90h-146v-328h-155v328z" />
    <glyph glyph-name="tbar" unicode="&#x167;" horiz-adv-x="421" 
d="M164.5 47.5c-36.333 35.667 -54.499 85.5 -54.499 149.5v11h-91v130h91v78h-92v130h5c28 0 49.5 7 64.5 21s22.5 35 22.5 63v40h150v-124h128v-130h-128v-78h129v-130h-129v-1c0 -28 7.66699 -48.833 23 -62.5s38.666 -20.5 69.999 -20.5c9.33301 0 21 1 35 3v-128
c-22 -3.33301 -45.333 -5 -70 -5c-66 0 -117.167 17.833 -153.5 53.5z" />
    <glyph glyph-name="Utilde" unicode="&#x168;" horiz-adv-x="724" 
d="M205.5 25c-46.333 24.667 -82.666 58.667 -108.999 102s-39.5 92 -39.5 146v472h155v-462c0 -44.667 14.167 -81.667 42.5 -111s64.166 -44 107.499 -44s79.166 14.667 107.499 44s42.5 66.333 42.5 111v462h155v-472c0 -54 -13.167 -102.667 -39.5 -146
s-62.666 -77.333 -108.999 -102s-98.5 -37 -156.5 -37s-110.167 12.333 -156.5 37zM396.5 848.5c-11 5 -23.832 12.498 -38.499 22.498c-8.66699 6.66699 -15.667 11.5 -21 14.5s-11.333 4.5 -18 4.5c-10.667 0 -18.334 -4 -23.001 -12s-7.66699 -19 -9 -33h-93
c0 50.667 9.33301 87.5 28 110.5s43.334 34.5 74.001 34.5c15.333 0 28.333 -2.66699 39 -8s21.667 -12.666 33 -21.999c8.66699 -6.66699 15.667 -11.5 21 -14.5s11.333 -4.5 18 -4.5c9.33301 0 16.666 4.33301 21.999 13s8 19 8 31h93
c0.666992 -51.333 -6.83301 -88.166 -22.5 -110.499s-38.5 -33.5 -68.5 -33.5c-17.333 0 -31.5 2.5 -42.5 7.5z" />
    <glyph glyph-name="utilde" unicode="&#x169;" 
d="M98.5 49.5c-36.333 41 -54.502 96.167 -54.502 165.5v331h150v-319c0 -31.333 9.16699 -56.5 27.5 -75.5s42.5 -28.5 72.5 -28.5s54.167 9.5 72.5 28.5s27.5 44.167 27.5 75.5v319h150v-546h-140v66c-14 -26 -34.167 -45.5 -60.5 -58.5s-57.166 -19.5 -92.499 -19.5
c-65.333 0 -116.166 20.5 -152.499 61.5zM334.498 649.5c-11 5 -23.832 12.498 -38.499 22.498c-8.66699 6.66699 -15.667 11.5 -21 14.5s-11.333 4.5 -18 4.5c-10.667 0 -18.334 -4 -23.001 -12s-7.66699 -19 -9 -33h-93c0 50.667 9.33301 87.5 28 110.5
s43.334 34.5 74.001 34.5c15.333 0 28.333 -2.66699 39 -8s21.667 -12.666 33 -21.999c8.66699 -6.66699 15.667 -11.5 21 -14.5s11.333 -4.5 18 -4.5c9.33301 0 16.666 4.33301 21.999 13s8 19 8 31h93c0.666992 -51.333 -6.83301 -88.166 -22.5 -110.499
s-38.5 -33.5 -68.5 -33.5c-17.333 0 -31.5 2.5 -42.5 7.5z" />
    <glyph glyph-name="Umacron" unicode="&#x16a;" horiz-adv-x="724" 
d="M205.5 25c-46.333 24.667 -82.666 58.667 -108.999 102s-39.5 92 -39.5 146v472h155v-462c0 -44.667 14.167 -81.667 42.5 -111s64.166 -44 107.499 -44s79.166 14.667 107.499 44s42.5 66.333 42.5 111v462h155v-472c0 -54 -13.167 -102.667 -39.5 -146
s-62.666 -77.333 -108.999 -102s-98.5 -37 -156.5 -37s-110.167 12.333 -156.5 37zM218 963h288v-109h-288v109z" />
    <glyph glyph-name="umacron" unicode="&#x16b;" 
d="M98.5 49.5c-36.333 41 -54.502 96.167 -54.502 165.5v331h150v-319c0 -31.333 9.16699 -56.5 27.5 -75.5s42.5 -28.5 72.5 -28.5s54.167 9.5 72.5 28.5s27.5 44.167 27.5 75.5v319h150v-546h-140v66c-14 -26 -34.167 -45.5 -60.5 -58.5s-57.166 -19.5 -92.499 -19.5
c-65.333 0 -116.166 20.5 -152.499 61.5zM155.998 764h288v-109h-288v109z" />
    <glyph glyph-name="Ubreve" unicode="&#x16c;" horiz-adv-x="724" 
d="M205.5 25c-46.333 24.667 -82.666 58.667 -108.999 102s-39.5 92 -39.5 146v472h155v-462c0 -44.667 14.167 -81.667 42.5 -111s64.166 -44 107.499 -44s79.166 14.667 107.499 44s42.5 66.333 42.5 111v462h155v-472c0 -54 -13.167 -102.667 -39.5 -146
s-62.666 -77.333 -108.999 -102s-98.5 -37 -156.5 -37s-110.167 12.333 -156.5 37zM278 859.5c-26 13.667 -46.667 32 -62 55s-23 47.5 -23 73.5h119c0 -13.333 4.66699 -24 14 -32s21.333 -12 36 -12s26.667 4 36 12s14 18.667 14 32h119c0 -26 -7.5 -50.5 -22.5 -73.5
s-35.5 -41.333 -61.5 -55s-54.333 -20.5 -85 -20.5c-30 0 -58 6.83301 -84 20.5z" />
    <glyph glyph-name="ubreve" unicode="&#x16d;" 
d="M98.5 49.5c-36.333 41 -54.502 96.167 -54.502 165.5v331h150v-319c0 -31.333 9.16699 -56.5 27.5 -75.5s42.5 -28.5 72.5 -28.5s54.167 9.5 72.5 28.5s27.5 44.167 27.5 75.5v319h150v-546h-140v66c-14 -26 -34.167 -45.5 -60.5 -58.5s-57.166 -19.5 -92.499 -19.5
c-65.333 0 -116.166 20.5 -152.499 61.5zM215.998 660.5c-26 13.667 -46.667 32 -62 55s-23 47.5 -23 73.5h119c0 -13.333 4.66699 -24 14 -32s21.333 -12 36 -12s26.667 4 36 12s14 18.667 14 32h119c0 -26 -7.5 -50.5 -22.5 -73.5s-35.5 -41.333 -61.5 -55
s-54.333 -20.5 -85 -20.5c-30 0 -58 6.83301 -84 20.5z" />
    <glyph glyph-name="Uring" unicode="&#x16e;" horiz-adv-x="724" 
d="M205.5 25c-46.333 24.667 -82.666 58.667 -108.999 102s-39.5 92 -39.5 146v472h155v-462c0 -44.667 14.167 -81.667 42.5 -111s64.166 -44 107.499 -44s79.166 14.667 107.499 44s42.5 66.333 42.5 111v462h155v-472c0 -54 -13.167 -102.667 -39.5 -146
s-62.666 -77.333 -108.999 -102s-98.5 -37 -156.5 -37s-110.167 12.333 -156.5 37zM270 816.5c-25.333 25 -38 55.167 -38 90.5s12.667 65.5 38 90.5s56.333 37.5 93 37.5c36 0 66.5 -12.5 91.5 -37.5s37.5 -55.167 37.5 -90.5s-12.5 -65.5 -37.5 -90.5
s-55.5 -37.5 -91.5 -37.5c-36.667 0 -67.667 12.5 -93 37.5zM326.5 871.5c9.66699 -9.66699 21.834 -14.5 36.501 -14.5c14 0 25.667 4.83301 35 14.5s14 21.5 14 35.5s-4.66699 25.833 -14 35.5s-21 14.5 -35 14.5c-14.667 0 -26.834 -4.83301 -36.501 -14.5
s-14.5 -21.5 -14.5 -35.5s4.83301 -25.833 14.5 -35.5z" />
    <glyph glyph-name="uring" unicode="&#x16f;" 
d="M98.5 49.5c-36.333 41 -54.502 96.167 -54.502 165.5v331h150v-319c0 -31.333 9.16699 -56.5 27.5 -75.5s42.5 -28.5 72.5 -28.5s54.167 9.5 72.5 28.5s27.5 44.167 27.5 75.5v319h150v-546h-140v66c-14 -26 -34.167 -45.5 -60.5 -58.5s-57.166 -19.5 -92.499 -19.5
c-65.333 0 -116.166 20.5 -152.499 61.5zM207.998 617.5c-25.333 25 -38 55.167 -38 90.5s12.667 65.5 38 90.5s56.333 37.5 93 37.5c36 0 66.5 -12.5 91.5 -37.5s37.5 -55.167 37.5 -90.5s-12.5 -65.5 -37.5 -90.5s-55.5 -37.5 -91.5 -37.5
c-36.667 0 -67.667 12.5 -93 37.5zM264.498 672.5c9.66699 -9.66699 21.834 -14.5 36.501 -14.5c14 0 25.667 4.83301 35 14.5s14 21.5 14 35.5s-4.66699 25.833 -14 35.5s-21 14.5 -35 14.5c-14.667 0 -26.834 -4.83301 -36.501 -14.5s-14.5 -21.5 -14.5 -35.5
s4.83301 -25.833 14.5 -35.5z" />
    <glyph glyph-name="Uhungarumlaut" unicode="&#x170;" horiz-adv-x="724" 
d="M205.5 25c-46.333 24.667 -82.666 58.667 -108.999 102s-39.5 92 -39.5 146v472h155v-462c0 -44.667 14.167 -81.667 42.5 -111s64.166 -44 107.499 -44s79.166 14.667 107.499 44s42.5 66.333 42.5 111v462h155v-472c0 -54 -13.167 -102.667 -39.5 -146
s-62.666 -77.333 -108.999 -102s-98.5 -37 -156.5 -37s-110.167 12.333 -156.5 37zM253 983h171l-97 -144h-132zM455 983h171l-97 -144h-132z" />
    <glyph glyph-name="uhungarumlaut" unicode="&#x171;" 
d="M98.5 49.5c-36.333 41 -54.502 96.167 -54.502 165.5v331h150v-319c0 -31.333 9.16699 -56.5 27.5 -75.5s42.5 -28.5 72.5 -28.5s54.167 9.5 72.5 28.5s27.5 44.167 27.5 75.5v319h150v-546h-140v66c-14 -26 -34.167 -45.5 -60.5 -58.5s-57.166 -19.5 -92.499 -19.5
c-65.333 0 -116.166 20.5 -152.499 61.5zM190.998 784h171l-97 -144h-132zM392.998 784h171l-97 -144h-132z" />
    <glyph glyph-name="Uogonek" unicode="&#x172;" horiz-adv-x="724" 
d="M264 -181c-30.667 21.333 -45.9971 50.666 -45.9971 87.999c0 36.667 15 68.334 45 95.001c-62 18 -111.833 51.5 -149.5 100.5s-56.5 105.833 -56.5 170.5v472h155v-462c0 -44.667 14.167 -81.667 42.5 -111s64.166 -44 107.499 -44s79.166 14.667 107.499 44
s42.5 66.333 42.5 111v462h155v-472c0 -52.667 -12.833 -100.5 -38.5 -143.5s-61 -77 -106 -102s-95.833 -38.167 -152.5 -39.5c-24.667 -14 -37 -30.667 -37 -50c0 -13.333 5.5 -24.333 16.5 -33s26.5 -13 46.5 -13c29.333 0 60.333 9.66699 93 29l45 -79
c-46.667 -36.667 -98 -55 -154 -55c-46.667 0 -85.334 10.667 -116.001 32z" />
    <glyph glyph-name="uogonek" unicode="&#x173;" 
d="M98.5 49.5c-36.333 41 -54.501 96.1689 -54.501 165.502v331h150v-319c0 -31.333 9.16699 -56.5 27.5 -75.5s42.5 -28.5 72.5 -28.5s54.167 9.5 72.5 28.5s27.5 44.167 27.5 75.5v319h150v-546h-29c-64 -14.667 -96 -38.334 -96 -71.001c0 -13.333 5.5 -24.333 16.5 -33
s26.5 -13 46.5 -13c29.333 0 60.333 9.66699 93 29l45 -79c-46.667 -36.667 -98 -55 -154 -55c-46.667 0 -85.334 10.667 -116.001 32s-46 50.666 -46 87.999c0 28.667 9.16699 54 27.5 76s42.5 39 72.5 51v41c-14 -26 -34.167 -45.5 -60.5 -58.5
s-57.166 -19.5 -92.499 -19.5c-65.333 0 -116.166 20.5 -152.499 61.5z" />
    <glyph glyph-name="Wcircumflex" unicode="&#x174;" horiz-adv-x="1032" 
d="M11 745h168l125 -531l132 531h160l132 -531l125 531h168l-195 -745h-180l-130 500l-130 -500h-180zM436 983h157l122 -144h-137l-62 71l-62 -71h-140z" />
    <glyph glyph-name="wcircumflex" unicode="&#x175;" horiz-adv-x="912" 
d="M11 546h155l106 -317l119 317h130l118 -317l106 317h156l-189 -546h-130l-126 350l-127 -350h-130zM376 784h157l122 -144h-137l-62 71l-62 -71h-140z" />
    <glyph glyph-name="Ycircumflex" unicode="&#x176;" horiz-adv-x="672" 
d="M259 325l-248 420h177l148 -261l148 261h177l-247 -419v-326h-155v325zM256 983h157l122 -144h-137l-62 71l-62 -71h-140z" />
    <glyph glyph-name="ycircumflex" unicode="&#x177;" horiz-adv-x="602" 
d="M221 784h157l122 -144h-137l-62 71l-62 -71h-140z" />
    <glyph glyph-name="Ydieresis" unicode="&#x178;" horiz-adv-x="672" 
d="M259 325l-248 420h177l148 -261l148 261h177l-247 -419v-326h-155v325zM179 862c-15.333 15.333 -23 33.667 -23 55s7.66699 39.5 23 54.5s33.666 22.5 54.999 22.5s39.5 -7.5 54.5 -22.5s22.5 -33.167 22.5 -54.5c0 -22 -7.5 -40.5 -22.5 -55.5
s-33.167 -22.5 -54.5 -22.5s-39.666 7.66699 -54.999 23zM384 971.501c15.333 15 33.666 22.501 54.999 22.501s39.5 -7.5 54.5 -22.5s22.5 -33.167 22.5 -54.5c0 -22 -7.5 -40.5 -22.5 -55.5s-33.167 -22.5 -54.5 -22.5s-39.666 7.66699 -54.999 23s-23 33.666 -23 54.999
s7.66699 39.5 23 54.5z" />
    <glyph glyph-name="Zacute" unicode="&#x179;" horiz-adv-x="567" 
d="M11 125l339 485h-319v135h515v-125l-338 -485h348v-135h-545v125zM276 983h171l-97 -144h-132z" />
    <glyph glyph-name="zacute" unicode="&#x17a;" horiz-adv-x="492" 
d="M11 120l269 296h-256v130h456v-120l-261 -296h262v-130h-470v120zM244 784h171l-97 -144h-132z" />
    <glyph glyph-name="Zdotaccent" unicode="&#x17b;" horiz-adv-x="567" 
d="M11 125l339 485h-319v135h515v-125l-338 -485h348v-135h-545v125zM229 862c-15.333 15.333 -23 33.667 -23 55s7.66699 39.5 23 54.5s33.666 22.5 54.999 22.5s39.5 -7.5 54.5 -22.5s22.5 -33.167 22.5 -54.5c0 -22 -7.5 -40.5 -22.5 -55.5s-33.167 -22.5 -54.5 -22.5
s-39.666 7.66699 -54.999 23z" />
    <glyph glyph-name="zdotaccent" unicode="&#x17c;" horiz-adv-x="492" 
d="M11 120l269 296h-256v130h456v-120l-261 -296h262v-130h-470v120zM197 663c-15.333 15.333 -23 33.667 -23 55s7.66699 39.5 23 54.5s33.666 22.5 54.999 22.5s39.5 -7.5 54.5 -22.5s22.5 -33.167 22.5 -54.5c0 -22 -7.5 -40.5 -22.5 -55.5s-33.167 -22.5 -54.5 -22.5
s-39.666 7.66699 -54.999 23z" />
    <glyph glyph-name="Zcaron" unicode="&#x17d;" horiz-adv-x="567" 
d="M11 125l339 485h-319v135h515v-125l-338 -485h348v-135h-545v125zM83 983h140l62 -71l62 71h137l-122 -144h-157z" />
    <glyph glyph-name="zcaron" unicode="&#x17e;" horiz-adv-x="492" 
d="M11 120l269 296h-256v130h456v-120l-261 -296h262v-130h-470v120zM51 784h140l62 -71l62 71h137l-122 -144h-157z" />
    <glyph glyph-name="uni018F" unicode="&#x18f;" horiz-adv-x="808" 
d="M213.5 33.5c-53 30.333 -94.4971 72.667 -124.497 127s-45 116.5 -45 186.5c0 26 2.33301 49.333 7 70h556c-6.66699 60 -30.334 108.333 -71.001 145s-91.667 55 -153 55c-40.667 0 -76.667 -8.5 -108 -25.5s-56 -41.5 -74 -73.5l-127 61
c23.333 54 63.166 97.167 119.499 129.5s120.166 48.5 191.499 48.5c73.333 0 138.833 -17.167 196.5 -51.5s102.5 -81 134.5 -140s48 -124.167 48 -195.5c0 -72 -16 -137 -48 -195s-76.167 -103.667 -132.5 -137s-119.5 -50 -189.5 -50
c-67.333 0 -127.5 15.167 -180.5 45.5zM269.003 175.501c34.667 -31.667 78 -47.5 130 -47.5c51.333 0 95.5 15 132.5 45s60.833 71.333 71.5 124h-391c3.33301 -49.333 22.333 -89.833 57 -121.5z" />
    <glyph glyph-name="florin" unicode="&#x192;" horiz-adv-x="597" 
d="M106 -7v128c13.333 -2 24.333 -3 33 -3c28.667 0 50 7.16699 64 21.5s21 38.166 21 71.499v97h-117v130h117v107c0 70 18.833 122.833 56.5 158.5s90.5 53.5 158.5 53.5c20 0 37.667 -1.66699 53 -5v-128c-12.667 2 -23.667 3 -33 3c-28.667 0 -50 -7.16699 -64 -21.5
s-21 -38.166 -21 -71.499v-96h117v-130h-117v-108c0 -70 -18.833 -122.833 -56.5 -158.5s-90.5 -53.5 -158.5 -53.5c-20 0 -37.667 1.66699 -53 5z" />
    <glyph glyph-name="Ohorn" unicode="&#x1a0;" horiz-adv-x="878" 
d="M237.5 38.5c-60.333 33.667 -107.667 79.834 -142 138.501s-51.5 124 -51.5 196s17.167 137.333 51.5 196s81.666 104.667 141.999 138s127.5 50 201.5 50h200c12.667 0 23.667 2.66699 33 8s14 19 14 41c0 17.333 -6.66699 42.666 -20 75.999h126
c8 -16.667 13.833 -31.5 17.5 -44.5s5.5 -27.833 5.5 -44.5c0 -38 -9.33301 -68.167 -28 -90.5s-44.667 -37.166 -78 -44.499c39.333 -35.333 70 -77.333 92 -126s33 -101.667 33 -159c0 -72 -17.167 -137.333 -51.5 -196s-81.666 -104.834 -141.999 -138.501
s-127.5 -50.5 -201.5 -50.5s-141.167 16.833 -201.5 50.5zM230.499 246.5c21 -37 49.8291 -66 86.4961 -87s77.334 -31.5 122.001 -31.5s85.334 10.5 122.001 31.5s65.5 50 86.5 87s31.5 79.167 31.5 126.5s-10.5 89.5 -31.5 126.5s-49.667 65.833 -86 86.5
s-77.166 31 -122.499 31s-86.166 -10.333 -122.499 -31s-65 -49.5 -86 -86.5s-31.5 -79.167 -31.5 -126.5s10.5 -89.5 31.5 -126.5z" />
    <glyph glyph-name="ohorn" unicode="&#x1a1;" horiz-adv-x="651" 
d="M178.5 25c-45 24.667 -80.5 58.6689 -106.5 102.002s-39 92 -39 146s13 102.667 39 146s61.5 77.333 106.5 102s94.167 37 147.5 37h104c12.667 0 23.667 2.66699 33 8s14 19 14 41c0 17.333 -6.66699 42.666 -20 75.999h126c8 -16.667 13.833 -31.5 17.5 -44.5
s5.5 -27.833 5.5 -44.5c0 -58.667 -22.667 -99.334 -68 -122.001c25.333 -26 45 -55.833 59 -89.5s21 -70.167 21 -109.5c0 -54 -13 -102.667 -39 -146s-61.333 -77.333 -106 -102s-93.667 -37 -147 -37s-102.5 12.333 -147.5 37zM226.5 165.002
c25.667 -28 58.834 -42 99.501 -42s73.667 14 99 42s38 64 38 108s-12.833 80 -38.5 108s-58.5 42 -98.5 42c-40.667 0 -73.834 -14 -99.501 -42s-38.5 -64 -38.5 -108s12.833 -80 38.5 -108z" />
    <glyph glyph-name="Uhorn" unicode="&#x1af;" horiz-adv-x="724" 
d="M205.5 25c-46.333 24.667 -82.666 58.668 -108.999 102.001s-39.5 92 -39.5 146v472h155v-462c0 -44.667 14.167 -81.667 42.5 -111s64.166 -44 107.499 -44s79.166 14.667 107.499 44s42.5 66.333 42.5 111v462h136c26.667 0 40 16.333 40 49
c0 17.333 -6.66699 42.666 -20 75.999h126c8 -16.667 13.833 -31.5 17.5 -44.5s5.5 -27.833 5.5 -44.5c0 -46 -13.5 -80.5 -40.5 -103.5s-63.5 -34.833 -109.5 -35.5v-369c0 -54 -13.167 -102.667 -39.5 -146s-62.666 -77.333 -108.999 -102s-98.5 -37 -156.5 -37
s-110.167 12.333 -156.5 37z" />
    <glyph glyph-name="uhorn" unicode="&#x1b0;" horiz-adv-x="681" 
d="M98.5 49.5c-36.333 41 -54.502 96.168 -54.502 165.501v331h150v-319c0 -31.333 9.16699 -56.5 27.5 -75.5s42.5 -28.5 72.5 -28.5s54.167 9.5 72.5 28.5s27.5 44.167 27.5 75.5v319h111c26.667 0 40 16.333 40 49c0 17.333 -6.66699 42.666 -20 75.999h126
c8 -16.667 13.833 -31.5 17.5 -44.5s5.5 -27.833 5.5 -44.5c0 -42.667 -11.5 -75.5 -34.5 -98.5s-54.833 -36.167 -95.5 -39.5v-444h-140v66c-14 -26 -34.167 -45.5 -60.5 -58.5s-57.166 -19.5 -92.499 -19.5c-65.333 0 -116.166 20.5 -152.499 61.5z" />
    <glyph glyph-name="uni01C4" unicode="&#x1c4;" horiz-adv-x="1306" 
d="M66 745h243c79.333 0 149 -15.833 209 -47.5s106.333 -75.667 139 -132s49 -120.5 49 -192.5s-16.333 -136.167 -49 -192.5s-79.167 -100.5 -139.5 -132.5s-129.833 -48 -208.5 -48h-243v745zM313 135c48 0 90 9.66699 126 29s63.667 47 83 83s29 78 29 126
s-9.66699 89.833 -29 125.5s-47 63.167 -83 82.5s-78 29 -126 29h-92v-475h92zM750 125l339 485h-319v135h515v-125l-338 -485h348v-135h-545v125zM962 983l62 -71l62 71h137l-122 -144h-157l-122 144h140z" />
    <glyph glyph-name="uni01C5" unicode="&#x1c5;" horiz-adv-x="1231" 
d="M66 745h243c79.333 0 149 -15.833 209 -47.5s106.333 -75.667 139 -132s49 -120.5 49 -192.5s-16.333 -136.167 -49 -192.5s-79.167 -100.5 -139.5 -132.5s-129.833 -48 -208.5 -48h-243v745zM313 135c48 0 90 9.66699 126 29s63.667 47 83 83s29 78 29 126
s-9.66699 89.833 -29 125.5s-47 63.167 -83 82.5s-78 29 -126 29h-92v-475h92zM750 120l269 296h-256v130h456v-120l-261 -296h262v-130h-470v120zM930 784l62 -71l62 71h137l-122 -144h-157l-122 144h140z" />
    <glyph glyph-name="uni01C6" unicode="&#x1c6;" horiz-adv-x="1165" 
d="M169.5 26c-42.333 25.333 -75.666 59.668 -99.999 103.001s-36.5 91.333 -36.5 144s12.333 100.667 37 144s58.167 77.666 100.5 102.999s89.166 38 140.499 38c32 0 61.5 -5 88.5 -15s49.833 -24.333 68.5 -43v245h150v-745h-140v52
c-19.333 -20.667 -43.333 -36.5 -72 -47.5s-60 -16.5 -94 -16.5c-52.667 0 -100.167 12.667 -142.5 38zM228 165.002c26.667 -28 60.667 -42.002 102 -42.002c40.667 0 73.834 13.833 99.501 41.5s38.5 63.834 38.5 108.501c0 44 -12.833 80 -38.5 108
s-58.834 42 -99.501 42c-41.333 0 -75.333 -14.167 -102 -42.5s-40 -64.166 -40 -107.499c0 -44 13.333 -80 40 -108zM684 120l269 296h-256v130h456v-120l-261 -296h262v-130h-470v120zM864 784l62 -71l62 71h137l-122 -144h-157l-122 144h140z" />
    <glyph glyph-name="uni01C7" unicode="&#x1c7;" horiz-adv-x="1172" 
d="M66 745h155v-610h315v-135h-470v745zM661.5 41.5c-48.333 35.667 -78.8359 84.832 -91.5029 147.499l144 39c8.66699 -32 24.167 -56.667 46.5 -74s49.5 -26 81.5 -26c35.333 0 62.833 10.333 82.5 31s29.5 49.334 29.5 86.001v500h155v-500
c0 -49.333 -10.667 -93.5 -32 -132.5s-52.166 -69.5 -92.499 -91.5s-88.166 -33 -143.499 -33c-71.333 0 -131.166 17.833 -179.499 53.5z" />
    <glyph glyph-name="uni01C8" unicode="&#x1c8;" horiz-adv-x="807" 
d="M66 745h155v-610h315v-135h-470v745zM482 -217v128c10.667 -2 22 -3 34 -3c57.333 0 86 24 86 72v566h150v-566c0 -64 -19 -113.667 -57 -149s-91 -53 -159 -53c-21.333 0 -39.333 1.66699 -54 5zM615 762.5c14.667 14.333 35.334 21.498 62.001 21.498
c27.333 0 48.166 -7.16699 62.499 -21.5s21.5 -35.166 21.5 -62.499s-7.16699 -48.166 -21.5 -62.499s-35.166 -21.5 -62.499 -21.5c-26.667 0 -47.334 7.33301 -62.001 22s-22 35.334 -22 62.001c0 27.333 7.33301 48.166 22 62.499z" />
    <glyph glyph-name="uni01C9" unicode="&#x1c9;" horiz-adv-x="520" 
d="M55 757h150v-757h-150v757zM195 -217v128c10.667 -2 22 -3 34 -3c57.333 0 86 24 86 72v566h150v-566c0 -64 -19 -113.667 -57 -149s-91 -53 -159 -53c-21.333 0 -39.333 1.66699 -54 5zM328 762.5c14.667 14.333 35.334 21.498 62.001 21.498
c27.333 0 48.166 -7.16699 62.499 -21.5s21.5 -35.166 21.5 -62.499s-7.16699 -48.166 -21.5 -62.499s-35.166 -21.5 -62.499 -21.5c-26.667 0 -47.334 7.33301 -62.001 22s-22 35.334 -22 62.001c0 27.333 7.33301 48.166 22 62.499z" />
    <glyph glyph-name="uni01CA" unicode="&#x1ca;" horiz-adv-x="1138" 
d="M66 745h119l336 -443v443h155v-745h-120l-335 453v-453h-155v745zM775 140h44.999c30 0 54.167 8.5 72.5 25.5s27.5 39.5 27.5 67.5v512h155v-505c0 -48 -10.5 -90 -31.5 -126s-50.667 -64 -89 -84s-83.166 -30 -134.499 -30h-45v140z" />
    <glyph glyph-name="uni01CB" unicode="&#x1cb;" horiz-adv-x="1002" 
d="M66 745h119l336 -443v443h155v-745h-120l-335 453v-453h-155v745zM677 -217v128c10.667 -2 22 -3 34 -3c57.333 0 86 24 86 72v566h150v-566c0 -64 -19 -113.667 -57 -149s-91 -53 -159 -53c-21.333 0 -39.333 1.66699 -54 5zM810 762.5
c14.667 14.333 35.334 21.498 62.001 21.498c27.333 0 48.166 -7.16699 62.499 -21.5s21.5 -35.166 21.5 -62.499s-7.16699 -48.166 -21.5 -62.499s-35.166 -21.5 -62.499 -21.5c-26.667 0 -47.334 7.33301 -62.001 22s-22 35.334 -22 62.001
c0 27.333 7.33301 48.166 22 62.499z" />
    <glyph glyph-name="uni01CC" unicode="&#x1cc;" horiz-adv-x="859" 
d="M55 546l140.002 -0.000976562v-66c14 26 34.167 45.5 60.5 58.5s57.166 19.5 92.499 19.5c40.667 0 76.667 -8.66699 108 -26s55.666 -41.666 72.999 -72.999s26 -67.333 26 -108v-351h-150v319c0 31.333 -9.16699 56.5 -27.5 75.5s-42.5 28.5 -72.5 28.5
s-54.167 -9.5 -72.5 -28.5s-27.5 -44.167 -27.5 -75.5v-319h-150v546zM534.002 -217.001v128c10.667 -2 22 -3 34 -3c57.333 0 86 24 86 72v566h150v-566c0 -64 -19 -113.667 -57 -149s-91 -53 -159 -53c-21.333 0 -39.333 1.66699 -54 5zM667.002 762.499
c14.667 14.333 35.334 21.498 62.001 21.498c27.333 0 48.166 -7.16699 62.499 -21.5s21.5 -35.166 21.5 -62.499s-7.16699 -48.166 -21.5 -62.499s-35.166 -21.5 -62.499 -21.5c-26.667 0 -47.334 7.33301 -62.001 22s-22 35.334 -22 62.001
c0 27.333 7.33301 48.166 22 62.499z" />
    <glyph glyph-name="Gcaron" unicode="&#x1e6;" horiz-adv-x="804" 
d="M231 38c-58 33.333 -103.668 79.3311 -137.001 137.998s-50 124.334 -50 197.001s16.333 138.334 49 197.001s77.5 104.5 134.5 137.5s121.167 49.5 192.5 49.5c52 0 99.833 -8.83301 143.5 -26.5s80.5 -41.5 110.5 -71.5s51.667 -63.667 65 -101l-137 -66
c-13.333 37.333 -36 67.5 -68 90.5s-70 34.5 -114 34.5c-43.333 0 -81.833 -10.167 -115.5 -30.5s-59.667 -49 -78 -86s-27.5 -79.5 -27.5 -127.5s9.5 -90.5 28.5 -127.5s45.667 -65.833 80 -86.5s73.166 -31 116.499 -31c34.667 0 66.834 6.66699 96.501 20
s53.5 32.5 71.5 57.5s27 54.167 27 87.5v2h-199v130h354v-79c0 -77.333 -16.667 -143 -50 -197s-76.666 -94.333 -129.999 -121s-110 -40 -170 -40c-70.667 0 -135 16.667 -193 50zM200.999 982.998h140l62 -71l62 71h137l-122 -144h-157z" />
    <glyph glyph-name="gcaron" unicode="&#x1e7;" horiz-adv-x="648" 
d="M156 -174.5c-48 30.333 -80.666 71.167 -97.999 122.5l139 49c7.33301 -25.333 22.333 -45.333 45 -60s49.667 -22 81 -22c37.333 0 66.666 10.167 87.999 30.5s32 48.166 32 83.499v52c-36 -36 -84.667 -54 -146 -54c-50 0 -95.167 11.5 -135.5 34.5
s-71.833 54.833 -94.5 95.5s-34 86.334 -34 137.001c0 50 11.167 95.167 33.5 135.5s53.333 71.833 93 94.5s84.5 34 134.5 34c67.333 0 120.333 -23 159 -69v57h140v-517c0 -48 -11.5 -90.833 -34.5 -128.5s-55 -67.167 -96 -88.5s-87.5 -32 -139.5 -32
c-63.333 0 -119 15.167 -167 45.5zM224.501 199.001c24.333 -24 55.5 -36.001 93.5 -36.001c37.333 0 67.5 11.833 90.5 35.5s34.5 54.834 34.5 93.501s-11.5 70.167 -34.5 94.5s-53.167 36.5 -90.5 36.5c-38 0 -69.167 -12.167 -93.5 -36.5s-36.5 -55.833 -36.5 -94.5
c0 -38 12.167 -69 36.5 -93zM123.001 784h140l62 -71l62 71h137l-122 -144h-157z" />
    <glyph glyph-name="uni01EA" unicode="&#x1ea;" horiz-adv-x="878" 
d="M561 159.5c36.667 21 65.4961 50 86.4961 87s31.5 79.167 31.5 126.5s-10.5 89.5 -31.5 126.5s-49.667 65.833 -86 86.5s-77.166 31 -122.499 31s-86.166 -10.333 -122.499 -31s-65 -49.5 -86 -86.5s-31.5 -79.167 -31.5 -126.5s10.5 -89.5 31.5 -126.5
s49.833 -66 86.5 -87s77.334 -31.5 122.001 -31.5s85.334 10.5 122.001 31.5zM95.4961 569c34.333 58.667 81.668 104.668 142.001 138.001s127.5 50 201.5 50s141.167 -16.667 201.5 -50s107.666 -79.333 141.999 -138s51.5 -124 51.5 -196c0 -64.667 -14 -124 -42 -178
s-66.667 -98.667 -116 -134s-105.666 -58 -168.999 -68c-31.333 -14 -47 -32.333 -47 -55c0 -13.333 5.5 -24.333 16.5 -33s26.5 -13 46.5 -13c29.333 0 60.333 9.66699 93 29l45 -79c-46.667 -36.667 -98 -55 -154 -55c-46.667 0 -85.334 10.667 -116.001 32
s-46 50.666 -46 87.999c0 32 11.667 60.333 35 85c-64.667 8.66699 -122.5 30.5 -173.5 65.5s-90.833 80 -119.5 135s-43 115.167 -43 180.5c0 72 17.167 137.333 51.5 196z" />
    <glyph glyph-name="uni01EB" unicode="&#x1eb;" horiz-adv-x="651" 
d="M305 -11c-38.667 -15.333 -57.999 -35.332 -57.999 -59.999c0 -13.333 5.5 -24.333 16.5 -33s26.5 -13 46.5 -13c29.333 0 60.333 9.66699 93 29l45 -79c-46.667 -36.667 -98 -55 -154 -55c-46.667 0 -85.334 10.667 -116.001 32s-46 50.666 -46 87.999
c0 24 6.5 45.833 19.5 65.5s30.833 35.834 53.5 48.501c-52 22 -93.667 56.167 -125 102.5s-47 99.166 -47 158.499c0 54 13 102.667 39 146s61.5 77.333 106.5 102s94.167 37 147.5 37s102.333 -12.333 147 -37s80 -58.667 106 -102s39 -92 39 -146s-13 -102.667 -39 -146
s-61.333 -77.333 -106 -102s-93.667 -37 -147 -37zM226.501 165.001c25.667 -28 58.834 -42 99.501 -42s73.667 14 99 42s38 64 38 108s-12.833 80 -38.5 108s-58.5 42 -98.5 42c-40.667 0 -73.834 -14 -99.501 -42s-38.5 -64 -38.5 -108s12.833 -80 38.5 -108z" />
    <glyph glyph-name="Aringacute" unicode="&#x1fa;" horiz-adv-x="732" 
d="M263 745h206l252 -745h-169l-50 152h-273l-50 -152h-168zM459 287l-93 287l-94 -287h187zM273 816.5c-25.333 25 -38 55.167 -38 90.5s12.667 65.5 38 90.5s56.333 37.5 93 37.5c36 0 66.5 -12.5 91.5 -37.5s37.5 -55.167 37.5 -90.5s-12.5 -65.5 -37.5 -90.5
s-55.5 -37.5 -91.5 -37.5c-36.667 0 -67.667 12.5 -93 37.5zM356 1185h160l-82 -120h-130zM329.5 871.5c9.66699 -9.66699 21.834 -14.5 36.501 -14.5c14 0 25.667 4.83301 35 14.5s14 21.5 14 35.5s-4.66699 25.833 -14 35.5s-21 14.5 -35 14.5
c-14.667 0 -26.834 -4.83301 -36.501 -14.5s-14.5 -21.5 -14.5 -35.5s4.83301 -25.833 14.5 -35.5z" />
    <glyph glyph-name="aringacute" unicode="&#x1fb;" horiz-adv-x="583" 
d="M84 30c-34 28 -51.001 66.6641 -51.001 115.997c0 46.667 16.167 84.834 48.5 114.501s80.833 49.834 145.5 60.501l151 24v15c0 20.667 -8.33301 38 -25 52s-38.667 21 -66 21c-26.667 0 -50.167 -7.16699 -70.5 -21.5s-35.166 -33.833 -44.499 -58.5l-120 57
c16 45.333 45.833 81.333 89.5 108s94.5 40 152.5 40c45.333 0 85.833 -8.33301 121.5 -25s63.334 -40 83.001 -70s29.5 -64.333 29.5 -103v-360h-140v51c-21.333 -21.333 -45.333 -37.166 -72 -47.499s-57.334 -15.5 -92.001 -15.5c-59.333 0 -106 14 -140 42z
M206.499 111.997c12.333 -9.33301 28.167 -14 47.5 -14c36.667 0 66.5 11.5 89.5 34.5s34.5 51.5 34.5 85.5v17l-124 -22c-22 -4 -38.5 -11 -49.5 -21s-16.5 -23.667 -16.5 -41c0 -16.667 6.16699 -29.667 18.5 -39zM199 617.497c-25.333 25 -38 55.167 -38 90.5
s12.667 65.5 38 90.5s56.333 37.5 93 37.5c36 0 66.5 -12.5 91.5 -37.5s37.5 -55.167 37.5 -90.5s-12.5 -65.5 -37.5 -90.5s-55.5 -37.5 -91.5 -37.5c-36.667 0 -67.667 12.5 -93 37.5zM282 985.997h160l-82 -120h-130zM255.5 672.497
c9.66699 -9.66699 21.834 -14.5 36.501 -14.5c14 0 25.667 4.83301 35 14.5s14 21.5 14 35.5s-4.66699 25.833 -14 35.5s-21 14.5 -35 14.5c-14.667 0 -26.834 -4.83301 -36.501 -14.5s-14.5 -21.5 -14.5 -35.5s4.83301 -25.833 14.5 -35.5z" />
    <glyph glyph-name="AEacute" unicode="&#x1fc;" horiz-adv-x="993" 
d="M263 745h708v-135h-346v-169h326v-135h-326v-171h346l-1 -135h-500v152h-241l-50 -152h-168zM470 287v323h-92l-106 -323h198zM489 983h171l-97 -144h-132z" />
    <glyph glyph-name="aeacute" unicode="&#x1fd;" horiz-adv-x="961" 
d="M84 30c-34 28 -51 66.6641 -51 115.997c0 46.667 16.167 84.834 48.5 114.501s80.833 49.834 145.5 60.501l151 24v15c0 20.667 -8.33301 38 -25 52s-38.667 21 -66 21c-26.667 0 -50.167 -7.16699 -70.5 -21.5s-35.166 -33.833 -44.499 -58.5l-120 57
c16 45.333 45.833 81.333 89.5 108s94.5 40 152.5 40c38 0 72.667 -5.83301 104 -17.5s57.333 -28.167 78 -49.5c24.667 21.333 52.5 37.833 83.5 49.5s63.833 17.5 98.5 17.5c56 0 104.333 -11.667 145 -35s71.667 -55.5 93 -96.5s32 -86.833 32 -137.5
c0 -24.667 -2.33301 -44 -7 -58h-382c4.66699 -34.667 18.5 -62.167 41.5 -82.5s52.833 -30.5 89.5 -30.5c26 0 48.667 5.33301 68 16s34.333 25.334 45 44.001l120 -57c-16 -39.333 -44.167 -71.333 -84.5 -96s-83.833 -37 -130.5 -37c-72.667 0 -131.667 20.667 -177 62
v-50h-123v50c-21.333 -21.333 -45.333 -37 -72 -47s-57.334 -15 -92.001 -15c-59.333 0 -106 14 -140 42zM206.5 111.997c12.333 -9.33301 28.167 -14 47.5 -14c36.667 0 66.5 11.5 89.5 34.5s34.5 51.5 34.5 85.5v17l-124 -22c-22 -4 -38.5 -11 -49.5 -21
s-16.5 -23.667 -16.5 -41c0 -16.667 6.16699 -29.667 18.5 -39zM769.001 340.997c-3.33301 29.333 -15 52.833 -35 70.5s-45.333 26.5 -76 26.5c-30 0 -55.167 -8.33301 -75.5 -25s-33.833 -40.667 -40.5 -72h227zM473.001 783.997h171l-97 -144h-132z" />
    <glyph glyph-name="Oslashacute" unicode="&#x1fe;" horiz-adv-x="878" 
d="M243 36l-28.999 -35.998h-162l92 112c-32 34.667 -56.667 74.167 -74 118.5s-26 91.833 -26 142.5c0 72 17.167 137.333 51.5 196s81.666 104.667 141.999 138s127.5 50 201.5 50c71.333 0 136.666 -15.667 195.999 -47l29 35h162l-92 -111
c32 -34.667 56.667 -74.334 74 -119.001s26 -92 26 -142c0 -72 -17.167 -137.333 -51.5 -196s-81.666 -104.834 -141.999 -138.501s-127.5 -50.5 -201.5 -50.5c-72 0 -137.333 16 -196 48zM241.001 230.002l300.999 366.001c-30.667 14 -65 21 -103 21
c-45.333 0 -86.166 -10.333 -122.499 -31s-65 -49.5 -86 -86.5s-31.5 -79.167 -31.5 -126.5c0 -54.667 14 -102.334 42 -143.001zM439 128.003c44.667 0 85.333 10.499 122 31.499s65.5 50 86.5 87s31.5 79.167 31.5 126.5c0 54.667 -13.667 102.334 -41 143.001l-301 -367
c30 -14 64 -21 102 -21zM430.999 983.002h171l-97 -144h-132z" />
    <glyph glyph-name="oslashacute" unicode="&#x1ff;" horiz-adv-x="651" 
d="M191 18l-15 -18h-149l73 89c-21.333 24.667 -37.833 52.667 -49.5 84s-17.5 64.666 -17.5 99.999c0 54 13 102.667 39 146s61.5 77.333 106.5 102s94.167 37 147.5 37c47.333 0 92 -10 134 -30l15 18h149l-73 -89c21.333 -24.667 37.833 -52.667 49.5 -84
s17.5 -64.666 17.5 -99.999c0 -54 -13 -102.667 -39 -146s-61.333 -77.333 -106 -102s-93.667 -37 -147 -37c-48 0 -93 10 -135 30zM199 210l170.001 207c-12.667 4 -27 6 -43 6c-40.667 0 -73.834 -14 -99.501 -42s-38.5 -64 -38.5 -108c0 -22 3.66699 -43 11 -63z
M326.001 123c40.667 0 73.667 14 99 42s38 64 38 108c0 22 -3.66699 43 -11 63l-170 -207c14 -4 28.667 -6 44 -6zM318.001 784h171l-97 -144h-132z" />
    <glyph glyph-name="uni0200" unicode="&#x200;" horiz-adv-x="732" 
d="M263 745h206l252 -745h-169l-50 152h-273l-50 -152h-168zM459 287l-93 287l-94 -287h187zM304 983h171l58 -144h-132zM273 983l58 -144h-132l-97 144h171z" />
    <glyph glyph-name="uni0201" unicode="&#x201;" horiz-adv-x="583" 
d="M84 30c-34 28 -51.001 66.6641 -51.001 115.997c0 46.667 16.167 84.834 48.5 114.501s80.833 49.834 145.5 60.501l151 24v15c0 20.667 -8.33301 38 -25 52s-38.667 21 -66 21c-26.667 0 -50.167 -7.16699 -70.5 -21.5s-35.166 -33.833 -44.499 -58.5l-120 57
c16 45.333 45.833 81.333 89.5 108s94.5 40 152.5 40c45.333 0 85.833 -8.33301 121.5 -25s63.334 -40 83.001 -70s29.5 -64.333 29.5 -103v-360h-140v51c-21.333 -21.333 -45.333 -37.166 -72 -47.499s-57.334 -15.5 -92.001 -15.5c-59.333 0 -106 14 -140 42z
M206.499 111.997c12.333 -9.33301 28.167 -14 47.5 -14c36.667 0 66.5 11.5 89.5 34.5s34.5 51.5 34.5 85.5v17l-124 -22c-22 -4 -38.5 -11 -49.5 -21s-16.5 -23.667 -16.5 -41c0 -16.667 6.16699 -29.667 18.5 -39zM230 783.997h171l58 -144h-132zM199 783.997l58 -144
h-132l-97 144h171z" />
    <glyph glyph-name="uni0202" unicode="&#x202;" horiz-adv-x="732" 
d="M263 745h206l252 -745h-169l-50 152h-273l-50 -152h-168zM459 287l-93 287l-94 -287h187zM220 912.5c15.333 23 36 41.333 62 55s54 20.5 84 20.5c30.667 0 59 -6.83301 85 -20.5s46.5 -32 61.5 -55s22.5 -47.5 22.5 -73.5h-119c0 13.333 -4.66699 24 -14 32
s-21.333 12 -36 12s-26.667 -4 -36 -12s-14 -18.667 -14 -32h-119c0 26 7.66699 50.5 23 73.5z" />
    <glyph glyph-name="uni0203" unicode="&#x203;" horiz-adv-x="583" 
d="M84 30c-34 28 -51.001 66.6641 -51.001 115.997c0 46.667 16.167 84.834 48.5 114.501s80.833 49.834 145.5 60.501l151 24v15c0 20.667 -8.33301 38 -25 52s-38.667 21 -66 21c-26.667 0 -50.167 -7.16699 -70.5 -21.5s-35.166 -33.833 -44.499 -58.5l-120 57
c16 45.333 45.833 81.333 89.5 108s94.5 40 152.5 40c45.333 0 85.833 -8.33301 121.5 -25s63.334 -40 83.001 -70s29.5 -64.333 29.5 -103v-360h-140v51c-21.333 -21.333 -45.333 -37.166 -72 -47.499s-57.334 -15.5 -92.001 -15.5c-59.333 0 -106 14 -140 42z
M206.499 111.997c12.333 -9.33301 28.167 -14 47.5 -14c36.667 0 66.5 11.5 89.5 34.5s34.5 51.5 34.5 85.5v17l-124 -22c-22 -4 -38.5 -11 -49.5 -21s-16.5 -23.667 -16.5 -41c0 -16.667 6.16699 -29.667 18.5 -39zM146 713.497c15.333 23 36 41.333 62 55s54 20.5 84 20.5
c30.667 0 59 -6.83301 85 -20.5s46.5 -32 61.5 -55s22.5 -47.5 22.5 -73.5h-119c0 13.333 -4.66699 24 -14 32s-21.333 12 -36 12s-26.667 -4 -36 -12s-14 -18.667 -14 -32h-119c0 26 7.66699 50.5 23 73.5z" />
    <glyph glyph-name="uni0204" unicode="&#x204;" horiz-adv-x="589" 
d="M66 745h501v-135h-346v-169h326v-135h-326v-171h346v-135h-501v745zM255 983h171l58 -144h-132zM224 983l58 -144h-132l-97 144h171z" />
    <glyph glyph-name="uni0205" unicode="&#x205;" horiz-adv-x="611" 
d="M169 26c-43.333 25.333 -76.834 59.832 -100.501 103.499s-35.5 91.834 -35.5 144.501c0 53.333 12 101.666 36 144.999s57 77.333 99 102s88.667 37 140 37c56 0 104.333 -11.667 145 -35s71.667 -55.5 93 -96.5s32 -86.833 32 -137.5c0 -24.667 -2.33301 -44 -7 -58
h-382c4.66699 -34.667 18.5 -62.167 41.5 -82.5s52.833 -30.5 89.5 -30.5c26 0 48.667 5.33301 68 16s34.333 25.334 45 44.001l120 -57c-16.667 -40 -46.167 -72.167 -88.5 -96.5s-91.166 -36.5 -146.499 -36.5c-56 0 -105.667 12.667 -149 38zM418.999 340.999
c-3.33301 29.333 -15 52.833 -35 70.5s-45.333 26.5 -76 26.5c-30 0 -55.167 -8.33301 -75.5 -25s-33.833 -40.667 -40.5 -72h227zM243.999 783.999h171l58 -144h-132zM212.999 783.999l58 -144h-132l-97 144h171z" />
    <glyph glyph-name="uni0206" unicode="&#x206;" horiz-adv-x="589" 
d="M66 745h501v-135h-346v-169h326v-135h-326v-171h346v-135h-501v745zM171 912.5c15.333 23 36 41.333 62 55s54 20.5 84 20.5c30.667 0 59 -6.83301 85 -20.5s46.5 -32 61.5 -55s22.5 -47.5 22.5 -73.5h-119c0 13.333 -4.66699 24 -14 32s-21.333 12 -36 12
s-26.667 -4 -36 -12s-14 -18.667 -14 -32h-119c0 26 7.66699 50.5 23 73.5z" />
    <glyph glyph-name="uni0207" unicode="&#x207;" horiz-adv-x="611" 
d="M169 26c-43.333 25.333 -76.834 59.832 -100.501 103.499s-35.5 91.834 -35.5 144.501c0 53.333 12 101.666 36 144.999s57 77.333 99 102s88.667 37 140 37c56 0 104.333 -11.667 145 -35s71.667 -55.5 93 -96.5s32 -86.833 32 -137.5c0 -24.667 -2.33301 -44 -7 -58
h-382c4.66699 -34.667 18.5 -62.167 41.5 -82.5s52.833 -30.5 89.5 -30.5c26 0 48.667 5.33301 68 16s34.333 25.334 45 44.001l120 -57c-16.667 -40 -46.167 -72.167 -88.5 -96.5s-91.166 -36.5 -146.499 -36.5c-56 0 -105.667 12.667 -149 38zM418.999 340.999
c-3.33301 29.333 -15 52.833 -35 70.5s-45.333 26.5 -76 26.5c-30 0 -55.167 -8.33301 -75.5 -25s-33.833 -40.667 -40.5 -72h227zM159.999 713.499c15.333 23 36 41.333 62 55s54 20.5 84 20.5c30.667 0 59 -6.83301 85 -20.5s46.5 -32 61.5 -55s22.5 -47.5 22.5 -73.5
h-119c0 13.333 -4.66699 24 -14 32s-21.333 12 -36 12s-26.667 -4 -36 -12s-14 -18.667 -14 -32h-119c0 26 7.66699 50.5 23 73.5z" />
    <glyph glyph-name="uni0208" unicode="&#x208;" horiz-adv-x="287" 
d="M66 745h155v-745h-155v745zM82 983h171l58 -144h-132zM51 983l58 -144h-132l-97 144h171z" />
    <glyph glyph-name="uni0209" unicode="&#x209;" horiz-adv-x="238" 
d="M44 546h150v-546h-150v546zM57 784h171l58 -144h-132zM26 784l58 -144h-132l-97 144h171z" />
    <glyph glyph-name="uni020A" unicode="&#x20a;" horiz-adv-x="287" 
d="M66 745h155v-745h-155v745zM-2 912.5c15.333 23 36 41.333 62 55s54 20.5 84 20.5c30.667 0 59 -6.83301 85 -20.5s46.5 -32 61.5 -55s22.5 -47.5 22.5 -73.5h-119c0 13.333 -4.66699 24 -14 32s-21.333 12 -36 12s-26.667 -4 -36 -12s-14 -18.667 -14 -32h-119
c0 26 7.66699 50.5 23 73.5z" />
    <glyph glyph-name="uni020B" unicode="&#x20b;" horiz-adv-x="238" 
d="M44 546h150v-546h-150v546zM-27 713.5c15.333 23 36 41.333 62 55s54 20.5 84 20.5c30.667 0 59 -6.83301 85 -20.5s46.5 -32 61.5 -55s22.5 -47.5 22.5 -73.5h-119c0 13.333 -4.66699 24 -14 32s-21.333 12 -36 12s-26.667 -4 -36 -12s-14 -18.667 -14 -32h-119
c0 26 7.66699 50.5 23 73.5z" />
    <glyph glyph-name="uni020C" unicode="&#x20c;" horiz-adv-x="878" 
d="M237.5 38.5c-60.333 33.667 -107.666 79.834 -141.999 138.501s-51.5 124 -51.5 196s17.167 137.333 51.5 196s81.666 104.667 141.999 138s127.5 50 201.5 50s141.167 -16.667 201.5 -50s107.666 -79.333 141.999 -138s51.5 -124 51.5 -196s-17.167 -137.333 -51.5 -196
s-81.666 -104.834 -141.999 -138.501s-127.5 -50.5 -201.5 -50.5s-141.167 16.833 -201.5 50.5zM230.5 246.5c21 -37 49.8291 -66 86.4961 -87s77.334 -31.5 122.001 -31.5s85.334 10.5 122.001 31.5s65.5 50 86.5 87s31.5 79.167 31.5 126.5s-10.5 89.5 -31.5 126.5
s-49.667 65.833 -86 86.5s-77.166 31 -122.499 31s-86.166 -10.333 -122.499 -31s-65 -49.5 -86 -86.5s-31.5 -79.167 -31.5 -126.5s10.5 -89.5 31.5 -126.5zM376.996 983h171l58 -144h-132zM345.996 983l58 -144h-132l-97 144h171z" />
    <glyph glyph-name="uni020D" unicode="&#x20d;" horiz-adv-x="651" 
d="M178.5 25c-45 24.667 -80.5 58.667 -106.5 102s-39 92 -39 146s13 102.667 39 146s61.5 77.333 106.5 102s94.167 37 147.5 37s102.333 -12.333 147 -37s80 -58.667 106 -102s39 -92 39 -146s-13 -102.667 -39 -146s-61.333 -77.333 -106 -102s-93.667 -37 -147 -37
s-102.5 12.333 -147.5 37zM226.5 165c25.667 -28 58.834 -42 99.501 -42s73.667 14 99 42s38 64 38 108s-12.833 80 -38.5 108s-58.5 42 -98.5 42c-40.667 0 -73.834 -14 -99.501 -42s-38.5 -64 -38.5 -108s12.833 -80 38.5 -108zM264 784h171l58 -144h-132zM233 784
l58 -144h-132l-97 144h171z" />
    <glyph glyph-name="uni020E" unicode="&#x20e;" horiz-adv-x="878" 
d="M237.5 38.5c-60.333 33.667 -107.666 79.834 -141.999 138.501s-51.5 124 -51.5 196s17.167 137.333 51.5 196s81.666 104.667 141.999 138s127.5 50 201.5 50s141.167 -16.667 201.5 -50s107.666 -79.333 141.999 -138s51.5 -124 51.5 -196s-17.167 -137.333 -51.5 -196
s-81.666 -104.834 -141.999 -138.501s-127.5 -50.5 -201.5 -50.5s-141.167 16.833 -201.5 50.5zM230.5 246.5c21 -37 49.8291 -66 86.4961 -87s77.334 -31.5 122.001 -31.5s85.334 10.5 122.001 31.5s65.5 50 86.5 87s31.5 79.167 31.5 126.5s-10.5 89.5 -31.5 126.5
s-49.667 65.833 -86 86.5s-77.166 31 -122.499 31s-86.166 -10.333 -122.499 -31s-65 -49.5 -86 -86.5s-31.5 -79.167 -31.5 -126.5s10.5 -89.5 31.5 -126.5zM292.996 912.5c15.333 23 36 41.333 62 55s54 20.5 84 20.5c30.667 0 59 -6.83301 85 -20.5s46.5 -32 61.5 -55
s22.5 -47.5 22.5 -73.5h-119c0 13.333 -4.66699 24 -14 32s-21.333 12 -36 12s-26.667 -4 -36 -12s-14 -18.667 -14 -32h-119c0 26 7.66699 50.5 23 73.5z" />
    <glyph glyph-name="uni020F" unicode="&#x20f;" horiz-adv-x="651" 
d="M178.5 25c-45 24.667 -80.5 58.667 -106.5 102s-39 92 -39 146s13 102.667 39 146s61.5 77.333 106.5 102s94.167 37 147.5 37s102.333 -12.333 147 -37s80 -58.667 106 -102s39 -92 39 -146s-13 -102.667 -39 -146s-61.333 -77.333 -106 -102s-93.667 -37 -147 -37
s-102.5 12.333 -147.5 37zM226.5 165c25.667 -28 58.834 -42 99.501 -42s73.667 14 99 42s38 64 38 108s-12.833 80 -38.5 108s-58.5 42 -98.5 42c-40.667 0 -73.834 -14 -99.501 -42s-38.5 -64 -38.5 -108s12.833 -80 38.5 -108zM180 713.5c15.333 23 36 41.333 62 55
s54 20.5 84 20.5c30.667 0 59 -6.83301 85 -20.5s46.5 -32 61.5 -55s22.5 -47.5 22.5 -73.5h-119c0 13.333 -4.66699 24 -14 32s-21.333 12 -36 12s-26.667 -4 -36 -12s-14 -18.667 -14 -32h-119c0 26 7.66699 50.5 23 73.5z" />
    <glyph glyph-name="uni0210" unicode="&#x210;" horiz-adv-x="667" 
d="M66 745l285.002 0.000976562c79.333 0 143.166 -20.667 191.499 -62s72.5 -100 72.5 -176c0 -50 -11.333 -92.833 -34 -128.5s-54.334 -62.834 -95.001 -81.501l170 -297h-174l-151 270h-110v-270h-155v745zM352.002 405.001c32.667 0 58.834 9.33203 78.501 27.999
s29.5 43.334 29.5 74.001s-9.83301 55.5 -29.5 74.5s-45.834 28.5 -78.501 28.5h-131v-205h131zM272.002 983h171l58 -144h-132zM241.002 983l58 -144h-132l-97 144h171z" />
    <glyph glyph-name="uni0211" unicode="&#x211;" horiz-adv-x="386" 
d="M55 546h139.999v-82c13.333 32 32.333 54.667 57 68s55 20 91 20h32v-130h-47c-37.333 0 -67.166 -11.333 -89.499 -34s-33.5 -54 -33.5 -94v-294h-150v546zM152.999 784h171l58 -144h-132zM121.999 784l58 -144h-132l-97 144h171z" />
    <glyph glyph-name="uni0212" unicode="&#x212;" horiz-adv-x="667" 
d="M66 745l285.002 0.000976562c79.333 0 143.166 -20.667 191.499 -62s72.5 -100 72.5 -176c0 -50 -11.333 -92.833 -34 -128.5s-54.334 -62.834 -95.001 -81.501l170 -297h-174l-151 270h-110v-270h-155v745zM352.002 405.001c32.667 0 58.834 9.33203 78.501 27.999
s29.5 43.334 29.5 74.001s-9.83301 55.5 -29.5 74.5s-45.834 28.5 -78.501 28.5h-131v-205h131zM188.002 912.5c15.333 23 36 41.333 62 55s54 20.5 84 20.5c30.667 0 59 -6.83301 85 -20.5s46.5 -32 61.5 -55s22.5 -47.5 22.5 -73.5h-119c0 13.333 -4.66699 24 -14 32
s-21.333 12 -36 12s-26.667 -4 -36 -12s-14 -18.667 -14 -32h-119c0 26 7.66699 50.5 23 73.5z" />
    <glyph glyph-name="uni0213" unicode="&#x213;" horiz-adv-x="386" 
d="M55 546h139.999v-82c13.333 32 32.333 54.667 57 68s55 20 91 20h32v-130h-47c-37.333 0 -67.166 -11.333 -89.499 -34s-33.5 -54 -33.5 -94v-294h-150v546zM68.999 713.5c15.333 23 36 41.333 62 55s54 20.5 84 20.5c30.667 0 59 -6.83301 85 -20.5s46.5 -32 61.5 -55
s22.5 -47.5 22.5 -73.5h-119c0 13.333 -4.66699 24 -14 32s-21.333 12 -36 12s-26.667 -4 -36 -12s-14 -18.667 -14 -32h-119c0 26 7.66699 50.5 23 73.5z" />
    <glyph glyph-name="uni0214" unicode="&#x214;" horiz-adv-x="724" 
d="M205.5 25c-46.333 24.667 -82.666 58.667 -108.999 102s-39.5 92 -39.5 146v472h155v-462c0 -44.667 14.167 -81.667 42.5 -111s64.166 -44 107.499 -44s79.166 14.667 107.499 44s42.5 66.333 42.5 111v462h155v-472c0 -54 -13.167 -102.667 -39.5 -146
s-62.666 -77.333 -108.999 -102s-98.5 -37 -156.5 -37s-110.167 12.333 -156.5 37zM300 983h171l58 -144h-132zM269 983l58 -144h-132l-97 144h171z" />
    <glyph glyph-name="uni0215" unicode="&#x215;" 
d="M98.5 49.5c-36.333 41 -54.502 96.167 -54.502 165.5v331h150v-319c0 -31.333 9.16699 -56.5 27.5 -75.5s42.5 -28.5 72.5 -28.5s54.167 9.5 72.5 28.5s27.5 44.167 27.5 75.5v319h150v-546h-140v66c-14 -26 -34.167 -45.5 -60.5 -58.5s-57.166 -19.5 -92.499 -19.5
c-65.333 0 -116.166 20.5 -152.499 61.5zM237.998 784h171l58 -144h-132zM206.998 784l58 -144h-132l-97 144h171z" />
    <glyph glyph-name="uni0216" unicode="&#x216;" horiz-adv-x="724" 
d="M205.5 25c-46.333 24.667 -82.666 58.667 -108.999 102s-39.5 92 -39.5 146v472h155v-462c0 -44.667 14.167 -81.667 42.5 -111s64.166 -44 107.499 -44s79.166 14.667 107.499 44s42.5 66.333 42.5 111v462h155v-472c0 -54 -13.167 -102.667 -39.5 -146
s-62.666 -77.333 -108.999 -102s-98.5 -37 -156.5 -37s-110.167 12.333 -156.5 37zM216 912.5c15.333 23 36 41.333 62 55s54 20.5 84 20.5c30.667 0 59 -6.83301 85 -20.5s46.5 -32 61.5 -55s22.5 -47.5 22.5 -73.5h-119c0 13.333 -4.66699 24 -14 32s-21.333 12 -36 12
s-26.667 -4 -36 -12s-14 -18.667 -14 -32h-119c0 26 7.66699 50.5 23 73.5z" />
    <glyph glyph-name="uni0217" unicode="&#x217;" 
d="M98.5 49.5c-36.333 41 -54.502 96.167 -54.502 165.5v331h150v-319c0 -31.333 9.16699 -56.5 27.5 -75.5s42.5 -28.5 72.5 -28.5s54.167 9.5 72.5 28.5s27.5 44.167 27.5 75.5v319h150v-546h-140v66c-14 -26 -34.167 -45.5 -60.5 -58.5s-57.166 -19.5 -92.499 -19.5
c-65.333 0 -116.166 20.5 -152.499 61.5zM153.998 713.5c15.333 23 36 41.333 62 55s54 20.5 84 20.5c30.667 0 59 -6.83301 85 -20.5s46.5 -32 61.5 -55s22.5 -47.5 22.5 -73.5h-119c0 13.333 -4.66699 24 -14 32s-21.333 12 -36 12s-26.667 -4 -36 -12
s-14 -18.667 -14 -32h-119c0 26 7.66699 50.5 23 73.5z" />
    <glyph glyph-name="uni0218" unicode="&#x218;" horiz-adv-x="647" 
d="M177 23c-44 23.333 -77.666 52.502 -100.999 87.502s-37.666 70.5 -42.999 106.5l147 37c17.333 -80.667 70.666 -121 159.999 -121c31.333 0 56.166 7 74.499 21s27.5 32.333 27.5 55c0 19.333 -6.83301 35.666 -20.5 48.999s-32.5 22.333 -56.5 27l-104 19
c-62.667 11.333 -111.834 37 -147.501 77s-53.5 90.333 -53.5 151c0 40.667 12.167 78.334 36.5 113.001s56.333 62 96 82s81.5 30 125.5 30c59.333 0 108.833 -9.83301 148.5 -29.5s69.834 -44 90.501 -73s34 -58.833 40 -89.5l-146 -44c-14 34.667 -30.667 58.5 -50 71.5
s-47 19.5 -83 19.5c-18.667 0 -35.167 -3.83301 -49.5 -11.5s-25.5 -17.334 -33.5 -29.001s-12 -23.5 -12 -35.5c0 -19.333 6 -35.333 18 -48s29.667 -21.334 53 -26.001l103 -21c67.333 -14 119.333 -41 156 -81s55 -87.667 55 -143c0 -38 -10.833 -74.667 -32.5 -110
s-53 -64 -94 -86s-89.167 -33 -144.5 -33c-62.667 0 -116 11.667 -160 35zM326.001 -229.998h-67v150h150v-87c0 -63.333 -14.333 -114.333 -43 -153s-71 -63.667 -127 -75v75c49.333 11.333 78.333 41.333 87 90z" />
    <glyph glyph-name="uni0219" unicode="&#x219;" horiz-adv-x="515" 
d="M116.5 28.5c-43 26.333 -72.833 62.4971 -89.5 108.497l108 56c14.667 -28 33.667 -49.833 57 -65.5s49.333 -23.5 78 -23.5c22 0 39 4.33301 51 13s18 20.667 18 36c0 12 -4.66699 22.333 -14 31s-23.333 14.667 -42 18l-93 18
c-45.333 10.667 -80.833 30.834 -106.5 60.501s-38.5 64.834 -38.5 105.501c0 34 8.83301 64 26.5 90s42.667 46.167 75 60.5s69.5 21.5 111.5 21.5c50.667 0 95.334 -11.833 134.001 -35.5s67 -56.834 85 -99.501l-109 -56c-8.66699 21.333 -23.334 38.5 -44.001 51.5
s-43.667 19.5 -69 19.5c-20.667 0 -36.667 -4 -48 -12s-17 -19 -17 -33c0 -11.333 4.83301 -21.166 14.5 -29.499s25.167 -15.166 46.5 -20.499l87 -18c46.667 -12.667 82.667 -33.167 108 -61.5s38 -62.5 38 -102.5c0 -34 -9 -64 -27 -90s-43.333 -46.167 -76 -60.5
s-70.667 -21.5 -114 -21.5c-57.333 0 -107.5 13.167 -150.5 39.5zM260 -230.003h-67v150h150v-87c0 -63.333 -14.333 -114.333 -43 -153s-71 -63.667 -127 -75v75c49.333 11.333 78.333 41.333 87 90z" />
    <glyph glyph-name="uni021A" unicode="&#x21a;" horiz-adv-x="552" 
d="M200 610h-189v135h530v-135h-186v-610h-155v610zM278 -230h-67v150h150v-87c0 -63.333 -14.333 -114.333 -43 -153s-71 -63.667 -127 -75v75c49.333 11.333 78.333 41.333 87 90z" />
    <glyph glyph-name="uni021B" unicode="&#x21b;" horiz-adv-x="421" 
d="M164.5 47.5c-36.333 35.667 -54.499 85.5 -54.499 149.5v219h-92v130h5c28 0 49.5 7 64.5 21s22.5 35 22.5 63v40h150v-124h128v-130h-128v-209c0 -28 7.66699 -48.833 23 -62.5s38.666 -20.5 69.999 -20.5c9.33301 0 21 1 35 3v-128c-22 -3.33301 -45.333 -5 -70 -5
c-66 0 -117.167 17.833 -153.5 53.5zM313.001 -230h-67v150h150v-87c0 -63.333 -14.333 -114.333 -43 -153s-71 -63.667 -127 -75v75c49.333 11.333 78.333 41.333 87 90z" />
    <glyph glyph-name="uni022A" unicode="&#x22a;" horiz-adv-x="878" 
d="M237.5 38.5c-60.333 33.667 -107.666 79.834 -141.999 138.501s-51.5 124 -51.5 196s17.167 137.333 51.5 196s81.666 104.667 141.999 138s127.5 50 201.5 50s141.167 -16.667 201.5 -50s107.666 -79.333 141.999 -138s51.5 -124 51.5 -196s-17.167 -137.333 -51.5 -196
s-81.666 -104.834 -141.999 -138.501s-127.5 -50.5 -201.5 -50.5s-141.167 16.833 -201.5 50.5zM230.5 246.5c21 -37 49.8291 -66 86.4961 -87s77.334 -31.5 122.001 -31.5s85.334 10.5 122.001 31.5s65.5 50 86.5 87s31.5 79.167 31.5 126.5s-10.5 89.5 -31.5 126.5
s-49.667 65.833 -86 86.5s-77.166 31 -122.499 31s-86.166 -10.333 -122.499 -31s-65 -49.5 -86 -86.5s-31.5 -79.167 -31.5 -126.5s10.5 -89.5 31.5 -126.5zM281.996 862c-15.333 15.333 -23 33.667 -23 55s7.66699 39.5 23 54.5s33.666 22.5 54.999 22.5
s39.5 -7.5 54.5 -22.5s22.5 -33.167 22.5 -54.5c0 -22 -7.5 -40.5 -22.5 -55.5s-33.167 -22.5 -54.5 -22.5s-39.666 7.66699 -54.999 23zM294.996 1133h288v-109h-288v109zM486.996 971.501c15.333 15 33.666 22.501 54.999 22.501s39.5 -7.5 54.5 -22.5
s22.5 -33.167 22.5 -54.5c0 -22 -7.5 -40.5 -22.5 -55.5s-33.167 -22.5 -54.5 -22.5s-39.666 7.66699 -54.999 23s-23 33.666 -23 54.999s7.66699 39.5 23 54.5z" />
    <glyph glyph-name="uni022B" unicode="&#x22b;" horiz-adv-x="651" 
d="M178.5 25c-45 24.667 -80.5 58.667 -106.5 102s-39 92 -39 146s13 102.667 39 146s61.5 77.333 106.5 102s94.167 37 147.5 37s102.333 -12.333 147 -37s80 -58.667 106 -102s39 -92 39 -146s-13 -102.667 -39 -146s-61.333 -77.333 -106 -102s-93.667 -37 -147 -37
s-102.5 12.333 -147.5 37zM226.5 165c25.667 -28 58.834 -42 99.501 -42s73.667 14 99 42s38 64 38 108s-12.833 80 -38.5 108s-58.5 42 -98.5 42c-40.667 0 -73.834 -14 -99.501 -42s-38.5 -64 -38.5 -108s12.833 -80 38.5 -108zM169 663c-15.333 15.333 -23 33.667 -23 55
s7.66699 39.5 23 54.5s33.666 22.5 54.999 22.5s39.5 -7.5 54.5 -22.5s22.5 -33.167 22.5 -54.5c0 -22 -7.5 -40.5 -22.5 -55.5s-33.167 -22.5 -54.5 -22.5s-39.666 7.66699 -54.999 23zM182 934.001h288v-109h-288v109zM374 772.501c15.333 15 33.666 22.501 54.999 22.501
s39.5 -7.5 54.5 -22.5s22.5 -33.167 22.5 -54.5c0 -22 -7.5 -40.5 -22.5 -55.5s-33.167 -22.5 -54.5 -22.5s-39.666 7.66699 -54.999 23s-23 33.666 -23 54.999s7.66699 39.5 23 54.5z" />
    <glyph glyph-name="uni022C" unicode="&#x22c;" horiz-adv-x="878" 
d="M237.5 38.5c-60.333 33.667 -107.666 79.834 -141.999 138.501s-51.5 124 -51.5 196s17.167 137.333 51.5 196s81.666 104.667 141.999 138s127.5 50 201.5 50s141.167 -16.667 201.5 -50s107.666 -79.333 141.999 -138s51.5 -124 51.5 -196s-17.167 -137.333 -51.5 -196
s-81.666 -104.834 -141.999 -138.501s-127.5 -50.5 -201.5 -50.5s-141.167 16.833 -201.5 50.5zM230.5 246.5c21 -37 49.8291 -66 86.4961 -87s77.334 -31.5 122.001 -31.5s85.334 10.5 122.001 31.5s65.5 50 86.5 87s31.5 79.167 31.5 126.5s-10.5 89.5 -31.5 126.5
s-49.667 65.833 -86 86.5s-77.166 31 -122.499 31s-86.166 -10.333 -122.499 -31s-65 -49.5 -86 -86.5s-31.5 -79.167 -31.5 -126.5s10.5 -89.5 31.5 -126.5zM473.496 848.5c-11 5 -23.832 12.498 -38.499 22.498c-8.66699 6.66699 -15.667 11.5 -21 14.5
s-11.333 4.5 -18 4.5c-10.667 0 -18.334 -4 -23.001 -12s-7.66699 -19 -9 -33h-93c0 50.667 9.33301 87.5 28 110.5s43.334 34.5 74.001 34.5c15.333 0 28.333 -2.66699 39 -8s21.667 -12.666 33 -21.999c8.66699 -6.66699 15.667 -11.5 21 -14.5s11.333 -4.5 18 -4.5
c9.33301 0 16.666 4.33301 21.999 13s8 19 8 31h93c0.666992 -51.333 -6.83301 -88.166 -22.5 -110.499s-38.5 -33.5 -68.5 -33.5c-17.333 0 -31.5 2.5 -42.5 7.5zM294.997 1143h288v-109h-288v109z" />
    <glyph glyph-name="uni022D" unicode="&#x22d;" horiz-adv-x="651" 
d="M178.5 25c-45 24.667 -80.5 58.667 -106.5 102s-39 92 -39 146s13 102.667 39 146s61.5 77.333 106.5 102s94.167 37 147.5 37s102.333 -12.333 147 -37s80 -58.667 106 -102s39 -92 39 -146s-13 -102.667 -39 -146s-61.333 -77.333 -106 -102s-93.667 -37 -147 -37
s-102.5 12.333 -147.5 37zM226.5 165c25.667 -28 58.834 -42 99.501 -42s73.667 14 99 42s38 64 38 108s-12.833 80 -38.5 108s-58.5 42 -98.5 42c-40.667 0 -73.834 -14 -99.501 -42s-38.5 -64 -38.5 -108s12.833 -80 38.5 -108zM360.5 649.5
c-11 5 -23.832 12.498 -38.499 22.498c-8.66699 6.66699 -15.667 11.5 -21 14.5s-11.333 4.5 -18 4.5c-10.667 0 -18.334 -4 -23.001 -12s-7.66699 -19 -9 -33h-93c0 50.667 9.33301 87.5 28 110.5s43.334 34.5 74.001 34.5c15.333 0 28.333 -2.66699 39 -8
s21.667 -12.666 33 -21.999c8.66699 -6.66699 15.667 -11.5 21 -14.5s11.333 -4.5 18 -4.5c9.33301 0 16.666 4.33301 21.999 13s8 19 8 31h93c0.666992 -51.333 -6.83301 -88.166 -22.5 -110.499s-38.5 -33.5 -68.5 -33.5c-17.333 0 -31.5 2.5 -42.5 7.5zM182.001 943.998
h288v-109h-288v109z" />
    <glyph glyph-name="uni0230" unicode="&#x230;" horiz-adv-x="878" 
d="M237.5 38.5c-60.333 33.667 -107.666 79.834 -141.999 138.501s-51.5 124 -51.5 196s17.167 137.333 51.5 196s81.666 104.667 141.999 138s127.5 50 201.5 50s141.167 -16.667 201.5 -50s107.666 -79.333 141.999 -138s51.5 -124 51.5 -196s-17.167 -137.333 -51.5 -196
s-81.666 -104.834 -141.999 -138.501s-127.5 -50.5 -201.5 -50.5s-141.167 16.833 -201.5 50.5zM230.5 246.5c21 -37 49.8291 -66 86.4961 -87s77.334 -31.5 122.001 -31.5s85.334 10.5 122.001 31.5s65.5 50 86.5 87s31.5 79.167 31.5 126.5s-10.5 89.5 -31.5 126.5
s-49.667 65.833 -86 86.5s-77.166 31 -122.499 31s-86.166 -10.333 -122.499 -31s-65 -49.5 -86 -86.5s-31.5 -79.167 -31.5 -126.5s10.5 -89.5 31.5 -126.5zM294.996 1133h288v-109h-288v109zM384.996 971.5c15.333 15 33.666 22.501 54.999 22.501s39.5 -7.5 54.5 -22.5
s22.5 -33.167 22.5 -54.5c0 -22 -7.5 -40.5 -22.5 -55.5s-33.167 -22.5 -54.5 -22.5s-39.666 7.66699 -54.999 23s-23 33.666 -23 54.999s7.66699 39.5 23 54.5z" />
    <glyph glyph-name="uni0231" unicode="&#x231;" horiz-adv-x="651" 
d="M178.5 25c-45 24.667 -80.5 58.667 -106.5 102s-39 92 -39 146s13 102.667 39 146s61.5 77.333 106.5 102s94.167 37 147.5 37s102.333 -12.333 147 -37s80 -58.667 106 -102s39 -92 39 -146s-13 -102.667 -39 -146s-61.333 -77.333 -106 -102s-93.667 -37 -147 -37
s-102.5 12.333 -147.5 37zM226.5 165c25.667 -28 58.834 -42 99.501 -42s73.667 14 99 42s38 64 38 108s-12.833 80 -38.5 108s-58.5 42 -98.5 42c-40.667 0 -73.834 -14 -99.501 -42s-38.5 -64 -38.5 -108s12.833 -80 38.5 -108zM182 934h288v-109h-288v109zM272 772.5
c15.333 15 33.666 22.501 54.999 22.501s39.5 -7.5 54.5 -22.5s22.5 -33.167 22.5 -54.5c0 -22 -7.5 -40.5 -22.5 -55.5s-33.167 -22.5 -54.5 -22.5s-39.666 7.66699 -54.999 23s-23 33.666 -23 54.999s7.66699 39.5 23 54.5z" />
    <glyph glyph-name="uni0232" unicode="&#x232;" horiz-adv-x="672" 
d="M259 325l-248 420h177l148 -261l148 261h177l-247 -419v-326h-155v325zM192 963h288v-109h-288v109z" />
    <glyph glyph-name="uni0233" unicode="&#x233;" horiz-adv-x="602" 
d="M157 764h288v-109h-288v109z" />
    <glyph glyph-name="uni0237" unicode="&#x237;" horiz-adv-x="260" 
d="M-65 -217v128c10.667 -2 22 -3 34 -3c57.333 0 86 24 86 72v566h150v-566c0 -64 -19 -113.667 -57 -149s-91 -53 -159 -53c-21.333 0 -39.333 1.66699 -54 5z" />
    <glyph glyph-name="uni0259" unicode="&#x259;" horiz-adv-x="611" 
d="M158 23c-40.667 23.333 -71.666 55.501 -92.999 96.501s-32 86.833 -32 137.5c0 24.667 2.33301 44 7 58h382c-4.66699 34.667 -18.5 62.167 -41.5 82.5s-52.833 30.5 -89.5 30.5c-26 0 -48.667 -5.33301 -68 -16s-34.333 -25.334 -45 -44.001l-120 57
c16.667 40 46.167 72.167 88.5 96.5s91.166 36.5 146.499 36.5c56 0 105.667 -12.667 149 -38s76.833 -59.833 100.5 -103.5s35.5 -91.834 35.5 -144.501c0 -53.333 -12 -101.666 -36 -144.999s-57 -77.333 -99 -102s-88.667 -37 -140 -37c-56 0 -104.333 11.667 -145 35z
M227.001 134.501c20 -17.667 45.333 -26.5 76 -26.5c30 0 55.167 8.33301 75.5 25s33.833 40.667 40.5 72h-227c3.33301 -29.333 15 -52.833 35 -70.5z" />
    <glyph glyph-name="uni02BB" unicode="&#x2bb;" horiz-adv-x="428" 
d="M212 592c19.333 0 35.332 -7.16895 47.999 -21.502s19 -32.166 19 -53.499s-7.16699 -39.166 -21.5 -53.499s-32.166 -21.5 -53.499 -21.5c-50 0 -75 29 -75 87c0 63.333 14.333 114.333 43 153s71 63.667 127 75v-75c-49.333 -11.333 -78.333 -41.333 -87 -90z" />
    <glyph glyph-name="uni02BC" unicode="&#x2bc;" horiz-adv-x="388" 
d="M129 745h130l-17 -305h-95z" />
    <glyph glyph-name="uni02BE" unicode="&#x2be;" horiz-adv-x="389" 
d="M165.5 672.5c9.66699 9.66699 14.5 21.5 14.5 35.5s-4.83301 25.833 -14.5 35.5s-21.834 14.5 -36.501 14.5v78c36.667 0 67.667 -12.5 93 -37.5s38 -55.167 38 -90.5s-12.667 -65.5 -38 -90.5s-56.333 -37.5 -93 -37.5v78c14.667 0 26.834 4.83301 36.501 14.5z" />
    <glyph glyph-name="uni02BF" unicode="&#x2bf;" horiz-adv-x="389" 
d="M167 617.5c-25.333 25 -38 55.167 -38 90.5s12.667 65.5 38 90.5s56.333 37.5 93 37.5v-78c-14.667 0 -26.834 -4.83301 -36.501 -14.5s-14.5 -21.5 -14.5 -35.5s4.83301 -25.833 14.5 -35.5s21.834 -14.5 36.501 -14.5v-78c-36.667 0 -67.667 12.5 -93 37.5z" />
    <glyph glyph-name="circumflex" unicode="&#x2c6;" horiz-adv-x="659" 
d="M251 784h157l122 -144h-137l-62 71l-62 -71h-140z" />
    <glyph glyph-name="caron" unicode="&#x2c7;" horiz-adv-x="659" 
d="M129 784h140l62 -71l62 71h137l-122 -144h-157z" />
    <glyph glyph-name="uni02C8" unicode="&#x2c8;" horiz-adv-x="388" 
d="M129 745h130v-195h-130v195z" />
    <glyph glyph-name="uni02C9" unicode="&#x2c9;" horiz-adv-x="546" 
d="M129 764h288v-109h-288v109z" />
    <glyph glyph-name="uni02CA" unicode="&#x2ca;" horiz-adv-x="487" 
d="M187 784h171l-97 -144h-132z" />
    <glyph glyph-name="uni02CB" unicode="&#x2cb;" horiz-adv-x="487" 
d="M129 784h171l58 -144h-132z" />
    <glyph glyph-name="uni02CC" unicode="&#x2cc;" horiz-adv-x="388" 
d="M129 0h130v-195h-130v195z" />
    <glyph glyph-name="breve" unicode="&#x2d8;" horiz-adv-x="596" 
d="M214 660.5c-26 13.667 -46.667 32 -62 55s-23 47.5 -23 73.5h119c0 -13.333 4.66699 -24 14 -32s21.333 -12 36 -12s26.667 4 36 12s14 18.667 14 32h119c0 -26 -7.5 -50.5 -22.5 -73.5s-35.5 -41.333 -61.5 -55s-54.333 -20.5 -85 -20.5c-30 0 -58 6.83301 -84 20.5z
" />
    <glyph glyph-name="dotaccent" unicode="&#x2d9;" horiz-adv-x="413" 
d="M152 663c-15.333 15.333 -23 33.667 -23 55s7.66699 39.5 23 54.5s33.666 22.5 54.999 22.5s39.5 -7.5 54.5 -22.5s22.5 -33.167 22.5 -54.5c0 -22 -7.5 -40.5 -22.5 -55.5s-33.167 -22.5 -54.5 -22.5s-39.666 7.66699 -54.999 23z" />
    <glyph glyph-name="ring" unicode="&#x2da;" horiz-adv-x="518" 
d="M167 617.5c-25.333 25 -38 55.167 -38 90.5s12.667 65.5 38 90.5s56.333 37.5 93 37.5c36 0 66.5 -12.5 91.5 -37.5s37.5 -55.167 37.5 -90.5s-12.5 -65.5 -37.5 -90.5s-55.5 -37.5 -91.5 -37.5c-36.667 0 -67.667 12.5 -93 37.5zM223.5 672.5
c9.66699 -9.66699 21.834 -14.5 36.501 -14.5c14 0 25.667 4.83301 35 14.5s14 21.5 14 35.5s-4.66699 25.833 -14 35.5s-21 14.5 -35 14.5c-14.667 0 -26.834 -4.83301 -36.501 -14.5s-14.5 -21.5 -14.5 -35.5s4.83301 -25.833 14.5 -35.5z" />
    <glyph glyph-name="ogonek" unicode="&#x2db;" horiz-adv-x="574" 
d="M175 -196c-30.667 21.333 -45.999 50.6689 -45.999 88.002c0 39.333 16.667 72.166 50 98.499s74 41.166 122 44.499h43v-40c-66.667 -15.333 -100 -39.333 -100 -72c0 -13.333 5.5 -24.333 16.5 -33s26.5 -13 46.5 -13c29.333 0 60.333 9.66699 93 29l45 -79
c-46.667 -36.667 -98 -55 -154 -55c-46.667 0 -85.334 10.667 -116.001 32z" />
    <glyph glyph-name="tilde" unicode="&#x2dc;" horiz-adv-x="594" 
d="M331.5 619.5c-11 5 -23.832 12.498 -38.499 22.498c-8.66699 6.66699 -15.667 11.5 -21 14.5s-11.333 4.5 -18 4.5c-10.667 0 -18.334 -4 -23.001 -12s-7.66699 -19 -9 -33h-93c0 50.667 9.33301 87.5 28 110.5s43.334 34.5 74.001 34.5c15.333 0 28.333 -2.66699 39 -8
s21.667 -12.666 33 -21.999c8.66699 -6.66699 15.667 -11.5 21 -14.5s11.333 -4.5 18 -4.5c9.33301 0 16.666 4.33301 21.999 13s8 19 8 31h93c0.666992 -51.333 -6.83301 -88.166 -22.5 -110.499s-38.5 -33.5 -68.5 -33.5c-17.333 0 -31.5 2.5 -42.5 7.5z" />
    <glyph glyph-name="hungarumlaut" unicode="&#x2dd;" horiz-adv-x="689" 
d="M187 784h171l-97 -144h-132zM389 784h171l-97 -144h-132z" />
    <glyph glyph-name="gravecomb" unicode="&#x300;" horiz-adv-x="0" 
d="M129 784h171l58 -144h-132z" />
    <glyph glyph-name="acutecomb" unicode="&#x301;" horiz-adv-x="0" 
d="M187 784h171l-97 -144h-132z" />
    <glyph glyph-name="uni0302" unicode="&#x302;" horiz-adv-x="0" 
d="M251 784h157l122 -144h-137l-62 71l-62 -71h-140z" />
    <glyph glyph-name="tildecomb" unicode="&#x303;" horiz-adv-x="0" 
d="M331.5 619.5c-11 5 -23.832 12.498 -38.499 22.498c-8.66699 6.66699 -15.667 11.5 -21 14.5s-11.333 4.5 -18 4.5c-10.667 0 -18.334 -4 -23.001 -12s-7.66699 -19 -9 -33h-93c0 50.667 9.33301 87.5 28 110.5s43.334 34.5 74.001 34.5c15.333 0 28.333 -2.66699 39 -8
s21.667 -12.666 33 -21.999c8.66699 -6.66699 15.667 -11.5 21 -14.5s11.333 -4.5 18 -4.5c9.33301 0 16.666 4.33301 21.999 13s8 19 8 31h93c0.666992 -51.333 -6.83301 -88.166 -22.5 -110.499s-38.5 -33.5 -68.5 -33.5c-17.333 0 -31.5 2.5 -42.5 7.5z" />
    <glyph glyph-name="uni0304" unicode="&#x304;" horiz-adv-x="0" 
d="M129 764h288v-109h-288v109z" />
    </font>
</defs>
</svg>
